<svg width="229" height="444" viewBox="0 0 229 444" fill="none" xmlns="http://www.w3.org/2000/svg">
<path d="M17.0005 3.5C9.54464 3.5 3.50049 9.54416 3.50049 17V427C3.50049 434.456 9.54465 440.5 17.0005 440.5H212C219.456 440.5 225.5 434.456 225.5 427V17C225.5 9.54416 219.456 3.5 212 3.5H17.0005Z" fill="white" stroke="#E5EDFD" stroke-width="7"/>
<path d="M7.00049 17C7.00049 11.4771 11.4776 7 17.0005 7H212C217.523 7 222 11.4772 222 17V422H7.00049V17Z" fill="#E5EDFD"/>
<path d="M6 166C6 151.641 17.6406 140 32 140H196C210.359 140 222 151.641 222 166V427C222 432.523 217.523 437 212 437H16C10.4772 437 6 432.523 6 427V166Z" fill="white"/>
<path d="M31.8755 72.5H34.8755V90H31.4255V76.15L28.1255 77.075L27.2755 74.125L31.8755 72.5ZM49.9185 78.225C49.9185 79.575 49.5685 80.7583 48.8685 81.775H48.8935L43.4435 90H39.4935L43.3935 84.3C41.5768 84.2667 40.0935 83.6917 38.9435 82.575C37.8101 81.4417 37.2435 79.9917 37.2435 78.225C37.2435 76.4417 37.8268 74.9833 38.9935 73.85C40.1768 72.7167 41.7018 72.15 43.5685 72.15C45.4518 72.15 46.9768 72.7167 48.1435 73.85C49.3268 74.9667 49.9185 76.425 49.9185 78.225ZM40.6685 78.225C40.6685 79.0917 40.9435 79.7833 41.4935 80.3C42.0601 80.8167 42.7518 81.075 43.5685 81.075C44.4185 81.075 45.1185 80.8167 45.6685 80.3C46.2185 79.7833 46.4935 79.0917 46.4935 78.225C46.4935 77.3583 46.2185 76.675 45.6685 76.175C45.1185 75.6583 44.4185 75.4 43.5685 75.4C42.7518 75.4 42.0601 75.6583 41.4935 76.175C40.9435 76.6917 40.6685 77.375 40.6685 78.225ZM69.9868 78.225C69.9868 79.575 69.6368 80.7583 68.9368 81.775H68.9618L63.5118 90H59.5618L63.4618 84.3C61.6452 84.2667 60.1618 83.6917 59.0118 82.575C57.8785 81.4417 57.3118 79.9917 57.3118 78.225C57.3118 76.4417 57.8951 74.9833 59.0618 73.85C60.2451 72.7167 61.7702 72.15 63.6368 72.15C65.5202 72.15 67.0452 72.7167 68.2118 73.85C69.3952 74.9667 69.9868 76.425 69.9868 78.225ZM60.7368 78.225C60.7368 79.0917 61.0118 79.7833 61.5618 80.3C62.1285 80.8167 62.8202 81.075 63.6368 81.075C64.4868 81.075 65.1868 80.8167 65.7368 80.3C66.2868 79.7833 66.5618 79.0917 66.5618 78.225C66.5618 77.3583 66.2868 76.675 65.7368 76.175C65.1868 75.6583 64.4868 75.4 63.6368 75.4C62.8202 75.4 62.1285 75.6583 61.5618 76.175C61.0118 76.6917 60.7368 77.375 60.7368 78.225ZM83.8052 78.225C83.8052 79.575 83.4552 80.7583 82.7552 81.775H82.7802L77.3302 90H73.3802L77.2802 84.3C75.4635 84.2667 73.9802 83.6917 72.8302 82.575C71.6968 81.4417 71.1302 79.9917 71.1302 78.225C71.1302 76.4417 71.7135 74.9833 72.8802 73.85C74.0635 72.7167 75.5885 72.15 77.4552 72.15C79.3385 72.15 80.8635 72.7167 82.0302 73.85C83.2135 74.9667 83.8052 76.425 83.8052 78.225ZM74.5552 78.225C74.5552 79.0917 74.8302 79.7833 75.3802 80.3C75.9468 80.8167 76.6385 81.075 77.4552 81.075C78.3052 81.075 79.0052 80.8167 79.5552 80.3C80.1052 79.7833 80.3802 79.0917 80.3802 78.225C80.3802 77.3583 80.1052 76.675 79.5552 76.175C79.0052 75.6583 78.3052 75.4 77.4552 75.4C76.6385 75.4 75.9468 75.6583 75.3802 76.175C74.8302 76.6917 74.5552 77.375 74.5552 78.225ZM92.2485 90.35C90.0652 90.35 88.3485 89.525 87.0985 87.875C85.8652 86.2083 85.2485 84 85.2485 81.25C85.2485 78.5 85.8652 76.3 87.0985 74.65C88.3485 72.9833 90.0652 72.15 92.2485 72.15C94.4485 72.15 96.1652 72.9833 97.3985 74.65C98.6319 76.3 99.2485 78.5 99.2485 81.25C99.2485 84 98.6319 86.2083 97.3985 87.875C96.1652 89.525 94.4485 90.35 92.2485 90.35ZM89.5985 85.525C90.1985 86.4917 91.0819 86.975 92.2485 86.975C93.4152 86.975 94.2985 86.4833 94.8985 85.5C95.5152 84.5167 95.8235 83.1 95.8235 81.25C95.8235 79.3833 95.5152 77.9583 94.8985 76.975C94.2985 75.9917 93.4152 75.5 92.2485 75.5C91.0819 75.5 90.1985 75.9917 89.5985 76.975C88.9985 77.9583 88.6985 79.3833 88.6985 81.25C88.6985 83.1167 88.9985 84.5417 89.5985 85.525ZM115.096 83.925H111.996V85.3H117.571V87.5H111.996V90H108.571V87.5H106.696V85.3H108.571V83.925H106.696V80.9H108.571V72.5H115.096C116.746 72.5 118.137 73.0667 119.271 74.2C120.421 75.3333 120.996 76.7 120.996 78.3C120.996 79.9 120.429 81.2417 119.296 82.325C118.162 83.3917 116.762 83.925 115.096 83.925ZM111.996 75.725V80.9H115.096C115.796 80.9 116.379 80.65 116.846 80.15C117.329 79.65 117.571 79.0333 117.571 78.3C117.571 77.5667 117.329 76.9583 116.846 76.475C116.379 75.975 115.796 75.725 115.096 75.725H111.996Z" fill="#333A4C"/>
<path opacity="0.5" d="M32.8685 112.244C32.2605 112.844 31.5165 113.144 30.6365 113.144C29.7565 113.144 29.0085 112.844 28.3925 112.244C27.7845 111.636 27.4805 110.888 27.4805 110C27.4805 109.112 27.7845 108.368 28.3925 107.768C29.0085 107.16 29.7565 106.856 30.6365 106.856C31.5165 106.856 32.2605 107.16 32.8685 107.768C33.4845 108.368 33.7925 109.112 33.7925 110C33.7925 110.888 33.4845 111.636 32.8685 112.244ZM28.9565 111.692C29.4125 112.148 29.9725 112.376 30.6365 112.376C31.3005 112.376 31.8605 112.148 32.3165 111.692C32.7725 111.228 33.0005 110.664 33.0005 110C33.0005 109.336 32.7725 108.776 32.3165 108.32C31.8605 107.856 31.3005 107.624 30.6365 107.624C29.9725 107.624 29.4125 107.856 28.9565 108.32C28.5005 108.776 28.2725 109.336 28.2725 110C28.2725 110.664 28.5005 111.228 28.9565 111.692ZM39.2035 107V107.768H37.0795V113H36.2875V107.768H34.1635V107H39.2035ZM48.3286 107.228C48.3286 107.86 48.1566 108.42 47.8126 108.908L45.0646 113H44.1166L46.1806 109.928C45.9646 109.976 45.7406 110 45.5086 110C44.6846 110 44.0086 109.744 43.4806 109.232C42.9526 108.712 42.6886 108.044 42.6886 107.228C42.6886 106.412 42.9526 105.748 43.4806 105.236C44.0086 104.716 44.6846 104.456 45.5086 104.456C46.3326 104.456 47.0086 104.716 47.5366 105.236C48.0646 105.748 48.3286 106.412 48.3286 107.228ZM44.0686 105.812C43.7086 106.172 43.5286 106.644 43.5286 107.228C43.5286 107.812 43.7086 108.284 44.0686 108.644C44.4366 109.004 44.9166 109.184 45.5086 109.184C46.1006 109.184 46.5766 109.004 46.9366 108.644C47.3046 108.284 47.4886 107.812 47.4886 107.228C47.4886 106.644 47.3046 106.172 46.9366 105.812C46.5766 105.452 46.1006 105.272 45.5086 105.272C44.9166 105.272 44.4366 105.452 44.0686 105.812ZM54.6919 107.228C54.6919 107.86 54.5199 108.42 54.1759 108.908L51.4279 113H50.4799L52.5439 109.928C52.3279 109.976 52.1039 110 51.8719 110C51.0479 110 50.3719 109.744 49.8439 109.232C49.3159 108.712 49.0519 108.044 49.0519 107.228C49.0519 106.412 49.3159 105.748 49.8439 105.236C50.3719 104.716 51.0479 104.456 51.8719 104.456C52.6959 104.456 53.3719 104.716 53.8999 105.236C54.4279 105.748 54.6919 106.412 54.6919 107.228ZM50.4319 105.812C50.0719 106.172 49.8919 106.644 49.8919 107.228C49.8919 107.812 50.0719 108.284 50.4319 108.644C50.7999 109.004 51.2799 109.184 51.8719 109.184C52.4639 109.184 52.9399 109.004 53.2999 108.644C53.6679 108.284 53.8519 107.812 53.8519 107.228C53.8519 106.644 53.6679 106.172 53.2999 105.812C52.9399 105.452 52.4639 105.272 51.8719 105.272C51.2799 105.272 50.7999 105.452 50.4319 105.812ZM61.0552 107.228C61.0552 107.86 60.8832 108.42 60.5392 108.908L57.7912 113H56.8432L58.9072 109.928C58.6912 109.976 58.4672 110 58.2352 110C57.4112 110 56.7352 109.744 56.2072 109.232C55.6792 108.712 55.4152 108.044 55.4152 107.228C55.4152 106.412 55.6792 105.748 56.2072 105.236C56.7352 104.716 57.4112 104.456 58.2352 104.456C59.0592 104.456 59.7352 104.716 60.2632 105.236C60.7912 105.748 61.0552 106.412 61.0552 107.228ZM56.7952 105.812C56.4352 106.172 56.2552 106.644 56.2552 107.228C56.2552 107.812 56.4352 108.284 56.7952 108.644C57.1632 109.004 57.6432 109.184 58.2352 109.184C58.8272 109.184 59.3032 109.004 59.6632 108.644C60.0312 108.284 60.2152 107.812 60.2152 107.228C60.2152 106.644 60.0312 106.172 59.6632 105.812C59.3032 105.452 58.8272 105.272 58.2352 105.272C57.6432 105.272 57.1632 105.452 56.7952 105.812ZM68.4745 106.856C69.3305 106.856 70.0585 107.16 70.6585 107.768C71.2665 108.376 71.5705 109.12 71.5705 110C71.5705 110.88 71.2665 111.624 70.6585 112.232C70.0585 112.84 69.3305 113.144 68.4745 113.144C67.4105 113.144 66.6025 112.704 66.0505 111.824V115.4H65.2585V107H66.0505V108.176C66.6025 107.296 67.4105 106.856 68.4745 106.856ZM66.7345 111.692C67.1905 112.148 67.7505 112.376 68.4145 112.376C69.0785 112.376 69.6385 112.148 70.0945 111.692C70.5505 111.228 70.7785 110.664 70.7785 110C70.7785 109.336 70.5505 108.776 70.0945 108.32C69.6385 107.856 69.0785 107.624 68.4145 107.624C67.7505 107.624 67.1905 107.856 66.7345 108.32C66.2785 108.776 66.0505 109.336 66.0505 110C66.0505 110.664 66.2785 111.228 66.7345 111.692ZM76.973 107H77.813L75.245 113.552C75.013 114.144 74.681 114.608 74.249 114.944C73.825 115.288 73.349 115.44 72.821 115.4V114.656C73.541 114.736 74.089 114.32 74.465 113.408L74.621 113.036L71.933 107H72.773L75.029 112.028L76.973 107ZM81.1998 113.144C80.3358 113.144 79.6158 112.86 79.0398 112.292C78.4638 111.716 78.1758 110.972 78.1758 110.06C78.1758 109.036 78.3278 108.252 78.6318 107.708C78.9358 107.156 79.5518 106.656 80.4798 106.208C80.6558 106.12 80.8878 106.016 81.1758 105.896C81.4718 105.776 81.6918 105.68 81.8358 105.608C81.9878 105.536 82.1518 105.444 82.3278 105.332C82.5038 105.212 82.6358 105.08 82.7238 104.936C82.8118 104.792 82.8678 104.62 82.8918 104.42L83.5158 104.78C83.4838 104.972 83.4198 105.152 83.3238 105.32C83.2278 105.488 83.1278 105.624 83.0238 105.728C82.9278 105.832 82.7718 105.948 82.5558 106.076C82.3478 106.196 82.1838 106.284 82.0638 106.34C81.9518 106.388 81.7518 106.472 81.4638 106.592C81.1838 106.712 80.9958 106.792 80.8998 106.832C80.3398 107.072 79.9278 107.324 79.6638 107.588C79.3998 107.844 79.2118 108.18 79.0998 108.596C79.3718 108.236 79.7158 107.972 80.1318 107.804C80.5558 107.628 80.9678 107.54 81.3678 107.54C82.1678 107.54 82.8278 107.804 83.3478 108.332C83.8758 108.852 84.1398 109.52 84.1398 110.336C84.1398 111.144 83.8598 111.816 83.2998 112.352C82.7478 112.88 82.0478 113.144 81.1998 113.144ZM81.1998 112.352C81.8238 112.352 82.3358 112.164 82.7358 111.788C83.1438 111.404 83.3478 110.92 83.3478 110.336C83.3478 109.744 83.1558 109.26 82.7718 108.884C82.3958 108.5 81.8918 108.308 81.2598 108.308C80.6918 108.308 80.1758 108.488 79.7118 108.848C79.2478 109.2 79.0158 109.672 79.0158 110.264C79.0158 110.872 79.2238 111.372 79.6398 111.764C80.0638 112.156 80.5838 112.352 81.1998 112.352ZM85.8719 112.928C85.7439 113.056 85.5879 113.12 85.4039 113.12C85.2199 113.12 85.0639 113.056 84.9359 112.928C84.8079 112.8 84.7439 112.644 84.7439 112.46C84.7439 112.276 84.8079 112.12 84.9359 111.992C85.0639 111.864 85.2199 111.8 85.4039 111.8C85.5879 111.8 85.7439 111.864 85.8719 111.992C85.9999 112.12 86.0639 112.276 86.0639 112.46C86.0639 112.644 85.9999 112.8 85.8719 112.928ZM87.8696 114.2H87.2696L92.0696 103.4H92.6696L87.8696 114.2ZM99.8728 107V113H99.0808V108.212L96.9808 111.62H96.8848L94.7848 108.212V113H93.9928V107H94.9048L96.9328 110.288L98.9608 107H99.8728ZM104.323 106.856C105.211 106.856 105.927 107.172 106.471 107.804C107.023 108.428 107.299 109.168 107.299 110.024C107.299 110.112 107.291 110.236 107.275 110.396H102.007C102.087 111.004 102.343 111.488 102.775 111.848C103.215 112.2 103.755 112.376 104.395 112.376C104.851 112.376 105.243 112.284 105.571 112.1C105.907 111.908 106.159 111.66 106.327 111.356L107.023 111.764C106.759 112.188 106.399 112.524 105.943 112.772C105.487 113.02 104.967 113.144 104.383 113.144C103.439 113.144 102.671 112.848 102.079 112.256C101.487 111.664 101.191 110.912 101.191 110C101.191 109.104 101.483 108.356 102.067 107.756C102.651 107.156 103.403 106.856 104.323 106.856ZM104.323 107.624C103.699 107.624 103.175 107.812 102.751 108.188C102.335 108.556 102.087 109.036 102.007 109.628H106.483C106.403 108.996 106.159 108.504 105.751 108.152C105.343 107.8 104.867 107.624 104.323 107.624ZM111.355 113.144C110.451 113.144 109.699 112.844 109.099 112.244C108.499 111.636 108.199 110.888 108.199 110C108.199 109.112 108.499 108.368 109.099 107.768C109.699 107.16 110.451 106.856 111.355 106.856C111.947 106.856 112.479 107 112.951 107.288C113.423 107.568 113.767 107.948 113.983 108.428L113.335 108.8C113.175 108.44 112.915 108.156 112.555 107.948C112.203 107.732 111.803 107.624 111.355 107.624C110.691 107.624 110.131 107.856 109.675 108.32C109.219 108.776 108.991 109.336 108.991 110C108.991 110.664 109.219 111.228 109.675 111.692C110.131 112.148 110.691 112.376 111.355 112.376C111.803 112.376 112.203 112.272 112.555 112.064C112.907 111.848 113.183 111.56 113.383 111.2L114.043 111.584C113.795 112.064 113.431 112.444 112.951 112.724C112.471 113.004 111.939 113.144 111.355 113.144ZM115.825 112.928C115.697 113.056 115.541 113.12 115.357 113.12C115.173 113.12 115.017 113.056 114.889 112.928C114.761 112.8 114.697 112.644 114.697 112.46C114.697 112.276 114.761 112.12 114.889 111.992C115.017 111.864 115.173 111.8 115.357 111.8C115.541 111.8 115.697 111.864 115.825 111.992C115.953 112.12 116.017 112.276 116.017 112.46C116.017 112.644 115.953 112.8 115.825 112.928Z" fill="#333A4C"/>
<path d="M31.3295 45.345C32.2135 45.345 32.9372 45.6093 33.5005 46.138C34.0638 46.658 34.3455 47.334 34.3455 48.166C34.3455 49.0067 34.0638 49.6913 33.5005 50.22C32.9372 50.74 32.2135 51 31.3295 51H27.8455V41.9H33.5655V43.616H29.6395V45.345H31.3295ZM31.3295 49.323C31.6848 49.323 31.9795 49.2233 32.2135 49.024C32.4475 48.816 32.5645 48.53 32.5645 48.166C32.5645 47.802 32.4475 47.5203 32.2135 47.321C31.9795 47.1217 31.6848 47.022 31.3295 47.022H29.6395V49.323H31.3295ZM36.789 48.439C37.0143 49.2537 37.6253 49.661 38.622 49.661C39.2633 49.661 39.7486 49.4443 40.078 49.011L41.43 49.791C40.7886 50.7183 39.844 51.182 38.596 51.182C37.5213 51.182 36.659 50.857 36.009 50.207C35.359 49.557 35.034 48.738 35.034 47.75C35.034 46.7707 35.3546 45.956 35.996 45.306C36.6373 44.6473 37.4606 44.318 38.466 44.318C39.4193 44.318 40.2036 44.6473 40.819 45.306C41.443 45.9647 41.755 46.7793 41.755 47.75C41.755 47.9667 41.7333 48.1963 41.69 48.439H36.789ZM36.763 47.139H40.078C39.9826 46.697 39.7833 46.3677 39.48 46.151C39.1853 45.9343 38.8473 45.826 38.466 45.826C38.0153 45.826 37.6426 45.943 37.348 46.177C37.0533 46.4023 36.8583 46.723 36.763 47.139ZM45.9689 51.182C44.9896 51.182 44.1706 50.8527 43.5119 50.194C42.8619 49.5353 42.5369 48.7207 42.5369 47.75C42.5369 46.7793 42.8619 45.9647 43.5119 45.306C44.1706 44.6473 44.9896 44.318 45.9689 44.318C46.6016 44.318 47.1779 44.4697 47.6979 44.773C48.2179 45.0763 48.6122 45.4837 48.8809 45.995L47.4379 46.84C47.3079 46.5713 47.1086 46.359 46.8399 46.203C46.5799 46.047 46.2852 45.969 45.9559 45.969C45.4532 45.969 45.0372 46.138 44.7079 46.476C44.3786 46.8053 44.2139 47.23 44.2139 47.75C44.2139 48.2613 44.3786 48.686 44.7079 49.024C45.0372 49.3533 45.4532 49.518 45.9559 49.518C46.2939 49.518 46.5929 49.4443 46.8529 49.297C47.1216 49.141 47.3209 48.9287 47.4509 48.66L48.9069 49.492C48.6209 50.0033 48.2179 50.415 47.6979 50.727C47.1779 51.0303 46.6016 51.182 45.9689 51.182ZM55.7856 44.5V51H54.1086V46.073H51.5216V51H49.8446V44.5H55.7856ZM61.1052 44.318C61.9805 44.318 62.7258 44.6517 63.3412 45.319C63.9652 45.9777 64.2772 46.788 64.2772 47.75C64.2772 48.712 63.9652 49.5267 63.3412 50.194C62.7258 50.8527 61.9805 51.182 61.1052 51.182C60.1952 51.182 59.4932 50.8657 58.9992 50.233V53.6H57.3222V44.5H58.9992V45.267C59.4932 44.6343 60.1952 44.318 61.1052 44.318ZM59.5062 49.076C59.8442 49.414 60.2732 49.583 60.7932 49.583C61.3132 49.583 61.7422 49.414 62.0802 49.076C62.4268 48.7293 62.6002 48.2873 62.6002 47.75C62.6002 47.2127 62.4268 46.775 62.0802 46.437C61.7422 46.0903 61.3132 45.917 60.7932 45.917C60.2732 45.917 59.8442 46.0903 59.5062 46.437C59.1682 46.775 58.9992 47.2127 58.9992 47.75C58.9992 48.2873 59.1682 48.7293 59.5062 49.076ZM70.9979 50.194C70.3305 50.8527 69.5159 51.182 68.5539 51.182C67.5919 51.182 66.7772 50.8527 66.1099 50.194C65.4512 49.5267 65.1219 48.712 65.1219 47.75C65.1219 46.788 65.4512 45.9777 66.1099 45.319C66.7772 44.6517 67.5919 44.318 68.5539 44.318C69.5159 44.318 70.3305 44.6517 70.9979 45.319C71.6652 45.9777 71.9989 46.788 71.9989 47.75C71.9989 48.712 71.6652 49.5267 70.9979 50.194ZM67.2929 49.037C67.6309 49.375 68.0512 49.544 68.5539 49.544C69.0565 49.544 69.4769 49.375 69.8149 49.037C70.1529 48.699 70.3219 48.27 70.3219 47.75C70.3219 47.23 70.1529 46.801 69.8149 46.463C69.4769 46.125 69.0565 45.956 68.5539 45.956C68.0512 45.956 67.6309 46.125 67.2929 46.463C66.9635 46.801 66.7989 47.23 66.7989 47.75C66.7989 48.27 66.9635 48.699 67.2929 49.037ZM77.8586 47.672C78.4653 47.9667 78.7686 48.4607 78.7686 49.154C78.7686 49.7 78.578 50.1463 78.1966 50.493C77.824 50.831 77.291 51 76.5976 51H73.1786V44.5H76.3376C77.0223 44.5 77.551 44.669 77.9236 45.007C78.305 45.345 78.4956 45.787 78.4956 46.333C78.4956 46.905 78.2833 47.3513 77.8586 47.672ZM76.1816 45.878H74.7516V47.048H76.1816C76.6583 47.048 76.8966 46.853 76.8966 46.463C76.8966 46.073 76.6583 45.878 76.1816 45.878ZM76.4026 49.583C76.888 49.583 77.1306 49.375 77.1306 48.959C77.1306 48.777 77.0656 48.634 76.9356 48.53C76.8056 48.426 76.628 48.374 76.4026 48.374H74.7516V49.583H76.4026ZM85.3563 50.194C84.6889 50.8527 83.8743 51.182 82.9123 51.182C81.9503 51.182 81.1356 50.8527 80.4683 50.194C79.8096 49.5267 79.4803 48.712 79.4803 47.75C79.4803 46.788 79.8096 45.9777 80.4683 45.319C81.1356 44.6517 81.9503 44.318 82.9123 44.318C83.8743 44.318 84.6889 44.6517 85.3563 45.319C86.0236 45.9777 86.3573 46.788 86.3573 47.75C86.3573 48.712 86.0236 49.5267 85.3563 50.194ZM81.6513 49.037C81.9893 49.375 82.4096 49.544 82.9123 49.544C83.4149 49.544 83.8353 49.375 84.1733 49.037C84.5113 48.699 84.6803 48.27 84.6803 47.75C84.6803 47.23 84.5113 46.801 84.1733 46.463C83.8353 46.125 83.4149 45.956 82.9123 45.956C82.4096 45.956 81.9893 46.125 81.6513 46.463C81.3219 46.801 81.1573 47.23 81.1573 47.75C81.1573 48.27 81.3219 48.699 81.6513 49.037ZM93.1331 49.427H93.9911V52.742H92.3531V51H88.3231V52.742H86.6851V49.427H87.4781C87.8508 48.8723 88.0371 48.1053 88.0371 47.126V44.5H93.1331V49.427ZM89.2721 49.427H91.4951V46.008H89.6751V47.126C89.6751 48.0447 89.5408 48.8117 89.2721 49.427ZM99.3166 44.5H100.994V51H99.3166V48.53H96.7296V51H95.0526V44.5H96.7296V46.957H99.3166V44.5ZM105.468 46.58C106.205 46.58 106.799 46.7837 107.249 47.191C107.7 47.5897 107.925 48.1227 107.925 48.79C107.925 49.4573 107.7 49.9947 107.249 50.402C106.799 50.8007 106.205 51 105.468 51H102.53V44.5H104.207V46.58H105.468ZM108.64 44.5H110.317V51H108.64V44.5ZM105.481 49.518C105.715 49.518 105.906 49.453 106.053 49.323C106.209 49.1843 106.287 49.0067 106.287 48.79C106.287 48.5733 106.209 48.3957 106.053 48.257C105.906 48.1183 105.715 48.049 105.481 48.049H104.207V49.518H105.481ZM113.266 48.439C113.491 49.2537 114.102 49.661 115.099 49.661C115.74 49.661 116.225 49.4443 116.555 49.011L117.907 49.791C117.265 50.7183 116.321 51.182 115.073 51.182C113.998 51.182 113.136 50.857 112.486 50.207C111.836 49.557 111.511 48.738 111.511 47.75C111.511 46.7707 111.831 45.956 112.473 45.306C113.114 44.6473 113.937 44.318 114.943 44.318C115.896 44.318 116.68 44.6473 117.296 45.306C117.92 45.9647 118.232 46.7793 118.232 47.75C118.232 47.9667 118.21 48.1963 118.167 48.439H113.266ZM113.24 47.139H116.555C116.459 46.697 116.26 46.3677 115.957 46.151C115.662 45.9343 115.324 45.826 114.943 45.826C114.492 45.826 114.119 45.943 113.825 46.177C113.53 46.4023 113.335 46.723 113.24 47.139ZM126.916 44.5H128.593V51H126.916V48.53H124.329V51H122.652V44.5H124.329V46.957H126.916V44.5ZM135.07 44.5H136.747V51H135.07V50.233C134.567 50.8657 133.861 51.182 132.951 51.182C132.084 51.182 131.339 50.8527 130.715 50.194C130.099 49.5267 129.792 48.712 129.792 47.75C129.792 46.788 130.099 45.9777 130.715 45.319C131.339 44.6517 132.084 44.318 132.951 44.318C133.861 44.318 134.567 44.6343 135.07 45.267V44.5ZM131.976 49.076C132.314 49.414 132.743 49.583 133.263 49.583C133.783 49.583 134.212 49.414 134.55 49.076C134.896 48.7293 135.07 48.2873 135.07 47.75C135.07 47.2127 134.896 46.775 134.55 46.437C134.212 46.0903 133.783 45.917 133.263 45.917C132.743 45.917 132.314 46.0903 131.976 46.437C131.638 46.775 131.469 47.2127 131.469 47.75C131.469 48.2873 131.638 48.7293 131.976 49.076ZM142.505 44.5H144.299L141.933 51C141.275 52.8287 140.131 53.6953 138.501 53.6V52.04C138.943 52.0487 139.29 51.9663 139.541 51.793C139.801 51.6197 140.009 51.3293 140.165 50.922L137.539 44.5H139.32L141.062 48.868L142.505 44.5ZM152.716 44.5H154.393V51H145.098V44.5H146.775V49.427H148.907V44.5H150.584V49.427H152.716V44.5ZM160.191 44.5H161.868V51H160.191V48.53H157.604V51H155.927V44.5H157.604V46.957H160.191V44.5ZM168.097 44.5H169.345V51H167.707V47.308L164.652 51H163.404V44.5H165.042V48.192L168.097 44.5ZM176.875 51H174.925L172.559 48.049V51H170.882V44.5H172.559V47.36L174.795 44.5H176.797L174.184 47.711L176.875 51ZM182.405 44.5H183.653V51H182.015V47.308L178.96 51H177.712V44.5H179.35V48.192L182.405 44.5Z" fill="#333A4C"/>
<path d="M33.6955 190L33.1495 188.362H29.5225L28.9765 190H27.0395L30.2245 180.9H32.4475L35.6455 190H33.6955ZM30.0945 186.685H32.5905L31.3425 182.967L30.0945 186.685ZM40.7151 183.5H42.3921V190H40.7151V187.53H38.1281V190H36.4511V183.5H38.1281V185.957H40.7151V183.5ZM49.9216 190H47.9716L45.6056 187.049V190H43.9286V183.5H45.6056V186.36L47.8416 183.5H49.8436L47.2306 186.711L49.9216 190ZM51.706 187.439C51.9313 188.254 52.5423 188.661 53.539 188.661C54.1803 188.661 54.6656 188.444 54.995 188.011L56.347 188.791C55.7056 189.718 54.761 190.182 53.513 190.182C52.4383 190.182 51.576 189.857 50.926 189.207C50.276 188.557 49.951 187.738 49.951 186.75C49.951 185.771 50.2716 184.956 50.913 184.306C51.5543 183.647 52.3776 183.318 53.383 183.318C54.3363 183.318 55.1206 183.647 55.736 184.306C56.36 184.965 56.672 185.779 56.672 186.75C56.672 186.967 56.6503 187.196 56.607 187.439H51.706ZM51.68 186.139H54.995C54.8996 185.697 54.7003 185.368 54.397 185.151C54.1023 184.934 53.7643 184.826 53.383 184.826C52.9323 184.826 52.5596 184.943 52.265 185.177C51.9703 185.402 51.7753 185.723 51.68 186.139ZM62.7108 183.5V185.112H60.6828V190H59.0058V185.112H56.9518V183.5H62.7108ZM68.2924 183.5H69.9694V190H68.2924V189.233C67.7898 189.866 67.0834 190.182 66.1734 190.182C65.3068 190.182 64.5614 189.853 63.9374 189.194C63.3221 188.527 63.0144 187.712 63.0144 186.75C63.0144 185.788 63.3221 184.978 63.9374 184.319C64.5614 183.652 65.3068 183.318 66.1734 183.318C67.0834 183.318 67.7898 183.634 68.2924 184.267V183.5ZM65.1984 188.076C65.5364 188.414 65.9654 188.583 66.4854 188.583C67.0054 188.583 67.4344 188.414 67.7724 188.076C68.1191 187.729 68.2924 187.287 68.2924 186.75C68.2924 186.213 68.1191 185.775 67.7724 185.437C67.4344 185.09 67.0054 184.917 66.4854 184.917C65.9654 184.917 65.5364 185.09 65.1984 185.437C64.8604 185.775 64.6914 186.213 64.6914 186.75C64.6914 187.287 64.8604 187.729 65.1984 188.076Z" fill="#333A4C"/>
<path opacity="0.8" d="M31.03 207.38C31.4167 207.527 31.7167 207.75 31.93 208.05C32.1433 208.35 32.25 208.703 32.25 209.11C32.25 209.697 32.03 210.18 31.59 210.56C31.1567 210.933 30.57 211.12 29.83 211.12C29.1633 211.12 28.63 210.97 28.23 210.67C27.83 210.37 27.5533 209.993 27.4 209.54L28 209.2C28.0867 209.553 28.2733 209.853 28.56 210.1C28.8533 210.34 29.2767 210.46 29.83 210.46C30.3767 210.46 30.8 210.337 31.1 210.09C31.4 209.837 31.55 209.51 31.55 209.11C31.55 208.71 31.41 208.387 31.13 208.14C30.8567 207.887 30.4767 207.76 29.99 207.76H29.19V207.1H29.74C30.2133 207.1 30.59 206.98 30.87 206.74C31.15 206.5 31.29 206.19 31.29 205.81C31.29 205.437 31.1533 205.133 30.88 204.9C30.6133 204.66 30.2467 204.54 29.78 204.54C28.92 204.54 28.3533 204.907 28.08 205.64L27.5 205.3C27.6733 204.873 27.9467 204.53 28.32 204.27C28.7 204.01 29.1867 203.88 29.78 203.88C30.44 203.88 30.9733 204.067 31.38 204.44C31.7867 204.807 31.99 205.267 31.99 205.82C31.99 206.52 31.67 207.04 31.03 207.38ZM37.6543 206H38.3143V211H37.6543V210.02C37.1943 210.753 36.521 211.12 35.6343 211.12C34.921 211.12 34.311 210.867 33.8043 210.36C33.3043 209.853 33.0543 209.233 33.0543 208.5C33.0543 207.767 33.3043 207.147 33.8043 206.64C34.311 206.133 34.921 205.88 35.6343 205.88C36.521 205.88 37.1943 206.247 37.6543 206.98V206ZM34.2843 209.91C34.6643 210.29 35.131 210.48 35.6843 210.48C36.2376 210.48 36.7043 210.29 37.0843 209.91C37.4643 209.523 37.6543 209.053 37.6543 208.5C37.6543 207.947 37.4643 207.48 37.0843 207.1C36.7043 206.713 36.2376 206.52 35.6843 206.52C35.131 206.52 34.6643 206.713 34.2843 207.1C33.9043 207.48 33.7143 207.947 33.7143 208.5C33.7143 209.053 33.9043 209.523 34.2843 209.91ZM43.9117 206V211H43.2517V206.64H40.3717V211H39.7117V206H43.9117ZM49.4974 210.37C48.9908 210.87 48.3708 211.12 47.6374 211.12C46.9041 211.12 46.2808 210.87 45.7674 210.37C45.2608 209.863 45.0074 209.24 45.0074 208.5C45.0074 207.76 45.2608 207.14 45.7674 206.64C46.2808 206.133 46.9041 205.88 47.6374 205.88C48.3708 205.88 48.9908 206.133 49.4974 206.64C50.0108 207.14 50.2674 207.76 50.2674 208.5C50.2674 209.24 50.0108 209.863 49.4974 210.37ZM46.2374 209.91C46.6174 210.29 47.0841 210.48 47.6374 210.48C48.1908 210.48 48.6574 210.29 49.0374 209.91C49.4174 209.523 49.6074 209.053 49.6074 208.5C49.6074 207.947 49.4174 207.48 49.0374 207.1C48.6574 206.713 48.1908 206.52 47.6374 206.52C47.0841 206.52 46.6174 206.713 46.2374 207.1C45.8574 207.48 45.6674 207.947 45.6674 208.5C45.6674 209.053 45.8574 209.523 46.2374 209.91ZM55.2766 206V211H54.6166V206.64H52.3566V208.87C52.3566 209.703 52.1966 210.277 51.8766 210.59C51.5632 210.903 51.1299 211.04 50.5766 211V210.38C50.9566 210.42 51.2366 210.33 51.4166 210.11C51.6032 209.89 51.6966 209.477 51.6966 208.87V206H55.2766ZM60.2146 206H60.8746V211H60.2146V208.82H57.3346V211H56.6746V206H57.3346V208.18H60.2146V206ZM65.9103 206H66.4703V211H65.8103V207.15L62.8303 211H62.2703V206H62.9303V209.85L65.9103 206ZM71.466 206V206.64H69.696V211H69.036V206.64H67.266V206H71.466ZM74.385 205.88C75.125 205.88 75.7217 206.143 76.175 206.67C76.635 207.19 76.865 207.807 76.865 208.52C76.865 208.593 76.8583 208.697 76.845 208.83H72.455C72.5217 209.337 72.735 209.74 73.095 210.04C73.4617 210.333 73.9117 210.48 74.445 210.48C74.825 210.48 75.1517 210.403 75.425 210.25C75.705 210.09 75.915 209.883 76.055 209.63L76.635 209.97C76.415 210.323 76.115 210.603 75.735 210.81C75.355 211.017 74.9217 211.12 74.435 211.12C73.6483 211.12 73.0083 210.873 72.515 210.38C72.0217 209.887 71.775 209.26 71.775 208.5C71.775 207.753 72.0183 207.13 72.505 206.63C72.9917 206.13 73.6183 205.88 74.385 205.88ZM74.385 206.52C73.865 206.52 73.4283 206.677 73.075 206.99C72.7283 207.297 72.5217 207.697 72.455 208.19H76.185C76.1183 207.663 75.915 207.253 75.575 206.96C75.235 206.667 74.8383 206.52 74.385 206.52ZM84.4548 211H83.5748L81.0748 208.59V211H80.4148V206H81.0748V208.21L83.4548 206H84.3548L81.7748 208.4L84.4548 211ZM89.0482 210.37C88.5415 210.87 87.9215 211.12 87.1882 211.12C86.4549 211.12 85.8315 210.87 85.3182 210.37C84.8115 209.863 84.5582 209.24 84.5582 208.5C84.5582 207.76 84.8115 207.14 85.3182 206.64C85.8315 206.133 86.4549 205.88 87.1882 205.88C87.9215 205.88 88.5415 206.133 89.0482 206.64C89.5615 207.14 89.8182 207.76 89.8182 208.5C89.8182 209.24 89.5615 209.863 89.0482 210.37ZM85.7882 209.91C86.1682 210.29 86.6349 210.48 87.1882 210.48C87.7415 210.48 88.2082 210.29 88.5882 209.91C88.9682 209.523 89.1582 209.053 89.1582 208.5C89.1582 207.947 88.9682 207.48 88.5882 207.1C88.2082 206.713 87.7415 206.52 87.1882 206.52C86.6349 206.52 86.1682 206.713 85.7882 207.1C85.4082 207.48 85.2182 207.947 85.2182 208.5C85.2182 209.053 85.4082 209.523 85.7882 209.91ZM93.6027 205.88C94.316 205.88 94.9227 206.133 95.4227 206.64C95.9293 207.147 96.1827 207.767 96.1827 208.5C96.1827 209.233 95.9293 209.853 95.4227 210.36C94.9227 210.867 94.316 211.12 93.6027 211.12C92.716 211.12 92.0427 210.753 91.5827 210.02V213H90.9227V206H91.5827V206.98C92.0427 206.247 92.716 205.88 93.6027 205.88ZM92.1527 209.91C92.5327 210.29 92.9993 210.48 93.5527 210.48C94.106 210.48 94.5727 210.29 94.9527 209.91C95.3327 209.523 95.5227 209.053 95.5227 208.5C95.5227 207.947 95.3327 207.48 94.9527 207.1C94.5727 206.713 94.106 206.52 93.5527 206.52C92.9993 206.52 92.5327 206.713 92.1527 207.1C91.7727 207.48 91.5827 207.947 91.5827 208.5C91.5827 209.053 91.7727 209.523 92.1527 209.91ZM101.47 210.37C100.963 210.87 100.343 211.12 99.6101 211.12C98.8767 211.12 98.2534 210.87 97.7401 210.37C97.2334 209.863 96.9801 209.24 96.9801 208.5C96.9801 207.76 97.2334 207.14 97.7401 206.64C98.2534 206.133 98.8767 205.88 99.6101 205.88C100.343 205.88 100.963 206.133 101.47 206.64C101.983 207.14 102.24 207.76 102.24 208.5C102.24 209.24 101.983 209.863 101.47 210.37ZM98.2101 209.91C98.5901 210.29 99.0567 210.48 99.6101 210.48C100.163 210.48 100.63 210.29 101.01 209.91C101.39 209.523 101.58 209.053 101.58 208.5C101.58 207.947 101.39 207.48 101.01 207.1C100.63 206.713 100.163 206.52 99.6101 206.52C99.0567 206.52 98.5901 206.713 98.2101 207.1C97.8301 207.48 97.6401 207.947 97.6401 208.5C97.6401 209.053 97.8301 209.523 98.2101 209.91ZM106.749 206V206.64H104.979V211H104.319V206.64H102.549V206H106.749ZM111.594 211H110.714L108.214 208.59V211H107.554V206H108.214V208.21L110.594 206H111.494L108.914 208.4L111.594 211ZM115.9 206H116.6L114.46 211.46C114.266 211.953 113.99 212.34 113.63 212.62C113.276 212.907 112.88 213.033 112.44 213V212.38C113.04 212.447 113.496 212.1 113.81 211.34L113.94 211.03L111.7 206H112.4L114.28 210.19L115.9 206ZM121.667 205.88C122.401 205.88 123.021 206.133 123.527 206.64C124.041 207.14 124.297 207.76 124.297 208.5C124.297 209.24 124.041 209.863 123.527 210.37C123.021 210.87 122.401 211.12 121.667 211.12C120.994 211.12 120.414 210.903 119.927 210.47C119.447 210.03 119.171 209.48 119.097 208.82H118.057V211H117.397V206H118.057V208.18H119.097C119.171 207.52 119.447 206.973 119.927 206.54C120.414 206.1 120.994 205.88 121.667 205.88ZM120.267 209.91C120.647 210.29 121.114 210.48 121.667 210.48C122.221 210.48 122.687 210.29 123.067 209.91C123.447 209.523 123.637 209.053 123.637 208.5C123.637 207.947 123.447 207.48 123.067 207.1C122.687 206.713 122.221 206.52 121.667 206.52C121.114 206.52 120.647 206.713 120.267 207.1C119.887 207.48 119.697 207.947 119.697 208.5C119.697 209.053 119.887 209.523 120.267 209.91ZM132.195 206H132.855V211H132.195V210.02C131.735 210.753 131.062 211.12 130.175 211.12C129.462 211.12 128.852 210.867 128.345 210.36C127.845 209.853 127.595 209.233 127.595 208.5C127.595 207.767 127.845 207.147 128.345 206.64C128.852 206.133 129.462 205.88 130.175 205.88C131.062 205.88 131.735 206.247 132.195 206.98V206ZM128.825 209.91C129.205 210.29 129.672 210.48 130.225 210.48C130.779 210.48 131.245 210.29 131.625 209.91C132.005 209.523 132.195 209.053 132.195 208.5C132.195 207.947 132.005 207.48 131.625 207.1C131.245 206.713 130.779 206.52 130.225 206.52C129.672 206.52 129.205 206.713 128.825 207.1C128.445 207.48 128.255 207.947 128.255 208.5C128.255 209.053 128.445 209.523 128.825 209.91ZM137.793 206H138.453V211H137.793V208.82H134.913V211H134.253V206H134.913V208.18H137.793V206ZM143.888 211H143.008L140.508 208.59V211H139.848V206H140.508V208.21L142.888 206H143.788L141.208 208.4L143.888 211ZM146.602 205.88C147.342 205.88 147.938 206.143 148.392 206.67C148.852 207.19 149.082 207.807 149.082 208.52C149.082 208.593 149.075 208.697 149.062 208.83H144.672C144.738 209.337 144.952 209.74 145.312 210.04C145.678 210.333 146.128 210.48 146.662 210.48C147.042 210.48 147.368 210.403 147.642 210.25C147.922 210.09 148.132 209.883 148.272 209.63L148.852 209.97C148.632 210.323 148.332 210.603 147.952 210.81C147.572 211.017 147.138 211.12 146.652 211.12C145.865 211.12 145.225 210.873 144.732 210.38C144.238 209.887 143.992 209.26 143.992 208.5C143.992 207.753 144.235 207.13 144.722 206.63C145.208 206.13 145.835 205.88 146.602 205.88ZM146.602 206.52C146.082 206.52 145.645 206.677 145.292 206.99C144.945 207.297 144.738 207.697 144.672 208.19H148.402C148.335 207.663 148.132 207.253 147.792 206.96C147.452 206.667 147.055 206.52 146.602 206.52ZM153.536 206V206.64H151.766V211H151.106V206.64H149.336V206H153.536ZM157.941 206H158.641L156.501 211.46C156.307 211.953 156.031 212.34 155.671 212.62C155.317 212.907 154.921 213.033 154.481 213V212.38C155.081 212.447 155.537 212.1 155.851 211.34L155.981 211.03L153.741 206H154.441L156.321 210.19L157.941 206ZM165.578 206H166.138V211H165.478V207.15L162.498 211H161.938V206H162.598V209.85L165.578 206ZM31.9 225.36H32.6V227.34H31.94V226H27.86V227.34H27.2V225.36H27.81C28.15 224.913 28.32 224.283 28.32 223.47V221H31.9V225.36ZM28.61 225.36H31.24V221.64H28.98V223.47C28.98 224.237 28.8567 224.867 28.61 225.36ZM37.7031 221H38.3631V226H37.7031V225.02C37.2431 225.753 36.5698 226.12 35.6831 226.12C34.9698 226.12 34.3598 225.867 33.8531 225.36C33.3531 224.853 33.1031 224.233 33.1031 223.5C33.1031 222.767 33.3531 222.147 33.8531 221.64C34.3598 221.133 34.9698 220.88 35.6831 220.88C36.5698 220.88 37.2431 221.247 37.7031 221.98V221ZM34.3331 224.91C34.7131 225.29 35.1798 225.48 35.7331 225.48C36.2865 225.48 36.7531 225.29 37.1331 224.91C37.5131 224.523 37.7031 224.053 37.7031 223.5C37.7031 222.947 37.5131 222.48 37.1331 222.1C36.7531 221.713 36.2865 221.52 35.7331 221.52C35.1798 221.52 34.7131 221.713 34.3331 222.1C33.9531 222.48 33.7631 222.947 33.7631 223.5C33.7631 224.053 33.9531 224.523 34.3331 224.91ZM43.3005 221H43.9605V226H43.3005V223.82H40.4205V226H39.7605V221H40.4205V223.18H43.3005V221ZM48.8963 221H49.5563V226H48.8963V223.82H46.0163V226H45.3563V221H46.0163V223.18H48.8963V221ZM52.982 222.9C53.4486 222.9 53.842 223.047 54.162 223.34C54.4886 223.627 54.652 223.997 54.652 224.45C54.652 224.903 54.4886 225.277 54.162 225.57C53.842 225.857 53.4486 226 52.982 226H50.952V221H51.612V222.9H52.982ZM55.352 221H56.012V226H55.352V221ZM52.982 225.36C53.262 225.36 53.4986 225.277 53.692 225.11C53.892 224.943 53.992 224.723 53.992 224.45C53.992 224.177 53.892 223.957 53.692 223.79C53.4986 223.623 53.262 223.54 52.982 223.54H51.612V225.36H52.982ZM59.7268 220.88C60.4668 220.88 61.0635 221.143 61.5168 221.67C61.9768 222.19 62.2068 222.807 62.2068 223.52C62.2068 223.593 62.2001 223.697 62.1868 223.83H57.7968C57.8635 224.337 58.0768 224.74 58.4368 225.04C58.8035 225.333 59.2535 225.48 59.7868 225.48C60.1668 225.48 60.4935 225.403 60.7668 225.25C61.0468 225.09 61.2568 224.883 61.3968 224.63L61.9768 224.97C61.7568 225.323 61.4568 225.603 61.0768 225.81C60.6968 226.017 60.2635 226.12 59.7768 226.12C58.9901 226.12 58.3501 225.873 57.8568 225.38C57.3635 224.887 57.1168 224.26 57.1168 223.5C57.1168 222.753 57.3601 222.13 57.8468 221.63C58.3335 221.13 58.9601 220.88 59.7268 220.88ZM59.7268 221.52C59.2068 221.52 58.7701 221.677 58.4168 221.99C58.0701 222.297 57.8635 222.697 57.7968 223.19H61.5268C61.4601 222.663 61.2568 222.253 60.9168 221.96C60.5768 221.667 60.1801 221.52 59.7268 221.52ZM69.9466 225.37C69.44 225.87 68.82 226.12 68.0866 226.12C67.3533 226.12 66.73 225.87 66.2166 225.37C65.71 224.863 65.4566 224.24 65.4566 223.5C65.4566 222.76 65.71 222.14 66.2166 221.64C66.73 221.133 67.3533 220.88 68.0866 220.88C68.82 220.88 69.44 221.133 69.9466 221.64C70.46 222.14 70.7166 222.76 70.7166 223.5C70.7166 224.24 70.46 224.863 69.9466 225.37ZM66.6866 224.91C67.0666 225.29 67.5333 225.48 68.0866 225.48C68.64 225.48 69.1066 225.29 69.4866 224.91C69.8666 224.523 70.0566 224.053 70.0566 223.5C70.0566 222.947 69.8666 222.48 69.4866 222.1C69.1066 221.713 68.64 221.52 68.0866 221.52C67.5333 221.52 67.0666 221.713 66.6866 222.1C66.3066 222.48 66.1166 222.947 66.1166 223.5C66.1166 224.053 66.3066 224.523 66.6866 224.91ZM75.2258 221V221.64H73.4558V226H72.7958V221.64H71.0258V221H75.2258ZM80.2301 221V226H79.5701V221.64H76.6901V226H76.0301V221H80.2301ZM84.3058 220.88C85.0191 220.88 85.6258 221.133 86.1258 221.64C86.6324 222.147 86.8858 222.767 86.8858 223.5C86.8858 224.233 86.6324 224.853 86.1258 225.36C85.6258 225.867 85.0191 226.12 84.3058 226.12C83.4191 226.12 82.7458 225.753 82.2858 225.02V228H81.6258V221H82.2858V221.98C82.7458 221.247 83.4191 220.88 84.3058 220.88ZM82.8558 224.91C83.2358 225.29 83.7024 225.48 84.2558 225.48C84.8091 225.48 85.2758 225.29 85.6558 224.91C86.0358 224.523 86.2258 224.053 86.2258 223.5C86.2258 222.947 86.0358 222.48 85.6558 222.1C85.2758 221.713 84.8091 221.52 84.2558 221.52C83.7024 221.52 83.2358 221.713 82.8558 222.1C82.4758 222.48 82.2858 222.947 82.2858 223.5C82.2858 224.053 82.4758 224.523 82.8558 224.91ZM92.2832 221H92.9432V226H92.2832V225.02C91.8232 225.753 91.1499 226.12 90.2632 226.12C89.5499 226.12 88.9399 225.867 88.4332 225.36C87.9332 224.853 87.6832 224.233 87.6832 223.5C87.6832 222.767 87.9332 222.147 88.4332 221.64C88.9399 221.133 89.5499 220.88 90.2632 220.88C91.1499 220.88 91.8232 221.247 92.2832 221.98V221ZM88.9132 224.91C89.2932 225.29 89.7599 225.48 90.3132 225.48C90.8665 225.48 91.3332 225.29 91.7132 224.91C92.0932 224.523 92.2832 224.053 92.2832 223.5C92.2832 222.947 92.0932 222.48 91.7132 222.1C91.3332 221.713 90.8665 221.52 90.3132 221.52C89.7599 221.52 89.2932 221.713 88.9132 222.1C88.5332 222.48 88.3432 222.947 88.3432 223.5C88.3432 224.053 88.5332 224.523 88.9132 224.91ZM97.5206 223.43C98.0673 223.63 98.3406 224.02 98.3406 224.6C98.3406 225.007 98.204 225.343 97.9306 225.61C97.664 225.87 97.2773 226 96.7706 226H94.3406V221H96.5706C97.0573 221 97.434 221.127 97.7006 221.38C97.9673 221.627 98.1006 221.947 98.1006 222.34C98.1006 222.84 97.9073 223.203 97.5206 223.43ZM96.5706 221.64H95.0006V223.16H96.5706C97.1506 223.16 97.4406 222.9 97.4406 222.38C97.4406 222.147 97.364 221.967 97.2106 221.84C97.064 221.707 96.8506 221.64 96.5706 221.64ZM96.7706 225.36C97.064 225.36 97.2873 225.29 97.4406 225.15C97.6006 225.01 97.6806 224.813 97.6806 224.56C97.6806 224.327 97.6006 224.143 97.4406 224.01C97.2873 223.87 97.064 223.8 96.7706 223.8H95.0006V225.36H96.7706ZM102.745 221V226H102.085V224.08H101.225L99.6853 226H98.8453L100.425 224.06C100.025 224 99.6953 223.833 99.4353 223.56C99.1753 223.287 99.0453 222.95 99.0453 222.55C99.0453 222.097 99.2053 221.727 99.5253 221.44C99.852 221.147 100.249 221 100.715 221H102.745ZM100.715 223.46H102.085V221.64H100.715C100.435 221.64 100.195 221.723 99.9953 221.89C99.802 222.057 99.7053 222.277 99.7053 222.55C99.7053 222.823 99.802 223.043 99.9953 223.21C100.195 223.377 100.435 223.46 100.715 223.46ZM107.745 221V221.64H105.975V226H105.315V221.64H103.545V221H107.745ZM110.684 226.12C109.931 226.12 109.304 225.87 108.804 225.37C108.304 224.863 108.054 224.24 108.054 223.5C108.054 222.76 108.304 222.14 108.804 221.64C109.304 221.133 109.931 220.88 110.684 220.88C111.178 220.88 111.621 221 112.014 221.24C112.408 221.473 112.694 221.79 112.874 222.19L112.334 222.5C112.201 222.2 111.984 221.963 111.684 221.79C111.391 221.61 111.058 221.52 110.684 221.52C110.131 221.52 109.664 221.713 109.284 222.1C108.904 222.48 108.714 222.947 108.714 223.5C108.714 224.053 108.904 224.523 109.284 224.91C109.664 225.29 110.131 225.48 110.684 225.48C111.058 225.48 111.391 225.393 111.684 225.22C111.978 225.04 112.208 224.8 112.374 224.5L112.924 224.82C112.718 225.22 112.414 225.537 112.014 225.77C111.614 226.003 111.171 226.12 110.684 226.12ZM117.374 221V226H116.714V224.08H115.854L114.314 226H113.474L115.054 224.06C114.654 224 114.324 223.833 114.064 223.56C113.804 223.287 113.674 222.95 113.674 222.55C113.674 222.097 113.834 221.727 114.154 221.44C114.481 221.147 114.878 221 115.344 221H117.374ZM115.344 223.46H116.714V221.64H115.344C115.064 221.64 114.824 221.723 114.624 221.89C114.431 222.057 114.334 222.277 114.334 222.55C114.334 222.823 114.431 223.043 114.624 223.21C114.824 223.377 115.064 223.46 115.344 223.46ZM124.814 221H125.474V226H124.814V223.82H121.934V226H121.274V221H121.934V223.18H124.814V221ZM131.17 221H131.83V226H131.17V225.02C130.71 225.753 130.037 226.12 129.15 226.12C128.437 226.12 127.827 225.867 127.32 225.36C126.82 224.853 126.57 224.233 126.57 223.5C126.57 222.767 126.82 222.147 127.32 221.64C127.827 221.133 128.437 220.88 129.15 220.88C130.037 220.88 130.71 221.247 131.17 221.98V221ZM127.8 224.91C128.18 225.29 128.647 225.48 129.2 225.48C129.753 225.48 130.22 225.29 130.6 224.91C130.98 224.523 131.17 224.053 131.17 223.5C131.17 222.947 130.98 222.48 130.6 222.1C130.22 221.713 129.753 221.52 129.2 221.52C128.647 221.52 128.18 221.713 127.8 222.1C127.42 222.48 127.23 222.947 127.23 223.5C127.23 224.053 127.42 224.523 127.8 224.91ZM139.927 221V226H139.267V221.64H136.387V226H135.727V221H139.927ZM144.003 220.88C144.716 220.88 145.323 221.133 145.823 221.64C146.33 222.147 146.583 222.767 146.583 223.5C146.583 224.233 146.33 224.853 145.823 225.36C145.323 225.867 144.716 226.12 144.003 226.12C143.116 226.12 142.443 225.753 141.983 225.02V228H141.323V221H141.983V221.98C142.443 221.247 143.116 220.88 144.003 220.88ZM142.553 224.91C142.933 225.29 143.4 225.48 143.953 225.48C144.506 225.48 144.973 225.29 145.353 224.91C145.733 224.523 145.923 224.053 145.923 223.5C145.923 222.947 145.733 222.48 145.353 222.1C144.973 221.713 144.506 221.52 143.953 221.52C143.4 221.52 142.933 221.713 142.553 222.1C142.173 222.48 141.983 222.947 141.983 223.5C141.983 224.053 142.173 224.523 142.553 224.91ZM151.87 225.37C151.364 225.87 150.744 226.12 150.01 226.12C149.277 226.12 148.654 225.87 148.14 225.37C147.634 224.863 147.38 224.24 147.38 223.5C147.38 222.76 147.634 222.14 148.14 221.64C148.654 221.133 149.277 220.88 150.01 220.88C150.744 220.88 151.364 221.133 151.87 221.64C152.384 222.14 152.64 222.76 152.64 223.5C152.64 224.24 152.384 224.863 151.87 225.37ZM148.61 224.91C148.99 225.29 149.457 225.48 150.01 225.48C150.564 225.48 151.03 225.29 151.41 224.91C151.79 224.523 151.98 224.053 151.98 223.5C151.98 222.947 151.79 222.48 151.41 222.1C151.03 221.713 150.564 221.52 150.01 221.52C149.457 221.52 148.99 221.713 148.61 222.1C148.23 222.48 148.04 222.947 148.04 223.5C148.04 224.053 148.23 224.523 148.61 224.91ZM156.925 223.43C157.472 223.63 157.745 224.02 157.745 224.6C157.745 225.007 157.608 225.343 157.335 225.61C157.068 225.87 156.682 226 156.175 226H153.745V221H155.975C156.462 221 156.838 221.127 157.105 221.38C157.372 221.627 157.505 221.947 157.505 222.34C157.505 222.84 157.312 223.203 156.925 223.43ZM155.975 221.64H154.405V223.16H155.975C156.555 223.16 156.845 222.9 156.845 222.38C156.845 222.147 156.768 221.967 156.615 221.84C156.468 221.707 156.255 221.64 155.975 221.64ZM156.175 225.36C156.468 225.36 156.692 225.29 156.845 225.15C157.005 225.01 157.085 224.813 157.085 224.56C157.085 224.327 157.005 224.143 156.845 224.01C156.692 223.87 156.468 223.8 156.175 223.8H154.405V225.36H156.175ZM161.055 220.88C161.795 220.88 162.392 221.143 162.845 221.67C163.305 222.19 163.535 222.807 163.535 223.52C163.535 223.593 163.528 223.697 163.515 223.83H159.125C159.192 224.337 159.405 224.74 159.765 225.04C160.132 225.333 160.582 225.48 161.115 225.48C161.495 225.48 161.822 225.403 162.095 225.25C162.375 225.09 162.585 224.883 162.725 224.63L163.305 224.97C163.085 225.323 162.785 225.603 162.405 225.81C162.025 226.017 161.592 226.12 161.105 226.12C160.318 226.12 159.678 225.873 159.185 225.38C158.692 224.887 158.445 224.26 158.445 223.5C158.445 222.753 158.688 222.13 159.175 221.63C159.662 221.13 160.288 220.88 161.055 220.88ZM161.055 221.52C160.535 221.52 160.098 221.677 159.745 221.99C159.398 222.297 159.192 222.697 159.125 223.19H162.855C162.788 222.663 162.585 222.253 162.245 221.96C161.905 221.667 161.508 221.52 161.055 221.52ZM167.265 220.88C167.978 220.88 168.585 221.133 169.085 221.64C169.591 222.147 169.845 222.767 169.845 223.5C169.845 224.233 169.591 224.853 169.085 225.36C168.585 225.867 167.978 226.12 167.265 226.12C166.378 226.12 165.705 225.753 165.245 225.02V228H164.585V221H165.245V221.98C165.705 221.247 166.378 220.88 167.265 220.88ZM165.815 224.91C166.195 225.29 166.661 225.48 167.215 225.48C167.768 225.48 168.235 225.29 168.615 224.91C168.995 224.523 169.185 224.053 169.185 223.5C169.185 222.947 168.995 222.48 168.615 222.1C168.235 221.713 167.768 221.52 167.215 221.52C166.661 221.52 166.195 221.713 165.815 222.1C165.435 222.48 165.245 222.947 165.245 223.5C165.245 224.053 165.435 224.523 165.815 224.91ZM174.982 226H174.102L171.602 223.59V226H170.942V221H171.602V223.21L173.982 221H174.882L172.302 223.4L174.982 226ZM179.288 221H179.988L177.848 226.46C177.655 226.953 177.378 227.34 177.018 227.62C176.665 227.907 176.268 228.033 175.828 228V227.38C176.428 227.447 176.885 227.1 177.198 226.34L177.328 226.03L175.088 221H175.788L177.668 225.19L179.288 221ZM180.728 225.94C180.621 226.047 180.491 226.1 180.338 226.1C180.184 226.1 180.054 226.047 179.948 225.94C179.841 225.833 179.788 225.703 179.788 225.55C179.788 225.397 179.841 225.267 179.948 225.16C180.054 225.053 180.184 225 180.338 225C180.491 225 180.621 225.053 180.728 225.16C180.834 225.267 180.888 225.397 180.888 225.55C180.888 225.703 180.834 225.833 180.728 225.94Z" fill="#333A4C"/>
<rect x="27" y="256" width="174" height="34" rx="5" fill="#E5EDFD"/>
<path opacity="0.5" d="M47.68 271.64C48.144 272.04 48.376 272.56 48.376 273.2C48.376 273.84 48.144 274.36 47.68 274.76C47.216 275.16 46.5947 275.397 45.816 275.472V276.12H44.736V275.472C43.952 275.392 43.3307 275.155 42.872 274.76C42.4133 274.36 42.184 273.84 42.184 273.2C42.184 272.56 42.4133 272.043 42.872 271.648C43.3307 271.248 43.952 271.008 44.736 270.928V270.28H45.816V270.928C46.5947 271.003 47.216 271.24 47.68 271.64ZM45.816 274.464C46.7867 274.352 47.272 273.931 47.272 273.2C47.272 272.464 46.7867 272.04 45.816 271.928V274.464ZM43.28 273.2C43.28 273.931 43.7653 274.349 44.736 274.456V271.936C43.7653 272.043 43.28 272.464 43.28 273.2ZM52.3147 276V272.584L49.9147 276H49.0747V270.4H50.1787V273.824L52.5787 270.4H53.4187V276H52.3147ZM59.1695 275.272C58.6042 275.832 57.9162 276.112 57.1055 276.112C56.2948 276.112 55.6068 275.832 55.0415 275.272C54.4815 274.707 54.2015 274.016 54.2015 273.2C54.2015 272.384 54.4815 271.696 55.0415 271.136C55.6068 270.571 56.2948 270.288 57.1055 270.288C57.9162 270.288 58.6042 270.571 59.1695 271.136C59.7348 271.696 60.0175 272.384 60.0175 273.2C60.0175 274.016 59.7348 274.707 59.1695 275.272ZM55.8175 274.52C56.1642 274.861 56.5935 275.032 57.1055 275.032C57.6175 275.032 58.0468 274.861 58.3935 274.52C58.7402 274.173 58.9135 273.733 58.9135 273.2C58.9135 272.667 58.7402 272.227 58.3935 271.88C58.0468 271.533 57.6175 271.36 57.1055 271.36C56.5935 271.36 56.1642 271.533 55.8175 271.88C55.4708 272.227 55.2975 272.667 55.2975 273.2C55.2975 273.733 55.4708 274.173 55.8175 274.52Z" fill="#333A4C"/>
<rect x="27" y="305" width="174" height="34" rx="5" fill="#E5EDFD"/>
<path opacity="0.5" d="M46.824 323.944H47.424V326.072H46.32V325H43.224V326.072H42.12V323.944H42.664C42.9733 323.512 43.128 322.88 43.128 322.048V319.4H46.824V323.944ZM43.848 323.944H45.72V320.432H44.232V322.064C44.232 322.875 44.104 323.501 43.848 323.944ZM50.9964 321H52.0284V325H50.9964V324.528C50.687 324.917 50.2524 325.112 49.6924 325.112C49.159 325.112 48.7004 324.909 48.3164 324.504C47.9377 324.093 47.7484 323.592 47.7484 323C47.7484 322.408 47.9377 321.909 48.3164 321.504C48.7004 321.093 49.159 320.888 49.6924 320.888C50.2524 320.888 50.687 321.083 50.9964 321.472V321ZM49.0924 323.816C49.3004 324.024 49.5644 324.128 49.8844 324.128C50.2044 324.128 50.4684 324.024 50.6764 323.816C50.8897 323.603 50.9964 323.331 50.9964 323C50.9964 322.669 50.8897 322.4 50.6764 322.192C50.4684 321.979 50.2044 321.872 49.8844 321.872C49.5644 321.872 49.3004 321.979 49.0924 322.192C48.8844 322.4 48.7804 322.669 48.7804 323C48.7804 323.331 48.8844 323.603 49.0924 323.816ZM56.1162 321V321.992H54.8682V325H53.8362V321.992H52.5722V321H56.1162ZM59.5511 321H60.5831V325H59.5511V324.528C59.2417 324.917 58.8071 325.112 58.2471 325.112C57.7137 325.112 57.2551 324.909 56.8711 324.504C56.4924 324.093 56.3031 323.592 56.3031 323C56.3031 322.408 56.4924 321.909 56.8711 321.504C57.2551 321.093 57.7137 320.888 58.2471 320.888C58.8071 320.888 59.2417 321.083 59.5511 321.472V321ZM57.6471 323.816C57.8551 324.024 58.1191 324.128 58.4391 324.128C58.7591 324.128 59.0231 324.024 59.2311 323.816C59.4444 323.603 59.5511 323.331 59.5511 323C59.5511 322.669 59.4444 322.4 59.2311 322.192C59.0231 321.979 58.7591 321.872 58.4391 321.872C58.1191 321.872 57.8551 321.979 57.6471 322.192C57.4391 322.4 57.3351 322.669 57.3351 323C57.3351 323.331 57.4391 323.603 57.6471 323.816ZM65.8469 320.888C66.3855 320.888 66.8442 321.093 67.2229 321.504C67.6069 321.909 67.7989 322.408 67.7989 323C67.7989 323.592 67.6069 324.093 67.2229 324.504C66.8442 324.909 66.3855 325.112 65.8469 325.112C65.2869 325.112 64.8549 324.917 64.5509 324.528V326.6H63.5189V321H64.5509V321.472C64.8549 321.083 65.2869 320.888 65.8469 320.888ZM64.8629 323.816C65.0709 324.024 65.3349 324.128 65.6549 324.128C65.9749 324.128 66.2389 324.024 66.4469 323.816C66.6602 323.603 66.7669 323.331 66.7669 323C66.7669 322.669 66.6602 322.4 66.4469 322.192C66.2389 321.979 65.9749 321.872 65.6549 321.872C65.3349 321.872 65.0709 321.979 64.8629 322.192C64.6549 322.4 64.5509 322.669 64.5509 323C64.5509 323.331 64.6549 323.603 64.8629 323.816ZM71.9347 324.504C71.524 324.909 71.0227 325.112 70.4307 325.112C69.8387 325.112 69.3374 324.909 68.9267 324.504C68.5214 324.093 68.3187 323.592 68.3187 323C68.3187 322.408 68.5214 321.909 68.9267 321.504C69.3374 321.093 69.8387 320.888 70.4307 320.888C71.0227 320.888 71.524 321.093 71.9347 321.504C72.3454 321.909 72.5507 322.408 72.5507 323C72.5507 323.592 72.3454 324.093 71.9347 324.504ZM69.6547 323.792C69.8627 324 70.1214 324.104 70.4307 324.104C70.74 324.104 70.9987 324 71.2067 323.792C71.4147 323.584 71.5187 323.32 71.5187 323C71.5187 322.68 71.4147 322.416 71.2067 322.208C70.9987 322 70.74 321.896 70.4307 321.896C70.1214 321.896 69.8627 322 69.6547 322.208C69.452 322.416 69.3507 322.68 69.3507 323C69.3507 323.32 69.452 323.584 69.6547 323.792ZM78.3564 325H77.1964L75.9724 323.208V325H74.9644V323.208L73.7404 325H72.5884L74.0284 322.976L72.6684 321H73.8204L74.9644 322.736V321H75.9724V322.736L77.1164 321H78.2764L76.9084 322.976L78.3564 325ZM82.5251 324.032H83.0531V326.072H82.0451V325H79.5651V326.072H78.5571V324.032H79.0451C79.2745 323.691 79.3891 323.219 79.3891 322.616V321H82.5251V324.032ZM80.1491 324.032H81.5171V321.928H80.3971V322.616C80.3971 323.181 80.3145 323.653 80.1491 324.032ZM84.4221 323.424C84.5608 323.925 84.9368 324.176 85.5501 324.176C85.9448 324.176 86.2435 324.043 86.4461 323.776L87.2781 324.256C86.8835 324.827 86.3021 325.112 85.5341 325.112C84.8728 325.112 84.3421 324.912 83.9421 324.512C83.5421 324.112 83.3421 323.608 83.3421 323C83.3421 322.397 83.5395 321.896 83.9341 321.496C84.3288 321.091 84.8355 320.888 85.4541 320.888C86.0408 320.888 86.5235 321.091 86.9021 321.496C87.2861 321.901 87.4781 322.403 87.4781 323C87.4781 323.133 87.4648 323.275 87.4381 323.424H84.4221ZM84.4061 322.624H86.4461C86.3875 322.352 86.2648 322.149 86.0781 322.016C85.8968 321.883 85.6888 321.816 85.4541 321.816C85.1768 321.816 84.9475 321.888 84.7661 322.032C84.5848 322.171 84.4648 322.368 84.4061 322.624ZM90.8226 321H91.8546V325H90.8226V323.48H89.2306V325H88.1986V321H89.2306V322.512H90.8226V321ZM95.6881 321H96.4561V325H95.4481V322.728L93.5681 325H92.8001V321H93.8081V323.272L95.6881 321ZM100.61 321V325H99.6017V323.752H99.2417L98.3217 325H97.1297L98.1297 323.632C97.8737 323.525 97.6684 323.357 97.5137 323.128C97.3644 322.893 97.2897 322.643 97.2897 322.376C97.2897 322.003 97.423 321.68 97.6897 321.408C97.9564 321.136 98.3057 321 98.7377 321H100.61ZM98.8177 321.92C98.6684 321.92 98.543 321.965 98.4417 322.056C98.3457 322.141 98.2977 322.259 98.2977 322.408C98.2977 322.552 98.3457 322.667 98.4417 322.752C98.543 322.837 98.6684 322.88 98.8177 322.88H99.6017V321.92H98.8177Z" fill="#333A4C"/>
<rect x="27" y="354" width="174" height="34" rx="5" fill="#E5EDFD"/>
<path opacity="0.5" d="M46.824 372.944H47.424V375.072H46.32V374H43.224V375.072H42.12V372.944H42.664C42.9733 372.512 43.128 371.88 43.128 371.048V368.4H46.824V372.944ZM43.848 372.944H45.72V369.432H44.232V371.064C44.232 371.875 44.104 372.501 43.848 372.944ZM51.3644 373.504C50.9537 373.909 50.4524 374.112 49.8604 374.112C49.2684 374.112 48.767 373.909 48.3564 373.504C47.951 373.093 47.7484 372.592 47.7484 372C47.7484 371.408 47.951 370.909 48.3564 370.504C48.767 370.093 49.2684 369.888 49.8604 369.888C50.4524 369.888 50.9537 370.093 51.3644 370.504C51.775 370.909 51.9804 371.408 51.9804 372C51.9804 372.592 51.775 373.093 51.3644 373.504ZM49.0844 372.792C49.2924 373 49.551 373.104 49.8604 373.104C50.1697 373.104 50.4284 373 50.6364 372.792C50.8444 372.584 50.9484 372.32 50.9484 372C50.9484 371.68 50.8444 371.416 50.6364 371.208C50.4284 371 50.1697 370.896 49.8604 370.896C49.551 370.896 49.2924 371 49.0844 371.208C48.8817 371.416 48.7804 371.68 48.7804 372C48.7804 372.32 48.8817 372.584 49.0844 372.792ZM56.1131 374H54.9211L54.0571 372.784L53.1851 374H51.9931L53.4571 371.96L52.0571 370H53.2491L54.0571 371.128L54.8651 370H56.0491L54.6491 371.952L56.1131 374ZM59.755 373.504C59.3443 373.909 58.843 374.112 58.251 374.112C57.659 374.112 57.1577 373.909 56.747 373.504C56.3417 373.093 56.139 372.592 56.139 372C56.139 371.408 56.3417 370.909 56.747 370.504C57.1577 370.093 57.659 369.888 58.251 369.888C58.843 369.888 59.3443 370.093 59.755 370.504C60.1657 370.909 60.371 371.408 60.371 372C60.371 372.592 60.1657 373.093 59.755 373.504ZM57.475 372.792C57.683 373 57.9417 373.104 58.251 373.104C58.5603 373.104 58.819 373 59.027 372.792C59.235 372.584 59.339 372.32 59.339 372C59.339 371.68 59.235 371.416 59.027 371.208C58.819 371 58.5603 370.896 58.251 370.896C57.9417 370.896 57.683 371 57.475 371.208C57.2723 371.416 57.171 371.68 57.171 372C57.171 372.32 57.2723 372.584 57.475 372.792ZM64.5408 373.032H65.0688V375.072H64.0608V374H61.5808V375.072H60.5728V373.032H61.0608C61.2901 372.691 61.4048 372.219 61.4048 371.616V370H64.5408V373.032ZM62.1648 373.032H63.5328V370.928H62.4128V371.616C62.4128 372.181 62.3301 372.653 62.1648 373.032Z" fill="#333A4C"/>
<path opacity="0.5" d="M178.792 372.056H177.8V372.496H179.584V373.2H177.8V374H176.704V373.2H176.104V372.496H176.704V372.056H176.104V371.088H176.704V368.4H178.792C179.32 368.4 179.765 368.581 180.128 368.944C180.496 369.307 180.68 369.744 180.68 370.256C180.68 370.768 180.499 371.197 180.136 371.544C179.773 371.885 179.325 372.056 178.792 372.056ZM177.8 369.432V371.088H178.792C179.016 371.088 179.203 371.008 179.352 370.848C179.507 370.688 179.584 370.491 179.584 370.256C179.584 370.021 179.507 369.827 179.352 369.672C179.203 369.512 179.016 369.432 178.792 369.432H177.8Z" fill="#333A4C"/>
</svg>
