<svg width="230" height="445" viewBox="0 0 230 445" fill="none" xmlns="http://www.w3.org/2000/svg">
<path d="M17.1055 3.70483C9.64962 3.70483 3.60547 9.749 3.60547 17.2048V427.205C3.60547 434.661 9.64963 440.705 17.1055 440.705H212.105C219.561 440.705 225.605 434.661 225.605 427.205V17.2048C225.605 9.74899 219.561 3.70483 212.105 3.70483H17.1055Z" fill="white" stroke="#E5EDFD" stroke-width="7"/>
<path d="M7.10547 17C7.10547 11.4771 11.5826 7 17.1055 7H212.105C217.628 7 222.105 11.4772 222.105 17V422H7.10547V17Z" fill="#E5EDFD"/>
<path d="M6 166C6 151.641 17.6406 140 32 140H196C210.359 140 222 151.641 222 166V427C222 432.523 217.523 437 212 437H16C10.4772 437 6 432.523 6 427V166Z" fill="white"/>
<path d="M31.9805 72.7048H34.9805V90.2048H31.5305V76.3548L28.2305 77.2798L27.3805 74.3298L31.9805 72.7048ZM50.0234 78.4298C50.0234 79.7798 49.6734 80.9632 48.9734 81.9798H48.9984L43.5484 90.2048H39.5984L43.4984 84.5048C41.6818 84.4715 40.1984 83.8965 39.0484 82.7798C37.9151 81.6465 37.3484 80.1965 37.3484 78.4298C37.3484 76.6465 37.9318 75.1882 39.0984 74.0548C40.2818 72.9215 41.8068 72.3548 43.6734 72.3548C45.5568 72.3548 47.0818 72.9215 48.2484 74.0548C49.4318 75.1715 50.0234 76.6298 50.0234 78.4298ZM40.7734 78.4298C40.7734 79.2965 41.0484 79.9882 41.5984 80.5048C42.1651 81.0215 42.8568 81.2798 43.6734 81.2798C44.5234 81.2798 45.2234 81.0215 45.7734 80.5048C46.3234 79.9882 46.5984 79.2965 46.5984 78.4298C46.5984 77.5632 46.3234 76.8798 45.7734 76.3798C45.2234 75.8632 44.5234 75.6048 43.6734 75.6048C42.8568 75.6048 42.1651 75.8632 41.5984 76.3798C41.0484 76.8965 40.7734 77.5798 40.7734 78.4298ZM70.0918 78.4298C70.0918 79.7798 69.7418 80.9632 69.0418 81.9798H69.0668L63.6168 90.2048H59.6668L63.5668 84.5048C61.7501 84.4715 60.2668 83.8965 59.1168 82.7798C57.9835 81.6465 57.4168 80.1965 57.4168 78.4298C57.4168 76.6465 58.0001 75.1882 59.1668 74.0548C60.3501 72.9215 61.8751 72.3548 63.7418 72.3548C65.6251 72.3548 67.1501 72.9215 68.3168 74.0548C69.5001 75.1715 70.0918 76.6298 70.0918 78.4298ZM60.8418 78.4298C60.8418 79.2965 61.1168 79.9882 61.6668 80.5048C62.2335 81.0215 62.9251 81.2798 63.7418 81.2798C64.5918 81.2798 65.2918 81.0215 65.8418 80.5048C66.3918 79.9882 66.6668 79.2965 66.6668 78.4298C66.6668 77.5632 66.3918 76.8798 65.8418 76.3798C65.2918 75.8632 64.5918 75.6048 63.7418 75.6048C62.9251 75.6048 62.2335 75.8632 61.6668 76.3798C61.1168 76.8965 60.8418 77.5798 60.8418 78.4298ZM83.9102 78.4298C83.9102 79.7798 83.5602 80.9632 82.8602 81.9798H82.8852L77.4352 90.2048H73.4852L77.3852 84.5048C75.5685 84.4715 74.0852 83.8965 72.9352 82.7798C71.8018 81.6465 71.2352 80.1965 71.2352 78.4298C71.2352 76.6465 71.8185 75.1882 72.9852 74.0548C74.1685 72.9215 75.6935 72.3548 77.5602 72.3548C79.4435 72.3548 80.9685 72.9215 82.1352 74.0548C83.3185 75.1715 83.9102 76.6298 83.9102 78.4298ZM74.6602 78.4298C74.6602 79.2965 74.9352 79.9882 75.4852 80.5048C76.0518 81.0215 76.7435 81.2798 77.5602 81.2798C78.4102 81.2798 79.1102 81.0215 79.6602 80.5048C80.2102 79.9882 80.4852 79.2965 80.4852 78.4298C80.4852 77.5632 80.2102 76.8798 79.6602 76.3798C79.1102 75.8632 78.4102 75.6048 77.5602 75.6048C76.7435 75.6048 76.0518 75.8632 75.4852 76.3798C74.9352 76.8965 74.6602 77.5798 74.6602 78.4298ZM92.3535 90.5548C90.1702 90.5548 88.4535 89.7298 87.2035 88.0798C85.9702 86.4132 85.3535 84.2048 85.3535 81.4548C85.3535 78.7048 85.9702 76.5048 87.2035 74.8548C88.4535 73.1882 90.1702 72.3548 92.3535 72.3548C94.5535 72.3548 96.2702 73.1882 97.5035 74.8548C98.7368 76.5048 99.3535 78.7048 99.3535 81.4548C99.3535 84.2048 98.7368 86.4132 97.5035 88.0798C96.2702 89.7298 94.5535 90.5548 92.3535 90.5548ZM89.7035 85.7298C90.3035 86.6965 91.1868 87.1798 92.3535 87.1798C93.5202 87.1798 94.4035 86.6882 95.0035 85.7048C95.6202 84.7215 95.9285 83.3048 95.9285 81.4548C95.9285 79.5882 95.6202 78.1632 95.0035 77.1798C94.4035 76.1965 93.5202 75.7048 92.3535 75.7048C91.1868 75.7048 90.3035 76.1965 89.7035 77.1798C89.1035 78.1632 88.8035 79.5882 88.8035 81.4548C88.8035 83.3215 89.1035 84.7465 89.7035 85.7298ZM115.201 84.1298H112.101V85.5048H117.676V87.7048H112.101V90.2048H108.676V87.7048H106.801V85.5048H108.676V84.1298H106.801V81.1048H108.676V72.7048H115.201C116.851 72.7048 118.242 73.2715 119.376 74.4048C120.526 75.5382 121.101 76.9048 121.101 78.5048C121.101 80.1048 120.534 81.4465 119.401 82.5298C118.267 83.5965 116.867 84.1298 115.201 84.1298ZM112.101 75.9298V81.1048H115.201C115.901 81.1048 116.484 80.8548 116.951 80.3548C117.434 79.8548 117.676 79.2382 117.676 78.5048C117.676 77.7715 117.434 77.1632 116.951 76.6798C116.484 76.1798 115.901 75.9298 115.201 75.9298H112.101Z" fill="#333A4C"/>
<path opacity="0.5" d="M32.9735 112.449C32.3655 113.049 31.6215 113.349 30.7415 113.349C29.8615 113.349 29.1135 113.049 28.4975 112.449C27.8895 111.841 27.5855 111.093 27.5855 110.205C27.5855 109.317 27.8895 108.573 28.4975 107.973C29.1135 107.365 29.8615 107.061 30.7415 107.061C31.6215 107.061 32.3655 107.365 32.9735 107.973C33.5895 108.573 33.8975 109.317 33.8975 110.205C33.8975 111.093 33.5895 111.841 32.9735 112.449ZM29.0615 111.897C29.5175 112.353 30.0775 112.581 30.7415 112.581C31.4055 112.581 31.9655 112.353 32.4215 111.897C32.8775 111.433 33.1055 110.869 33.1055 110.205C33.1055 109.541 32.8775 108.981 32.4215 108.525C31.9655 108.061 31.4055 107.829 30.7415 107.829C30.0775 107.829 29.5175 108.061 29.0615 108.525C28.6055 108.981 28.3775 109.541 28.3775 110.205C28.3775 110.869 28.6055 111.433 29.0615 111.897ZM39.3084 107.205V107.973H37.1844V113.205H36.3924V107.973H34.2684V107.205H39.3084ZM48.4336 107.433C48.4336 108.065 48.2616 108.625 47.9176 109.113L45.1696 113.205H44.2216L46.2856 110.133C46.0696 110.181 45.8456 110.205 45.6136 110.205C44.7896 110.205 44.1136 109.949 43.5856 109.437C43.0576 108.917 42.7936 108.249 42.7936 107.433C42.7936 106.617 43.0576 105.953 43.5856 105.441C44.1136 104.921 44.7896 104.661 45.6136 104.661C46.4376 104.661 47.1136 104.921 47.6416 105.441C48.1696 105.953 48.4336 106.617 48.4336 107.433ZM44.1736 106.017C43.8136 106.377 43.6336 106.849 43.6336 107.433C43.6336 108.017 43.8136 108.489 44.1736 108.849C44.5416 109.209 45.0216 109.389 45.6136 109.389C46.2056 109.389 46.6816 109.209 47.0416 108.849C47.4096 108.489 47.5936 108.017 47.5936 107.433C47.5936 106.849 47.4096 106.377 47.0416 106.017C46.6816 105.657 46.2056 105.477 45.6136 105.477C45.0216 105.477 44.5416 105.657 44.1736 106.017ZM54.7969 107.433C54.7969 108.065 54.6249 108.625 54.2809 109.113L51.5329 113.205H50.5849L52.6489 110.133C52.4329 110.181 52.2089 110.205 51.9769 110.205C51.1529 110.205 50.4769 109.949 49.9489 109.437C49.4209 108.917 49.1569 108.249 49.1569 107.433C49.1569 106.617 49.4209 105.953 49.9489 105.441C50.4769 104.921 51.1529 104.661 51.9769 104.661C52.8009 104.661 53.4769 104.921 54.0049 105.441C54.5329 105.953 54.7969 106.617 54.7969 107.433ZM50.5369 106.017C50.1769 106.377 49.9969 106.849 49.9969 107.433C49.9969 108.017 50.1769 108.489 50.5369 108.849C50.9049 109.209 51.3849 109.389 51.9769 109.389C52.5689 109.389 53.0449 109.209 53.4049 108.849C53.7729 108.489 53.9569 108.017 53.9569 107.433C53.9569 106.849 53.7729 106.377 53.4049 106.017C53.0449 105.657 52.5689 105.477 51.9769 105.477C51.3849 105.477 50.9049 105.657 50.5369 106.017ZM61.1602 107.433C61.1602 108.065 60.9882 108.625 60.6442 109.113L57.8962 113.205H56.9482L59.0122 110.133C58.7962 110.181 58.5722 110.205 58.3402 110.205C57.5162 110.205 56.8402 109.949 56.3122 109.437C55.7842 108.917 55.5202 108.249 55.5202 107.433C55.5202 106.617 55.7842 105.953 56.3122 105.441C56.8402 104.921 57.5162 104.661 58.3402 104.661C59.1642 104.661 59.8402 104.921 60.3682 105.441C60.8962 105.953 61.1602 106.617 61.1602 107.433ZM56.9002 106.017C56.5402 106.377 56.3602 106.849 56.3602 107.433C56.3602 108.017 56.5402 108.489 56.9002 108.849C57.2682 109.209 57.7482 109.389 58.3402 109.389C58.9322 109.389 59.4082 109.209 59.7682 108.849C60.1362 108.489 60.3202 108.017 60.3202 107.433C60.3202 106.849 60.1362 106.377 59.7682 106.017C59.4082 105.657 58.9322 105.477 58.3402 105.477C57.7482 105.477 57.2682 105.657 56.9002 106.017ZM68.5794 107.061C69.4354 107.061 70.1634 107.365 70.7634 107.973C71.3714 108.581 71.6754 109.325 71.6754 110.205C71.6754 111.085 71.3714 111.829 70.7634 112.437C70.1634 113.045 69.4354 113.349 68.5794 113.349C67.5154 113.349 66.7074 112.909 66.1554 112.029V115.605H65.3634V107.205H66.1554V108.381C66.7074 107.501 67.5154 107.061 68.5794 107.061ZM66.8394 111.897C67.2954 112.353 67.8554 112.581 68.5194 112.581C69.1834 112.581 69.7434 112.353 70.1994 111.897C70.6554 111.433 70.8834 110.869 70.8834 110.205C70.8834 109.541 70.6554 108.981 70.1994 108.525C69.7434 108.061 69.1834 107.829 68.5194 107.829C67.8554 107.829 67.2954 108.061 66.8394 108.525C66.3834 108.981 66.1554 109.541 66.1554 110.205C66.1554 110.869 66.3834 111.433 66.8394 111.897ZM77.078 107.205H77.918L75.35 113.757C75.118 114.349 74.786 114.813 74.354 115.149C73.93 115.493 73.454 115.645 72.926 115.605V114.861C73.646 114.941 74.194 114.525 74.57 113.613L74.726 113.241L72.038 107.205H72.878L75.134 112.233L77.078 107.205ZM81.3048 113.349C80.4408 113.349 79.7208 113.065 79.1448 112.497C78.5688 111.921 78.2808 111.177 78.2808 110.265C78.2808 109.241 78.4328 108.457 78.7368 107.913C79.0408 107.361 79.6568 106.861 80.5848 106.413C80.7608 106.325 80.9928 106.221 81.2808 106.101C81.5768 105.981 81.7968 105.885 81.9408 105.813C82.0928 105.741 82.2568 105.649 82.4328 105.537C82.6088 105.417 82.7408 105.285 82.8288 105.141C82.9168 104.997 82.9728 104.825 82.9968 104.625L83.6208 104.985C83.5888 105.177 83.5248 105.357 83.4288 105.525C83.3328 105.693 83.2328 105.829 83.1288 105.933C83.0328 106.037 82.8768 106.153 82.6608 106.281C82.4528 106.401 82.2888 106.489 82.1688 106.545C82.0568 106.593 81.8568 106.677 81.5688 106.797C81.2888 106.917 81.1008 106.997 81.0048 107.037C80.4448 107.277 80.0328 107.529 79.7688 107.793C79.5048 108.049 79.3168 108.385 79.2048 108.801C79.4768 108.441 79.8208 108.177 80.2368 108.009C80.6608 107.833 81.0728 107.745 81.4728 107.745C82.2728 107.745 82.9328 108.009 83.4528 108.537C83.9808 109.057 84.2448 109.725 84.2448 110.541C84.2448 111.349 83.9648 112.021 83.4048 112.557C82.8528 113.085 82.1528 113.349 81.3048 113.349ZM81.3048 112.557C81.9288 112.557 82.4408 112.369 82.8408 111.993C83.2488 111.609 83.4528 111.125 83.4528 110.541C83.4528 109.949 83.2608 109.465 82.8768 109.089C82.5008 108.705 81.9968 108.513 81.3648 108.513C80.7968 108.513 80.2808 108.693 79.8168 109.053C79.3528 109.405 79.1208 109.877 79.1208 110.469C79.1208 111.077 79.3288 111.577 79.7448 111.969C80.1688 112.361 80.6888 112.557 81.3048 112.557ZM85.9769 113.133C85.8489 113.261 85.6929 113.325 85.5089 113.325C85.3249 113.325 85.1689 113.261 85.0409 113.133C84.9129 113.005 84.8489 112.849 84.8489 112.665C84.8489 112.481 84.9129 112.325 85.0409 112.197C85.1689 112.069 85.3249 112.005 85.5089 112.005C85.6929 112.005 85.8489 112.069 85.9769 112.197C86.1049 112.325 86.1689 112.481 86.1689 112.665C86.1689 112.849 86.1049 113.005 85.9769 113.133ZM87.9745 114.405H87.3745L92.1745 103.605H92.7745L87.9745 114.405ZM99.9778 107.205V113.205H99.1858V108.417L97.0858 111.825H96.9898L94.8898 108.417V113.205H94.0978V107.205H95.0098L97.0378 110.493L99.0658 107.205H99.9778ZM104.428 107.061C105.316 107.061 106.032 107.377 106.576 108.009C107.128 108.633 107.404 109.373 107.404 110.229C107.404 110.317 107.396 110.441 107.38 110.601H102.112C102.192 111.209 102.448 111.693 102.88 112.053C103.32 112.405 103.86 112.581 104.5 112.581C104.956 112.581 105.348 112.489 105.676 112.305C106.012 112.113 106.264 111.865 106.432 111.561L107.128 111.969C106.864 112.393 106.504 112.729 106.048 112.977C105.592 113.225 105.072 113.349 104.488 113.349C103.544 113.349 102.776 113.053 102.184 112.461C101.592 111.869 101.296 111.117 101.296 110.205C101.296 109.309 101.588 108.561 102.172 107.961C102.756 107.361 103.508 107.061 104.428 107.061ZM104.428 107.829C103.804 107.829 103.28 108.017 102.856 108.393C102.44 108.761 102.192 109.241 102.112 109.833H106.588C106.508 109.201 106.264 108.709 105.856 108.357C105.448 108.005 104.972 107.829 104.428 107.829ZM111.46 113.349C110.556 113.349 109.804 113.049 109.204 112.449C108.604 111.841 108.304 111.093 108.304 110.205C108.304 109.317 108.604 108.573 109.204 107.973C109.804 107.365 110.556 107.061 111.46 107.061C112.052 107.061 112.584 107.205 113.056 107.493C113.528 107.773 113.872 108.153 114.088 108.633L113.44 109.005C113.28 108.645 113.02 108.361 112.66 108.153C112.308 107.937 111.908 107.829 111.46 107.829C110.796 107.829 110.236 108.061 109.78 108.525C109.324 108.981 109.096 109.541 109.096 110.205C109.096 110.869 109.324 111.433 109.78 111.897C110.236 112.353 110.796 112.581 111.46 112.581C111.908 112.581 112.308 112.477 112.66 112.269C113.012 112.053 113.288 111.765 113.488 111.405L114.148 111.789C113.9 112.269 113.536 112.649 113.056 112.929C112.576 113.209 112.044 113.349 111.46 113.349ZM115.93 113.133C115.802 113.261 115.646 113.325 115.462 113.325C115.278 113.325 115.122 113.261 114.994 113.133C114.866 113.005 114.802 112.849 114.802 112.665C114.802 112.481 114.866 112.325 114.994 112.197C115.122 112.069 115.278 112.005 115.462 112.005C115.646 112.005 115.802 112.069 115.93 112.197C116.058 112.325 116.122 112.481 116.122 112.665C116.122 112.849 116.058 113.005 115.93 113.133Z" fill="#333A4C"/>
<path d="M31.4345 45.5498C32.3185 45.5498 33.0421 45.8142 33.6055 46.3428C34.1688 46.8628 34.4505 47.5388 34.4505 48.3708C34.4505 49.2115 34.1688 49.8962 33.6055 50.4248C33.0421 50.9448 32.3185 51.2048 31.4345 51.2048H27.9505V42.1048H33.6705V43.8208H29.7445V45.5498H31.4345ZM31.4345 49.5278C31.7898 49.5278 32.0845 49.4282 32.3185 49.2288C32.5525 49.0208 32.6695 48.7348 32.6695 48.3708C32.6695 48.0068 32.5525 47.7252 32.3185 47.5258C32.0845 47.3265 31.7898 47.2268 31.4345 47.2268H29.7445V49.5278H31.4345ZM36.894 48.6438C37.1193 49.4585 37.7303 49.8658 38.727 49.8658C39.3683 49.8658 39.8536 49.6492 40.183 49.2158L41.535 49.9958C40.8936 50.9232 39.949 51.3868 38.701 51.3868C37.6263 51.3868 36.764 51.0618 36.114 50.4118C35.464 49.7618 35.139 48.9428 35.139 47.9548C35.139 46.9755 35.4596 46.1608 36.101 45.5108C36.7423 44.8522 37.5656 44.5228 38.571 44.5228C39.5243 44.5228 40.3086 44.8522 40.924 45.5108C41.548 46.1695 41.86 46.9842 41.86 47.9548C41.86 48.1715 41.8383 48.4012 41.795 48.6438H36.894ZM36.868 47.3438H40.183C40.0876 46.9018 39.8883 46.5725 39.585 46.3558C39.2903 46.1392 38.9523 46.0308 38.571 46.0308C38.1203 46.0308 37.7476 46.1478 37.453 46.3818C37.1583 46.6072 36.9633 46.9278 36.868 47.3438ZM46.0739 51.3868C45.0946 51.3868 44.2756 51.0575 43.6169 50.3988C42.9669 49.7402 42.6419 48.9255 42.6419 47.9548C42.6419 46.9842 42.9669 46.1695 43.6169 45.5108C44.2756 44.8522 45.0946 44.5228 46.0739 44.5228C46.7066 44.5228 47.2829 44.6745 47.8029 44.9778C48.3229 45.2812 48.7172 45.6885 48.9859 46.1998L47.5429 47.0448C47.4129 46.7762 47.2136 46.5638 46.9449 46.4078C46.6849 46.2518 46.3902 46.1738 46.0609 46.1738C45.5582 46.1738 45.1422 46.3428 44.8129 46.6808C44.4836 47.0102 44.3189 47.4348 44.3189 47.9548C44.3189 48.4662 44.4836 48.8908 44.8129 49.2288C45.1422 49.5582 45.5582 49.7228 46.0609 49.7228C46.3989 49.7228 46.6979 49.6492 46.9579 49.5018C47.2266 49.3458 47.4259 49.1335 47.5559 48.8648L49.0119 49.6968C48.7259 50.2082 48.3229 50.6198 47.8029 50.9318C47.2829 51.2352 46.7066 51.3868 46.0739 51.3868ZM55.8906 44.7048V51.2048H54.2136V46.2778H51.6266V51.2048H49.9496V44.7048H55.8906ZM61.2102 44.5228C62.0855 44.5228 62.8308 44.8565 63.4462 45.5238C64.0702 46.1825 64.3822 46.9928 64.3822 47.9548C64.3822 48.9168 64.0702 49.7315 63.4462 50.3988C62.8308 51.0575 62.0855 51.3868 61.2102 51.3868C60.3002 51.3868 59.5982 51.0705 59.1042 50.4378V53.8048H57.4272V44.7048H59.1042V45.4718C59.5982 44.8392 60.3002 44.5228 61.2102 44.5228ZM59.6112 49.2808C59.9492 49.6188 60.3782 49.7878 60.8982 49.7878C61.4182 49.7878 61.8472 49.6188 62.1852 49.2808C62.5318 48.9342 62.7052 48.4922 62.7052 47.9548C62.7052 47.4175 62.5318 46.9798 62.1852 46.6418C61.8472 46.2952 61.4182 46.1218 60.8982 46.1218C60.3782 46.1218 59.9492 46.2952 59.6112 46.6418C59.2732 46.9798 59.1042 47.4175 59.1042 47.9548C59.1042 48.4922 59.2732 48.9342 59.6112 49.2808ZM71.1029 50.3988C70.4355 51.0575 69.6209 51.3868 68.6589 51.3868C67.6969 51.3868 66.8822 51.0575 66.2149 50.3988C65.5562 49.7315 65.2269 48.9168 65.2269 47.9548C65.2269 46.9928 65.5562 46.1825 66.2149 45.5238C66.8822 44.8565 67.6969 44.5228 68.6589 44.5228C69.6209 44.5228 70.4355 44.8565 71.1029 45.5238C71.7702 46.1825 72.1039 46.9928 72.1039 47.9548C72.1039 48.9168 71.7702 49.7315 71.1029 50.3988ZM67.3979 49.2418C67.7359 49.5798 68.1562 49.7488 68.6589 49.7488C69.1615 49.7488 69.5819 49.5798 69.9199 49.2418C70.2579 48.9038 70.4269 48.4748 70.4269 47.9548C70.4269 47.4348 70.2579 47.0058 69.9199 46.6678C69.5819 46.3298 69.1615 46.1608 68.6589 46.1608C68.1562 46.1608 67.7359 46.3298 67.3979 46.6678C67.0685 47.0058 66.9039 47.4348 66.9039 47.9548C66.9039 48.4748 67.0685 48.9038 67.3979 49.2418ZM77.9636 47.8768C78.5703 48.1715 78.8736 48.6655 78.8736 49.3588C78.8736 49.9048 78.6829 50.3512 78.3016 50.6978C77.9289 51.0358 77.3959 51.2048 76.7026 51.2048H73.2836V44.7048H76.4426C77.1273 44.7048 77.6559 44.8738 78.0286 45.2118C78.4099 45.5498 78.6006 45.9918 78.6006 46.5378C78.6006 47.1098 78.3883 47.5562 77.9636 47.8768ZM76.2866 46.0828H74.8566V47.2528H76.2866C76.7633 47.2528 77.0016 47.0578 77.0016 46.6678C77.0016 46.2778 76.7633 46.0828 76.2866 46.0828ZM76.5076 49.7878C76.9929 49.7878 77.2356 49.5798 77.2356 49.1638C77.2356 48.9818 77.1706 48.8388 77.0406 48.7348C76.9106 48.6308 76.7329 48.5788 76.5076 48.5788H74.8566V49.7878H76.5076ZM85.4613 50.3988C84.7939 51.0575 83.9793 51.3868 83.0173 51.3868C82.0553 51.3868 81.2406 51.0575 80.5733 50.3988C79.9146 49.7315 79.5852 48.9168 79.5852 47.9548C79.5852 46.9928 79.9146 46.1825 80.5733 45.5238C81.2406 44.8565 82.0553 44.5228 83.0173 44.5228C83.9793 44.5228 84.7939 44.8565 85.4613 45.5238C86.1286 46.1825 86.4623 46.9928 86.4623 47.9548C86.4623 48.9168 86.1286 49.7315 85.4613 50.3988ZM81.7563 49.2418C82.0943 49.5798 82.5146 49.7488 83.0173 49.7488C83.5199 49.7488 83.9403 49.5798 84.2783 49.2418C84.6163 48.9038 84.7853 48.4748 84.7853 47.9548C84.7853 47.4348 84.6163 47.0058 84.2783 46.6678C83.9403 46.3298 83.5199 46.1608 83.0173 46.1608C82.5146 46.1608 82.0943 46.3298 81.7563 46.6678C81.4269 47.0058 81.2623 47.4348 81.2623 47.9548C81.2623 48.4748 81.4269 48.9038 81.7563 49.2418ZM93.2381 49.6318H94.0961V52.9468H92.4581V51.2048H88.4281V52.9468H86.7901V49.6318H87.5831C87.9558 49.0772 88.1421 48.3102 88.1421 47.3308V44.7048H93.2381V49.6318ZM89.3771 49.6318H91.6001V46.2128H89.7801V47.3308C89.7801 48.2495 89.6458 49.0165 89.3771 49.6318ZM99.4216 44.7048H101.099V51.2048H99.4216V48.7348H96.8346V51.2048H95.1576V44.7048H96.8346V47.1618H99.4216V44.7048ZM105.573 46.7848C106.31 46.7848 106.903 46.9885 107.354 47.3958C107.805 47.7945 108.03 48.3275 108.03 48.9948C108.03 49.6622 107.805 50.1995 107.354 50.6068C106.903 51.0055 106.31 51.2048 105.573 51.2048H102.635V44.7048H104.312V46.7848H105.573ZM108.745 44.7048H110.422V51.2048H108.745V44.7048ZM105.586 49.7228C105.82 49.7228 106.011 49.6578 106.158 49.5278C106.314 49.3892 106.392 49.2115 106.392 48.9948C106.392 48.7782 106.314 48.6005 106.158 48.4618C106.011 48.3232 105.82 48.2538 105.586 48.2538H104.312V49.7228H105.586ZM113.371 48.6438C113.596 49.4585 114.207 49.8658 115.204 49.8658C115.845 49.8658 116.33 49.6492 116.66 49.2158L118.012 49.9958C117.37 50.9232 116.426 51.3868 115.178 51.3868C114.103 51.3868 113.241 51.0618 112.591 50.4118C111.941 49.7618 111.616 48.9428 111.616 47.9548C111.616 46.9755 111.936 46.1608 112.578 45.5108C113.219 44.8522 114.042 44.5228 115.048 44.5228C116.001 44.5228 116.785 44.8522 117.401 45.5108C118.025 46.1695 118.337 46.9842 118.337 47.9548C118.337 48.1715 118.315 48.4012 118.272 48.6438H113.371ZM113.345 47.3438H116.66C116.564 46.9018 116.365 46.5725 116.062 46.3558C115.767 46.1392 115.429 46.0308 115.048 46.0308C114.597 46.0308 114.224 46.1478 113.93 46.3818C113.635 46.6072 113.44 46.9278 113.345 47.3438ZM127.021 44.7048H128.698V51.2048H127.021V48.7348H124.434V51.2048H122.757V44.7048H124.434V47.1618H127.021V44.7048ZM135.175 44.7048H136.852V51.2048H135.175V50.4378C134.672 51.0705 133.966 51.3868 133.056 51.3868C132.189 51.3868 131.444 51.0575 130.82 50.3988C130.204 49.7315 129.897 48.9168 129.897 47.9548C129.897 46.9928 130.204 46.1825 130.82 45.5238C131.444 44.8565 132.189 44.5228 133.056 44.5228C133.966 44.5228 134.672 44.8392 135.175 45.4718V44.7048ZM132.081 49.2808C132.419 49.6188 132.848 49.7878 133.368 49.7878C133.888 49.7878 134.317 49.6188 134.655 49.2808C135.001 48.9342 135.175 48.4922 135.175 47.9548C135.175 47.4175 135.001 46.9798 134.655 46.6418C134.317 46.2952 133.888 46.1218 133.368 46.1218C132.848 46.1218 132.419 46.2952 132.081 46.6418C131.743 46.9798 131.574 47.4175 131.574 47.9548C131.574 48.4922 131.743 48.9342 132.081 49.2808ZM142.61 44.7048H144.404L142.038 51.2048C141.38 53.0335 140.236 53.9002 138.606 53.8048V52.2448C139.048 52.2535 139.395 52.1712 139.646 51.9978C139.906 51.8245 140.114 51.5342 140.27 51.1268L137.644 44.7048H139.425L141.167 49.0728L142.61 44.7048ZM152.821 44.7048H154.498V51.2048H145.203V44.7048H146.88V49.6318H149.012V44.7048H150.689V49.6318H152.821V44.7048ZM160.296 44.7048H161.973V51.2048H160.296V48.7348H157.709V51.2048H156.032V44.7048H157.709V47.1618H160.296V44.7048ZM168.202 44.7048H169.45V51.2048H167.812V47.5128L164.757 51.2048H163.509V44.7048H165.147V48.3968L168.202 44.7048ZM176.98 51.2048H175.03L172.664 48.2538V51.2048H170.987V44.7048H172.664V47.5648L174.9 44.7048H176.902L174.289 47.9158L176.98 51.2048ZM182.51 44.7048H183.758V51.2048H182.12V47.5128L179.065 51.2048H177.817V44.7048H179.455V48.3968L182.51 44.7048Z" fill="#333A4C"/>
<path d="M58.848 215.484C60.048 216.12 60.648 217.116 60.648 218.472C60.648 219.6 60.222 220.512 59.37 221.208C58.518 221.904 57.42 222.252 56.076 222.252C53.736 222.252 52.17 221.262 51.378 219.282L53.52 218.076C53.904 219.3 54.756 219.912 56.076 219.912C56.76 219.912 57.282 219.768 57.642 219.48C58.002 219.192 58.182 218.802 58.182 218.31C58.182 217.818 58.002 217.428 57.642 217.14C57.294 216.852 56.79 216.708 56.13 216.708H54.564V214.494H55.752C56.376 214.494 56.862 214.362 57.21 214.098C57.558 213.822 57.732 213.45 57.732 212.982C57.732 212.514 57.582 212.148 57.282 211.884C56.982 211.608 56.538 211.47 55.95 211.47C54.87 211.47 54.114 211.998 53.682 213.054L51.576 211.83C52.428 210.042 53.886 209.148 55.95 209.148C57.198 209.148 58.218 209.484 59.01 210.156C59.802 210.828 60.198 211.716 60.198 212.82C60.198 213.948 59.748 214.836 58.848 215.484ZM68.9918 213H71.3138V222H68.9918V220.938C68.2958 221.814 67.3178 222.252 66.0578 222.252C64.8578 222.252 63.8258 221.796 62.9618 220.884C62.1098 219.96 61.6838 218.832 61.6838 217.5C61.6838 216.168 62.1098 215.046 62.9618 214.134C63.8258 213.21 64.8578 212.748 66.0578 212.748C67.3178 212.748 68.2958 213.186 68.9918 214.062V213ZM64.7078 219.336C65.1758 219.804 65.7698 220.038 66.4898 220.038C67.2098 220.038 67.8038 219.804 68.2718 219.336C68.7518 218.856 68.9918 218.244 68.9918 217.5C68.9918 216.756 68.7518 216.15 68.2718 215.682C67.8038 215.202 67.2098 214.962 66.4898 214.962C65.7698 214.962 65.1758 215.202 64.7078 215.682C64.2398 216.15 64.0058 216.756 64.0058 217.5C64.0058 218.244 64.2398 218.856 64.7078 219.336ZM81.7174 222H79.0174L75.7414 217.914V222H73.4194V213H75.7414V216.96L78.8374 213H81.6094L77.9914 217.446L81.7174 222ZM89.0661 213H91.3881V222H89.0661V220.938C88.3701 221.814 87.3921 222.252 86.1321 222.252C84.9321 222.252 83.9001 221.796 83.0361 220.884C82.1841 219.96 81.7581 218.832 81.7581 217.5C81.7581 216.168 82.1841 215.046 83.0361 214.134C83.9001 213.21 84.9321 212.748 86.1321 212.748C87.3921 212.748 88.3701 213.186 89.0661 214.062V213ZM84.7821 219.336C85.2501 219.804 85.8441 220.038 86.5641 220.038C87.2841 220.038 87.8781 219.804 88.3461 219.336C88.8261 218.856 89.0661 218.244 89.0661 217.5C89.0661 216.756 88.8261 216.15 88.3461 215.682C87.8781 215.202 87.2841 214.962 86.5641 214.962C85.8441 214.962 85.2501 215.202 84.7821 215.682C84.3141 216.15 84.0801 216.756 84.0801 217.5C84.0801 218.244 84.3141 218.856 84.7821 219.336ZM98.7676 217.41C99.6796 217.854 100.136 218.568 100.136 219.552C100.136 220.32 99.8176 220.962 99.1816 221.478C98.5456 221.994 97.6516 222.252 96.4996 222.252C94.6756 222.252 93.4336 221.532 92.7736 220.092L94.6636 218.976C94.9516 219.792 95.5696 220.2 96.5176 220.2C96.9496 220.2 97.2796 220.116 97.5076 219.948C97.7476 219.78 97.8676 219.552 97.8676 219.264C97.8676 218.712 97.5136 218.436 96.8056 218.436H95.5276V216.456H96.4996C97.1956 216.456 97.5436 216.18 97.5436 215.628C97.5436 215.364 97.4416 215.154 97.2376 214.998C97.0336 214.842 96.7636 214.764 96.4276 214.764C95.6476 214.764 95.0896 215.142 94.7536 215.898L92.8816 214.818C93.5656 213.438 94.7356 212.748 96.3916 212.748C97.4236 212.748 98.2396 213.012 98.8396 213.54C99.4516 214.056 99.7576 214.686 99.7576 215.43C99.7576 216.306 99.4276 216.966 98.7676 217.41ZM113.765 220.884C112.841 221.796 111.713 222.252 110.381 222.252C109.049 222.252 107.921 221.796 106.997 220.884C106.085 219.96 105.629 218.832 105.629 217.5C105.629 216.168 106.085 215.046 106.997 214.134C107.921 213.21 109.049 212.748 110.381 212.748C111.713 212.748 112.841 213.21 113.765 214.134C114.689 215.046 115.151 216.168 115.151 217.5C115.151 218.832 114.689 219.96 113.765 220.884ZM108.635 219.282C109.103 219.75 109.685 219.984 110.381 219.984C111.077 219.984 111.659 219.75 112.127 219.282C112.595 218.814 112.829 218.22 112.829 217.5C112.829 216.78 112.595 216.186 112.127 215.718C111.659 215.25 111.077 215.016 110.381 215.016C109.685 215.016 109.103 215.25 108.635 215.718C108.179 216.186 107.951 216.78 107.951 217.5C107.951 218.22 108.179 218.814 108.635 219.282ZM125.011 213V222H122.689V215.178H119.107V222H116.785V213H125.011ZM134.86 213V222H132.538V215.232H130.054V218.238C130.054 221.022 128.788 222.276 126.256 222V219.822C126.736 219.942 127.102 219.864 127.354 219.588C127.606 219.3 127.732 218.808 127.732 218.112V213H134.86ZM143.804 213H146.126V222H143.804V220.938C143.108 221.814 142.13 222.252 140.87 222.252C139.67 222.252 138.638 221.796 137.774 220.884C136.922 219.96 136.496 218.832 136.496 217.5C136.496 216.168 136.922 215.046 137.774 214.134C138.638 213.21 139.67 212.748 140.87 212.748C142.13 212.748 143.108 213.186 143.804 214.062V213ZM139.52 219.336C139.988 219.804 140.582 220.038 141.302 220.038C142.022 220.038 142.616 219.804 143.084 219.336C143.564 218.856 143.804 218.244 143.804 217.5C143.804 216.756 143.564 216.15 143.084 215.682C142.616 215.202 142.022 214.962 141.302 214.962C140.582 214.962 139.988 215.202 139.52 215.682C139.052 216.15 138.818 216.756 138.818 217.5C138.818 218.244 139.052 218.856 139.52 219.336ZM153.542 213H155.864V222H153.542V219.138C152.87 219.354 152.156 219.462 151.4 219.462C150.308 219.462 149.432 219.186 148.772 218.634C148.124 218.082 147.8 217.278 147.8 216.222V213H150.122V215.952C150.122 216.852 150.68 217.302 151.796 217.302C152.444 217.302 153.026 217.188 153.542 216.96V213ZM159.932 218.454C160.244 219.582 161.09 220.146 162.47 220.146C163.358 220.146 164.03 219.846 164.486 219.246L166.358 220.326C165.47 221.61 164.162 222.252 162.434 222.252C160.946 222.252 159.752 221.802 158.852 220.902C157.952 220.002 157.502 218.868 157.502 217.5C157.502 216.144 157.946 215.016 158.834 214.116C159.722 213.204 160.862 212.748 162.254 212.748C163.574 212.748 164.66 213.204 165.512 214.116C166.376 215.028 166.808 216.156 166.808 217.5C166.808 217.8 166.778 218.118 166.718 218.454H159.932ZM159.896 216.654H164.486C164.354 216.042 164.078 215.586 163.658 215.286C163.25 214.986 162.782 214.836 162.254 214.836C161.63 214.836 161.114 214.998 160.706 215.322C160.298 215.634 160.028 216.078 159.896 216.654ZM174.333 213H176.655V222H174.333V218.58H170.751V222H168.429V213H170.751V216.402H174.333V213Z" fill="#333A4C"/>
<path d="M171 308.5C171 339.704 145.704 365 114.5 365C83.2959 365 58 339.704 58 308.5C58 277.296 83.2959 252 114.5 252C145.704 252 171 277.296 171 308.5Z" stroke="#00CE62" stroke-width="4"/>
<path d="M86 311L101.379 326.379C102.55 327.55 104.45 327.55 105.621 326.379L143 289" stroke="#00CE62" stroke-width="4"/>
</svg>
