<svg width="116" height="79" viewBox="0 0 116 79" fill="none" xmlns="http://www.w3.org/2000/svg">
<path fill-rule="evenodd" clip-rule="evenodd" d="M57.9787 7.47005L53.7358 20.0399H62.2856L58.0312 7.47005H57.9787ZM43.1124 40.94C42.851 40.94 42.6358 41.1531 42.6358 41.4185V46.7648C42.6358 47.031 42.851 47.2442 43.1124 47.2442H72.8931C73.1552 47.2442 73.3643 47.031 73.3643 46.7648V41.4185C73.3643 41.1531 73.1552 40.94 72.8931 40.94H43.1124ZM58.0042 0C61.2632 0 62.2856 2.30238 63.1438 4.61047C63.5061 5.58307 71.9728 28.4657 72.2238 29.1526C72.2954 29.3417 72.2489 29.6567 71.9504 29.7706C71.6506 29.8839 67.2511 31.5705 67.0084 31.6619C66.7643 31.7535 66.4919 31.6174 66.4017 31.3805C66.311 31.1434 64.4896 26.1553 64.2808 25.5959C63.6741 25.5959 52.3452 25.5959 51.7391 25.5959C51.5342 26.1553 49.6914 31.152 49.6067 31.3805C49.5226 31.608 49.2583 31.7625 49.0015 31.6619C48.7444 31.5599 44.3247 29.871 44.065 29.7706C43.809 29.6751 43.6936 29.3925 43.7843 29.1526C44.0965 28.2927 52.4305 5.78269 52.8597 4.61047C53.6825 2.33846 54.7459 0 58.0042 0Z" fill="#989898"/>
<path fill-rule="evenodd" clip-rule="evenodd" d="M83.4162 70.8892C83.4162 68.2522 81.8514 66.4355 78.5615 66.4355C77.7532 66.4355 77.1906 66.5134 76.3188 66.7167L76.3115 62.9194C76.8536 62.8446 77.7825 62.7784 78.805 62.7784C79.7727 62.7784 80.9978 62.8303 82.0723 62.9585L82.1477 60.7598C80.9246 60.4869 79.1538 60.3225 77.7779 60.3225C76.4224 60.3225 74.3163 60.6568 73.3137 60.9248L73.3122 74.9568C74.8754 75.5216 76.4022 75.7828 77.9696 75.7828C81.5547 75.7828 83.4162 73.9045 83.4162 70.8892ZM80.4013 71.1031C80.4013 72.5258 79.6033 73.4604 78.1342 73.4604C77.5537 73.4604 77.0768 73.4623 76.3188 73.2598V68.953C76.6535 68.8985 77.3448 68.7928 78.1342 68.8206C79.6269 68.8762 80.4013 69.5654 80.4013 71.1031Z" fill="#989898"/>
<path fill-rule="evenodd" clip-rule="evenodd" d="M45.6658 79V75.1752C46.0252 75.3832 46.741 75.6941 47.9477 75.6941C50.3493 75.6941 52.1167 73.724 52.1167 70.1264C52.1167 66.2498 50.3604 64.5918 47.4719 64.5918C46.738 64.5918 46.2611 64.6662 45.6658 64.9455V60.3748H42.8432V64.9455C42.2494 64.6662 41.769 64.5918 41.0355 64.5918C38.1474 64.5918 36.3888 66.3181 36.3888 70.191C36.3888 73.7932 37.9779 75.6941 40.5551 75.6941C41.7682 75.6941 42.4836 75.3832 42.8432 75.1752V79H45.6658ZM39.2992 70.191C39.2992 68.0559 39.9521 66.9257 41.2522 66.9257C41.801 66.9257 42.166 66.9212 42.8432 67.2423V73.121C42.2285 73.318 41.9378 73.3458 41.3893 73.3458C39.9083 73.3458 39.2992 72.1509 39.2992 70.191ZM49.2078 70.1264C49.2078 72.0833 48.4178 73.3458 47.1177 73.3458C46.5719 73.3458 46.2832 73.318 45.6658 73.121V67.2423C46.3422 66.9212 46.7071 66.9257 47.2537 66.9257C48.5569 66.9257 49.2078 67.989 49.2078 70.1264Z" fill="#989898"/>
<path fill-rule="evenodd" clip-rule="evenodd" d="M21.3807 75.5114V67.146C20.631 67.0352 20.5058 67.0111 19.9024 67.0111C19.3025 67.0111 19.1542 67.0352 18.4031 67.146V71.0085C18.4031 74.1143 17.5462 75.0948 15.2699 75.7283L14.4969 74.0883C15.0687 73.7143 15.2778 73.2293 15.4347 72.8232C15.5928 72.3626 15.6176 71.9344 15.6176 70.5064V65.255C17.1748 64.7978 18.3426 64.5981 19.9024 64.5981C21.4645 64.5981 22.6613 64.7978 24.217 65.255V75.5114H21.3807Z" fill="#989898"/>
<path fill-rule="evenodd" clip-rule="evenodd" d="M62.733 74.4914C61.9848 73.3672 61.7907 72.7051 61.7907 71.2934V68.4244C61.7907 66.8753 61.6088 66.3062 61.193 65.7381C60.6182 64.9429 59.6599 64.5981 57.891 64.5981C56.6434 64.5981 55.4158 64.7332 54.2442 65.0256L54.6638 67.0792C55.4611 66.9698 56.2911 66.8753 56.8921 66.8753C58.7692 66.8753 58.986 67.146 58.986 68.5338V69.0534C58.5685 68.9424 58.0988 68.8621 57.5523 68.8621C54.7172 68.8621 53.2244 70.2261 53.2244 72.4799C53.2244 74.5963 54.8181 75.7528 56.7734 75.7528C57.499 75.7528 58.2558 75.6189 58.8554 75.3798C59.2156 75.222 59.3722 75.1343 59.8407 74.8275C60.1241 75.24 60.689 75.6531 60.9195 75.7283L62.733 74.4914ZM59.1315 73.2635C58.5083 73.4752 58.0988 73.5244 57.6059 73.5244C56.5924 73.5244 56.0158 73.1307 56.0158 72.1028C56.0158 71.0343 56.7439 70.6742 58.1488 70.6742C58.4866 70.6742 58.8257 70.7242 58.986 70.7787V71.5434C58.986 72.3706 59.0264 72.9104 59.1315 73.2635Z" fill="#989898"/>
<path fill-rule="evenodd" clip-rule="evenodd" d="M94.0054 74.4914C93.255 73.3672 93.0607 72.7051 93.0607 71.2934V68.4244C93.0607 66.8753 92.8809 66.3062 92.4653 65.7381C91.8894 64.9429 90.9314 64.5981 89.1606 64.5981C87.9112 64.5981 86.6878 64.7332 85.5165 65.0256L85.9359 67.0792C86.7296 66.9698 87.5654 66.8753 88.1638 66.8753C90.0367 66.8753 90.2549 67.146 90.2549 68.5338V69.0534C89.8382 68.9424 89.3697 68.8621 88.8232 68.8621C85.9896 68.8621 84.4975 70.2261 84.4975 72.4799C84.4975 74.5963 86.0924 75.7528 88.043 75.7528C88.7709 75.7528 89.5256 75.6189 90.1239 75.3798C90.4873 75.222 90.6442 75.1343 91.1112 74.8275C91.3939 75.24 91.961 75.6531 92.1912 75.7283L94.0054 74.4914ZM90.4032 73.2635C89.7807 73.4752 89.3697 73.5244 88.8764 73.5244C87.8605 73.5244 87.29 73.1307 87.29 72.1028C87.29 71.0343 88.0156 70.6742 89.4203 70.6742C89.7621 70.6742 90.0988 70.7242 90.2549 70.7787V71.5434C90.2549 72.3706 90.2996 72.9104 90.4032 73.2635Z" fill="#989898"/>
<path fill-rule="evenodd" clip-rule="evenodd" d="M26.465 64.7703L26.4532 74.9531C27.7963 75.5113 29.2731 75.7658 30.5844 75.7658C33.5951 75.7658 35.2056 74.2278 35.2056 71.6968C35.2056 69.4075 33.7799 67.9905 31.114 67.9905C30.437 67.9905 30.0406 68.0792 29.2982 68.2548V64.7703H26.465ZM32.275 71.8284C32.275 72.8762 31.8994 73.5977 30.5373 73.5977C30.0795 73.5977 29.8905 73.5977 29.2959 73.4319V70.3621C30.0349 70.2197 30.1011 70.1947 30.5373 70.1947C31.8392 70.1947 32.275 70.8204 32.275 71.8284Z" fill="#989898"/>
<path fill-rule="evenodd" clip-rule="evenodd" d="M101.53 75.5113V71.1662H98.3214V75.5113H95.4901V64.8661H98.3214V68.8905H101.53V64.8661H104.366V75.5113H101.53Z" fill="#989898"/>
<path fill-rule="evenodd" clip-rule="evenodd" d="M112.911 75.5113C112.911 75.5113 111.956 73.2036 111.45 72.196C111.02 71.355 110.882 71.1566 110.073 71.1566L109.685 71.1633V75.5113H106.838V64.8662H109.685V68.8895H110.162C110.895 68.8895 111.029 68.6401 111.301 68.0792C111.567 67.5306 111.776 67.0949 112.043 66.558C112.292 66.0543 112.495 65.6242 112.789 65.3377C113.163 64.9583 113.564 64.7447 114.329 64.6981C114.794 64.6733 115.242 64.6744 115.649 64.7264L115.506 66.664C115.506 66.664 115.124 66.5701 114.847 66.8183C114.562 67.063 114.42 67.2878 113.935 68.3258C113.432 69.3921 112.968 69.7418 112.382 69.8512V69.9008C113.256 70.1041 113.649 70.6805 114.076 71.5175C114.454 72.2525 116 75.5113 116 75.5113H112.911Z" fill="#989898"/>
<path fill-rule="evenodd" clip-rule="evenodd" d="M4.85323 70.0967C4.85323 70.0967 5.75744 67.1138 5.8953 66.6486C6.25866 65.4342 6.80462 63.5239 6.80462 63.5239H6.89438C6.89438 63.5239 7.39654 65.5041 7.72523 66.631C7.85436 67.0663 8.71517 70.0967 8.71517 70.0967H4.85323ZM10.3489 75.5113H13.6133L8.6813 60.6301C8.16288 60.4572 7.51385 60.3496 6.83002 60.3496C6.08236 60.3496 5.81643 60.4473 5.22988 60.6301L0 75.5113H3.12651C3.12651 75.5113 3.5471 74.2082 4.05934 72.5905H9.46713C9.95545 74.2075 10.3489 75.5113 10.3489 75.5113Z" fill="#989898"/>
<path fill-rule="evenodd" clip-rule="evenodd" d="M69.3565 70.1839C69.3565 71.1769 68.5464 71.9728 67.5496 71.9728C66.5512 71.9728 65.7406 71.1769 65.7406 70.1839C65.7406 69.2034 66.5512 68.3977 67.5496 68.3977C68.5464 68.3977 69.3565 69.2034 69.3565 70.1839Z" fill="#989898"/>
</svg>
