<svg width="114" height="102" viewBox="0 0 114 102" fill="none" xmlns="http://www.w3.org/2000/svg">
<path d="M99.171 87.5999L98.7111 89.8617C97.6363 94.7769 97.2349 96.361 96.3021 101.251L96.0956 101.428L93.123 101.513L92.9786 101.311L94.1732 96.2741L94.5265 94.6257C93.2466 94.596 91.9688 94.5737 90.6938 94.5737C89.6944 94.5737 88.9356 94.5848 88.1611 94.6082C87.7225 96.5876 87.3577 98.3303 86.7956 101.251L86.5895 101.428L83.6141 101.513L83.4696 101.311L84.6643 96.2741L85.1363 94.0803C85.9233 90.624 86.0667 89.8677 86.5324 86.6728L86.7413 86.4707C88.1078 86.2947 88.4305 86.2353 89.8288 85.9452L89.9798 86.1498L89.6645 87.5999L89.2099 89.8617L88.7368 91.9996C89.8079 92.023 90.8803 92.0429 91.9576 92.0429C93.0934 92.0429 93.8422 92.0217 95.1071 91.9958C95.5161 90.1219 95.6818 89.102 96.0428 86.6728L96.2464 86.4707C97.6178 86.2947 97.9353 86.2353 99.3367 85.9452L99.4811 86.1498L99.171 87.5999Z" fill="#989898"/>
<path d="M63.3323 94.1732C63.5377 93.3233 63.6835 92.4717 63.6835 91.6477C63.6835 88.6756 61.7795 88.1774 60.6935 88.1774C56.0908 88.1774 55.5005 95.3509 55.5005 96.4378C55.5005 98.795 56.9088 99.8237 58.4929 99.8237C61.6323 99.8237 62.805 96.5876 63.3323 94.1732ZM66.3843 95.088C65.7379 97.6201 63.9453 102 58.4348 102C54.5342 102 52.3942 99.9724 52.3942 95.9731C52.3942 95.4564 52.4339 94.8785 52.5212 94.2762C52.5376 94.1274 52.5609 93.9801 52.5821 93.8265C53.6407 87.1969 56.5071 80.9134 62.7925 80.8513C63.6289 80.8401 65.3293 80.7535 66.4842 80.4808L66.063 83.1281C64.8991 83.4256 63.0556 83.5827 61.9797 83.589C60.6437 83.6016 59.721 84.1135 59.0822 84.7294C58.7658 85.0328 58.5187 85.3663 58.3297 85.67C58.1393 85.9724 58.0011 86.2476 57.8998 86.4532C58.7411 86.1931 59.6569 86.0269 60.6935 86.0269C64.5322 86.0269 66.8229 88.1774 66.8229 91.9672C66.8229 92.9972 66.6475 94.0559 66.3843 95.088Z" fill="#989898"/>
<path d="M104.203 92.375C104.9 91.7654 105.306 91.3823 106.269 90.448C107.285 89.455 109.77 86.8785 110.234 86.3802L110.558 86.2077H113.914L114 86.4707C113.708 86.7308 113.561 86.8513 112.392 87.8439C111.927 88.227 111.638 88.5195 111.083 89.0164L107.285 92.5276L111.813 101.167L111.638 101.399L108.397 101.49L108.163 101.311C107.403 99.4955 107.202 99.0876 106.153 96.9473L104.108 92.794C103.466 95.6693 103.069 97.4836 102.348 101.251L102.141 101.428L99.1685 101.513L99.0227 101.311L100.218 96.2741L100.684 94.0803C101.469 90.624 101.619 89.8677 102.085 86.6728L102.288 86.4707C103.662 86.2947 103.98 86.2353 105.382 85.9452L105.532 86.1498L105.215 87.5999L104.758 89.8617L104.203 92.375Z" fill="#989898"/>
<path d="M78.3841 97.7095C78.0653 97.9686 77.7426 98.2682 77.4179 98.4693C76.6566 98.9389 75.6607 99.1459 74.8702 99.1459C72.1991 99.1459 71.4364 96.8841 71.4364 95.4797C71.4364 95.3348 71.4959 91.5457 74.5747 89.4364C76.3057 88.2654 78.2122 88.2057 79.1774 88.2057C79.6209 88.2057 80.0556 88.2318 80.4956 88.2318L78.3841 97.7095ZM83.9862 86.2622L83.8428 86.0269L79.7925 85.9996C77.0966 85.9996 73.3157 86.1721 70.5888 89.3781C69.3559 90.8418 68.2427 93.3677 68.2427 95.683C68.2427 99.3492 70.6765 101.469 73.6641 101.469C76.1575 101.469 77.4488 100.38 77.9452 99.9724L77.7426 101.144L77.8874 101.352L80.6415 101.294L80.85 101.084C81.4347 97.5904 81.6422 96.4773 82.6676 91.9585L83.9862 86.2622Z" fill="#989898"/>
<path d="M6.44895 101.92C3.2699 101.92 -1.30669 100.908 0.351242 93.545C0.97151 90.7811 2.87552 84.9228 10.7053 84.9228C18.3238 84.9228 17.1884 91.1826 16.7198 93.3914C15.3164 99.6166 11.5257 101.92 6.44895 101.92ZM7.48658 98.6676C9.71919 98.6676 10.7645 96.3338 11.4418 93.3293C11.9198 91.2137 12.4377 88.1117 9.74286 88.1117C7.44725 88.1117 6.43015 90.3202 5.75556 93.3293C5.12414 96.1218 4.97864 98.6676 7.48658 98.6676Z" fill="#989898"/>
<path d="M25.0672 101.554C23.5969 101.554 21.1816 101.554 20.1648 101.582L19.9929 101.403C20.2759 100.419 20.963 97.779 21.6894 94.5562C22.2738 91.9487 22.7963 89.6498 22.9979 88.6037C21.767 88.632 19.8707 88.632 18.9465 88.6669L18.7798 88.4501C19.0217 87.6543 19.3663 86.2748 19.5814 85.4431L19.863 85.2884C20.681 85.3205 23.7946 85.3516 26.3005 85.3516C29.3312 85.3516 32.2767 85.2884 32.897 85.2559L33.1059 85.4148C32.8799 86.1498 32.4845 87.6543 32.2767 88.419L31.9916 88.6037C30.7768 88.5737 29.8575 88.5737 28.1119 88.5737C27.9598 89.2468 27.4878 91.2137 26.6994 94.7102C26.1052 97.3499 25.6182 99.773 25.3356 101.307L25.0672 101.554Z" fill="#989898"/>
<path d="M42.0638 88.9693C41.0839 88.9693 39.9756 89.0014 39.4862 89.0014C39.3331 89.6756 38.7375 92.1917 38.1826 94.648C37.5366 97.5321 36.957 100.235 36.7336 101.366L36.4457 101.554C34.9455 101.554 33.0206 101.554 31.481 101.582L31.3118 101.403C31.6268 100.14 32.4299 96.7057 33.1998 93.2957C33.9733 89.8628 34.6416 86.4867 34.8581 85.5349L35.116 85.3205C36.768 85.3205 38.4346 85.3837 42.5368 85.3837C45.7493 85.3837 48.8566 85.2884 50.5173 85.2559L50.6593 85.4431C50.4432 86.2748 49.519 90.2283 48.637 94.1561C47.9238 97.3177 47.269 100.476 47.1009 101.366L46.8774 101.554C45.5603 101.554 43.1435 101.554 41.8845 101.582L41.7488 101.366C42.0192 100.294 42.6099 97.8097 43.3015 94.7385C43.8258 92.4099 44.3555 89.9235 44.5668 89.0014C44.075 89.0014 42.9831 88.9693 42.0638 88.9693Z" fill="#989898"/>
<path fill-rule="evenodd" clip-rule="evenodd" d="M21.9735 34.999C21.9735 15.6858 37.5738 0.0209497 56.8249 0V12.648C44.5348 12.6666 34.5838 22.6648 34.5838 34.999C34.5838 47.3422 44.5581 57.3474 56.8632 57.3474C69.0952 57.3474 79.1464 47.4375 79.1464 34.9099L91.7551 34.9235C91.7551 54.3286 76.1327 69.9969 56.8632 69.9969C37.5958 69.9969 21.9735 54.3286 21.9735 34.999Z" fill="#989898"/>
<path d="M41.4731 34.999C41.4731 26.4249 48.402 19.4731 56.9509 19.4731C65.496 19.4731 72.4274 26.4249 72.4274 34.999C72.4274 43.5705 65.496 50.5209 56.9509 50.5209C48.402 50.5209 41.4731 43.5705 41.4731 34.999Z" fill="#989898"/>
<path d="M67.683 15.3338C67.683 10.4183 71.654 6.4375 76.5529 6.4375C81.4532 6.4375 85.4217 10.4183 85.4217 15.3338C85.4217 20.2479 81.4532 24.2325 76.5529 24.2325C71.654 24.2325 67.683 20.2479 67.683 15.3338Z" fill="#989898"/>
</svg>
