<svg width="136" height="90" viewBox="0 0 136 90" fill="none" xmlns="http://www.w3.org/2000/svg">
<path d="M63.9804 85.8231L63.0652 88.1096H64.8824L63.9804 85.8231ZM65.4132 89.9995C65.4663 89.9069 65.5192 89.6823 65.3731 89.3122L65.1213 88.7044H62.8265L62.5876 89.3122C62.4417 89.6823 62.4949 89.907 62.5481 89.9995H61.5397C61.659 89.8674 61.7654 89.7088 61.9379 89.3122L63.6491 85.0165L63.6359 84.9913C63.5295 84.7138 63.4236 84.5674 63.3043 84.4493H64.538L66.4876 89.3127C66.647 89.7093 66.7665 89.8679 66.8858 90L65.4132 89.9995ZM56.0347 83.2593C56.4326 83.5634 56.4326 83.9332 56.4326 84.2107V88.9689C56.4326 89.2335 56.4326 89.6298 56.0347 89.9339H58.3687C58.8866 89.9339 60.9024 89.8674 60.9024 87.7924C60.9024 86.5499 60.08 85.8232 58.6873 85.8232C58.3953 85.8232 57.8384 85.8757 57.5464 85.8891V84.0122H59.3637C59.6692 84.0122 60.0008 84.0387 60.2792 84.3558V83.2195C60.1728 83.2457 60.08 83.2591 59.9608 83.2591L56.0347 83.2593ZM57.5469 86.5767C57.7592 86.5631 58.0642 86.5368 58.29 86.5368C58.6612 86.5368 59.908 86.5368 59.908 87.7789C59.908 88.3207 59.7092 89.2196 58.4485 89.2196C58.0507 89.2196 57.6925 89.1667 57.5465 89.1406L57.5469 86.5767ZM71.8863 86.4311V85.149C71.8863 84.8453 71.8201 84.5676 71.5282 84.3427H73.2525C72.9344 84.5677 72.8813 84.8453 72.8813 85.149V89.1273C72.8813 89.4183 72.9343 89.6956 73.2522 89.9337H71.5278C71.8197 89.6956 71.886 89.4184 71.886 89.1274V87.2506H69.3523V89.1274C69.3523 89.4184 69.4185 89.6958 69.7241 89.9339H67.9993C68.3048 89.6958 68.3574 89.4186 68.3574 89.1276V85.1493C68.3574 84.8455 68.3046 84.568 67.9991 84.343H69.7239C69.4184 84.568 69.3523 84.8456 69.3523 85.1493V86.4314L71.8863 86.4311ZM77.4313 85.5186C77.7895 85.0694 77.8688 84.8579 77.8688 84.7123C77.8688 84.5536 77.7629 84.4481 77.63 84.342H79.3282L77.3249 86.7875C77.5243 86.9592 77.6039 87.0782 77.723 87.2499L79.1295 89.0871C79.3286 89.3646 79.5674 89.6288 79.9653 89.933H79.5539C78.506 89.9724 78.4797 89.9988 78.1215 89.5098L76.2779 86.9853L77.4313 85.5186ZM76.4364 84.3421C76.1313 84.5671 76.0651 84.8448 76.0651 85.1485V89.1267C76.0651 89.4177 76.1314 89.695 76.4364 89.933H74.712C75.017 89.6949 75.0702 89.4177 75.0702 89.1267V85.1488C75.0702 84.8451 75.0171 84.5674 74.712 84.3424L76.4364 84.3421Z" fill="#989898"/>
<path d="M48.5493 71.4835L48.8809 71.9462C49.0269 72.1578 49.0535 72.5014 49.0535 72.7525V72.8189C48.9341 72.9509 46.838 75.4226 46.0953 76.295V72.7528C46.0953 72.2242 46.2414 72.0257 46.294 71.9597L46.6392 71.4839H43.3495L43.7077 71.9597C43.827 72.118 43.8799 72.3825 43.8799 72.7527V78.6605C43.8799 79.1362 43.7738 79.3477 43.6941 79.4668L43.376 79.9294H46.6127L46.2941 79.4668C46.2414 79.3743 46.0954 79.1761 46.0954 78.6605V78.5679C46.2148 78.4358 48.3105 75.9511 49.0534 75.0788V78.6605C49.0534 79.2025 48.9206 79.4006 48.8809 79.4667L48.5625 79.9294H51.7327L51.4411 79.4667C51.4014 79.4008 51.2689 79.1891 51.2689 78.6604V72.7526C51.2689 72.3953 51.322 72.1177 51.4415 71.946L51.7598 71.4834L48.5493 71.4835Z" fill="#989898"/>
<path d="M49.1204 79.6383C49.2264 79.4797 49.3457 79.2286 49.3457 78.6603V74.2727L45.8039 78.4622V78.6603C45.8039 79.2288 45.9496 79.4798 46.0557 79.6385H43.9468C44.0395 79.4798 44.1852 79.2288 44.1852 78.6605V72.7528C44.1852 72.1846 44.0395 71.92 43.9467 71.7879H46.0555C45.9496 71.92 45.8037 72.1846 45.8037 72.7528V77.1144L49.3453 72.9246V72.753C49.3453 72.1846 49.2259 71.9201 49.1199 71.788H51.2025C51.1096 71.92 50.9637 72.1845 50.9637 72.7528V78.6605C50.9637 79.229 51.1096 79.48 51.2025 79.6384L49.1204 79.6383Z" fill="#989898"/>
<path d="M33.7327 71.4836L34.0377 71.9462C34.0908 72.0253 34.2235 72.2369 34.2235 72.7526V78.6604C34.2235 79.1629 34.0905 79.3741 34.0373 79.4799L33.7588 79.9296H36.9292L36.6372 79.4799C36.5844 79.3741 36.4516 79.1628 36.4516 78.6604V72.7529C36.4516 72.2374 36.5845 72.0257 36.6372 71.9466L36.9428 71.484L33.7327 71.4836Z" fill="#989898"/>
<path d="M38.9062 71.4836L39.2509 71.9593L39.304 72.0918C39.304 72.1843 39.238 72.3163 39.0121 72.541L35.8288 75.5544L38.5877 78.8454C38.8134 79.136 38.8796 79.2685 38.8796 79.3476L38.8395 79.4541L38.4949 79.9297H42.5935L41.9433 79.401C41.7446 79.2424 41.3994 78.8723 41.0678 78.4756C41.0678 78.4756 38.9721 75.9645 38.362 75.2247C38.7068 74.9072 40.7498 72.9643 40.7498 72.9643L42.3946 71.5105L41.6385 71.4841L38.9062 71.4836Z" fill="#989898"/>
<path d="M41.7583 79.6384C41.546 79.4667 41.1878 79.0835 40.843 78.6604L37.9643 75.198L40.5511 72.753C41.1215 72.2109 41.3071 72.0259 41.6388 71.7881H39.4899C39.6491 72.0127 39.7022 72.2769 39.2245 72.753L36.2268 75.5813L38.8133 78.6607C39.2509 79.1896 39.2509 79.4012 39.0782 79.6389L41.7583 79.6384ZM36.1471 72.7527C36.1471 72.1845 36.3066 71.9199 36.3995 71.7878H34.2902C34.383 71.9199 34.5291 72.1845 34.5291 72.7527V78.6604C34.5291 79.2287 34.383 79.4799 34.2902 79.6384H36.3994C36.3066 79.4798 36.1471 79.2286 36.1471 78.6604L36.1471 72.7527Z" fill="#989898"/>
<path d="M58.2607 71.4835L58.5789 71.9461C58.6983 72.1178 58.7645 72.3954 58.7645 72.7525V72.8188C58.6452 72.9509 56.5494 75.4226 55.8065 76.2949V72.7528C55.8065 72.2506 55.9393 72.0256 55.9924 71.9331L56.2709 71.4838H53.074L53.4054 71.9464C53.5247 72.118 53.5779 72.3957 53.5779 72.7528V78.6606C53.5779 79.1363 53.4847 79.3478 53.4052 79.4668L53.0868 79.9295H56.2571L56.0053 79.4799C55.9255 79.3613 55.8061 79.1497 55.8061 78.6604V78.568C55.9124 78.4358 58.0215 75.9511 58.7641 75.0787V78.6605C58.7641 79.1892 58.6317 79.3873 58.5785 79.4668L58.2735 79.9294H61.4436L61.1517 79.4799C61.0991 79.3742 60.9662 79.1626 60.9662 78.6604V72.7527C60.9662 72.224 61.0991 72.0255 61.1519 71.9464L61.4574 71.4838L58.2607 71.4835ZM58.8708 68.523H57.5974L57.9155 68.9853C58.0084 69.1439 58.0484 69.2364 58.0484 69.395C58.0484 69.5011 57.8624 69.8712 57.2788 69.8712C56.7084 69.8712 56.5097 69.501 56.5097 69.395C56.5097 69.2364 56.5625 69.1439 56.6553 68.9853L56.9607 68.523H55.581L55.5014 68.6021C55.236 68.8266 55.0638 69.2102 55.0638 69.5538C55.0638 70.2013 55.7402 70.849 57.2788 70.849C58.9239 70.849 59.494 70.1489 59.494 69.554C59.494 69.2106 59.3218 68.8268 59.0695 68.6023L58.9767 68.5234L58.8708 68.523Z" fill="#989898"/>
<path d="M58.8301 79.6384C58.9229 79.4798 59.0553 79.2287 59.0553 78.6604V74.2728L55.5003 78.4626V78.6607C55.5003 79.229 55.6597 79.4801 55.7391 79.6387H53.6434C53.7494 79.4799 53.8822 79.2289 53.8822 78.6607V72.7531C53.8822 72.1848 53.7493 71.9203 53.6434 71.7882H55.7391C55.6598 71.9201 55.5003 72.1847 55.5003 72.753V77.1145L59.0554 72.9248V72.7532C59.0554 72.1849 58.9229 71.9203 58.8301 71.7882H60.9127C60.8065 71.9202 60.6609 72.1847 60.6609 72.7531V78.6607C60.6609 79.2292 60.8068 79.4802 60.913 79.6388L58.8301 79.6384ZM57.2779 70.5453C55.9247 70.5453 55.3542 70.03 55.3542 69.5542C55.3542 69.3032 55.4871 68.999 55.6858 68.827H56.4019C56.2959 69.0122 56.2161 69.1576 56.2161 69.3953C56.2161 69.6598 56.5478 70.1621 57.2773 70.1621C58.0204 70.1621 58.3385 69.6599 58.3385 69.3953C58.3385 69.1576 58.2857 69.0121 58.1528 68.8271H58.8692C59.0679 68.999 59.2009 69.3031 59.2009 69.5543C59.2009 70.03 58.6436 70.5454 57.2772 70.5454L57.2779 70.5453Z" fill="#989898"/>
<path d="M3.55509 71.7482C5.39878 71.7744 5.61115 72.7658 5.61115 73.5191C5.61115 74.8807 4.97443 75.5015 3.6213 75.5015H2.91836V71.7482H3.55509ZM0 70.1621L0.318459 70.6247C0.371341 70.7038 0.556979 70.9684 0.556979 71.5762V78.4887C0.556979 79.0965 0.384804 79.3746 0.318782 79.4669L0.0132691 79.9295H3.43605L3.13106 79.4669C2.98503 79.2552 2.91875 78.9253 2.91875 78.4891V77.1146H3.90008C5.95608 77.1146 8.03875 76.0041 8.03875 73.5328C8.03875 71.4445 6.4471 70.1624 3.90008 70.1624L0 70.1621Z" fill="#989898"/>
<path d="M3.46228 71.4442H2.61331V75.8057H3.62131C4.7888 75.8057 5.90295 75.3426 5.90295 73.5189C5.90295 71.8536 4.69598 71.4442 3.46228 71.4442ZM3.89984 76.81H2.61331V78.4888C2.61331 79.1495 2.77241 79.4799 2.87837 79.6384H0.556926C0.663403 79.4797 0.848976 79.1493 0.848976 78.4886V71.5761C0.848976 70.9283 0.663338 70.5979 0.557056 70.4527H3.8999C6.28769 70.4527 7.73351 71.6419 7.73351 73.5325C7.73351 75.7923 5.88968 76.81 3.89984 76.81Z" fill="#989898"/>
<path d="M32.4597 71.4836C32.2871 71.5761 32.1415 71.6026 31.8626 71.6026L31.2128 71.51C30.8412 71.4305 30.3905 71.3384 29.7935 71.3384C27.0743 71.3384 25.3233 73.0431 25.3233 75.6999C25.3233 78.3564 27.0211 80.074 29.6607 80.074C30.9607 80.074 32.0885 79.5458 32.8178 78.5809L32.9107 78.4354L32.3668 77.1928L32.0618 77.5894C31.4381 78.3692 30.7749 78.7259 29.8863 78.7259C28.7986 78.7259 27.6312 77.7744 27.6312 75.6994C27.6312 74.1927 28.3211 72.6859 29.8863 72.6859C30.7353 72.6859 31.3323 72.9106 31.7166 73.3994L32.0351 73.7695L33.1892 71.1263L32.4597 71.4836Z" fill="#989898"/>
<path d="M29.886 72.3816C28.1084 72.3816 27.3258 74.0599 27.3258 75.699C27.3258 78.0911 28.7586 79.0295 29.886 79.0295C31.0133 79.0295 31.7297 78.4877 32.2867 77.7609L32.5788 78.4082C31.8758 79.3335 30.8008 79.7828 29.6602 79.7828C26.9807 79.7828 25.6141 77.9455 25.6141 75.6989C25.6141 73.267 27.2195 71.6412 29.7929 71.6412C30.7612 71.6412 31.3447 71.8923 31.8621 71.8923C32.1672 71.8923 32.3532 71.8659 32.5916 71.7471L31.9549 73.2009C31.4908 72.6457 30.8011 72.3816 29.886 72.3816Z" fill="#989898"/>
<path d="M14.9497 71.4836L15.0825 71.8802L15.1222 72.0389C15.1222 72.1712 15.0691 72.3298 14.9365 72.6339C14.9365 72.6339 13.8353 75.2772 13.318 76.5198C12.9067 75.5813 11.6333 72.6339 11.6333 72.6339C11.4874 72.2903 11.4477 72.1182 11.4477 72.0257L11.4742 71.8937L11.6333 71.484H7.99881L8.67521 72.0127C8.86085 72.1582 9.04688 72.528 9.20598 72.8716C9.20598 72.8716 11.7397 78.4095 12.1245 79.2819C11.514 80.7095 10.9701 81.3044 10.2672 81.3044C9.65687 81.3044 9.20572 81.0134 8.83438 80.3925L8.55553 79.8899L7.78631 81.5423L7.93234 81.6878C8.29054 82.0577 9.08643 82.6787 10.2137 82.6787C12.1503 82.6787 12.9328 81.2249 13.7025 79.4673L16.5278 72.8718C16.7138 72.4225 16.8333 72.2111 17.0189 71.9732L17.4168 71.4841L14.9497 71.4836Z" fill="#989898"/>
<path d="M16.263 72.7519L13.4243 79.3469C12.6016 81.2767 11.8721 82.4002 10.2138 82.4002C9.21894 82.4002 8.50286 81.8451 8.1312 81.4884L8.58222 80.5366C9.00664 81.2773 9.564 81.6071 10.2669 81.6071C11.2221 81.6071 11.8322 80.7612 12.4558 79.281L9.4717 72.7524C9.2726 72.3162 9.0869 71.9594 8.86132 71.7878H11.196C11.1163 71.9994 11.1163 72.1711 11.3551 72.7528L13.3183 77.2866L15.2155 72.7528C15.4146 72.2768 15.4675 72.0522 15.3615 71.788H16.7939C16.5687 72.0522 16.4357 72.3168 16.2635 72.753L16.263 72.7519Z" fill="#989898"/>
<path d="M24.4083 71.4836C24.2227 71.5761 24.0767 71.6026 23.7982 71.6026L23.1484 71.5101C22.7768 71.4306 22.3257 71.3384 21.7291 71.3384C19.0495 71.3384 17.2589 73.0828 17.2589 75.7C17.2589 78.3564 18.9567 80.0741 21.5963 80.0741C22.9097 80.0741 24.0241 79.5458 24.7534 78.581L24.8463 78.4355L24.3024 77.1929L23.9973 77.5894C23.374 78.3692 22.7106 78.7259 21.8355 78.7259C20.9865 78.7259 19.5541 78.0916 19.5541 75.6994C19.5541 74.2982 20.1508 72.6859 21.8355 72.6859C22.6712 72.6859 23.2814 72.9106 23.666 73.3864L23.9712 73.7696L25.1253 71.1529L24.4083 71.4836Z" fill="#989898"/>
<path d="M21.8341 72.3816C20.0435 72.3816 19.2608 74.0599 19.2608 75.699C19.2608 78.0911 20.6801 79.0295 21.8342 79.0295C22.9488 79.0295 23.6517 78.4877 24.2219 77.7609L24.5139 78.4082C23.8109 79.3335 22.7494 79.7828 21.5958 79.7828C18.9166 79.7828 17.55 77.9455 17.55 75.6989C17.55 73.267 19.155 71.6412 21.7288 71.6412C22.6972 71.6412 23.2806 71.8923 23.7979 71.8923C24.1029 71.8923 24.2886 71.8659 24.5274 71.7471L23.8907 73.2009C23.4395 72.6457 22.7493 72.3816 21.8341 72.3816Z" fill="#989898"/>
<path d="M74.3966 70.1966C74.1711 70.3023 74.0252 70.3287 73.6539 70.3287L72.8712 70.2227C72.4467 70.1306 71.9029 70.0246 71.213 70.0246C68.0559 70.0246 65.9999 72.0204 65.9999 75.0998C65.9999 78.1531 68.0428 80.2015 71.0803 80.2015C72.5928 80.2015 73.8927 79.5802 74.7282 78.4567L74.8347 78.3247L74.2376 76.9632L73.9192 77.3594C73.2031 78.2978 72.3938 78.721 71.3327 78.721C70.1918 78.721 68.507 77.756 68.507 75.0994C68.507 73.368 69.3957 71.5042 71.3323 71.5042C72.3403 71.5042 73.0567 71.7953 73.5344 72.3766L73.8393 72.7467L75.0861 69.8919L74.3966 70.1966Z" fill="#989898"/>
<path d="M71.3324 71.2147C69.2498 71.2147 68.2019 73.1711 68.2019 75.1006C68.2019 77.9158 70.006 79.0132 71.3325 79.0132C72.6458 79.0132 73.4948 78.3919 74.1578 77.533L74.5033 78.2864C73.6809 79.3833 72.4207 79.8987 71.0807 79.8987C67.9369 79.8987 66.3053 77.7446 66.3053 75.1009C66.3053 72.2464 68.1891 70.3298 71.2136 70.3298C72.3677 70.3298 73.0439 70.6205 73.6544 70.6205C74.0258 70.6205 74.238 70.594 74.5165 70.4753L73.7605 72.1802C73.2168 71.5324 72.4209 71.2153 71.3332 71.2153L71.3324 71.2147Z" fill="#989898"/>
<path d="M82.6873 71.585H75.4316L74.3701 74.017L75.2324 73.4088C75.7893 73.0256 76.2272 73.0256 76.7314 73.0387H77.7128V78.7487C77.7128 79.264 77.5669 79.4621 77.5141 79.5546L77.2086 80.0173H80.4191L80.1141 79.5547C80.0609 79.4756 79.9149 79.2774 79.9149 78.7487V73.0387H80.8969C81.3344 73.0387 81.6529 73.0651 81.8917 73.3559L82.1967 73.7525L83.1385 71.5845L82.6873 71.585Z" fill="#989898"/>
<path d="M82.1168 73.1702C81.7984 72.747 81.3211 72.734 80.8966 72.734H79.6233V78.7476C79.6233 79.3158 79.7692 79.58 79.8621 79.7121H77.7529C77.8461 79.5801 78.0052 79.3158 78.0052 78.7475V72.734H76.9305C76.347 72.734 75.7766 72.6678 75.0603 73.1702L75.6307 71.8746H82.6879L82.1168 73.1702Z" fill="#989898"/>
<path d="M86.4676 74.5585C86.7596 75.2324 87.2107 76.2633 87.423 76.7656H85.4861C85.7115 76.2634 86.1625 75.2325 86.4676 74.5585ZM87.3432 71.5846H84.5842L85.2075 72.1C85.3138 72.1922 85.4729 72.351 85.6319 72.6942C85.5121 72.9454 82.9923 78.6289 82.9923 78.6289C82.7535 79.1575 82.5807 79.3687 82.435 79.5143L81.9705 80.0164H84.7827L84.4645 79.5537C84.4509 79.5405 84.3452 79.3424 84.5439 78.8664C84.5439 78.8664 84.7431 78.4306 84.8491 78.1792H88.0725C88.1654 78.4042 88.3645 78.8665 88.3645 78.8665C88.4704 79.1046 88.497 79.2631 88.497 79.3686C88.497 79.4876 88.4704 79.5406 88.4572 79.5672L88.1787 80.0163H91.7202L91.216 79.5141C91.0704 79.3686 90.911 79.184 90.6325 78.6289L87.6085 71.7566L87.5424 71.5849L87.3432 71.5846Z" fill="#989898"/>
<path d="M86.4676 73.8322L85.0352 77.0571H87.8871L86.4676 73.8322ZM88.7093 79.7134C88.789 79.5813 88.8688 79.2776 88.63 78.7488L88.2718 77.8896H84.6635L84.279 78.7488C84.0533 79.2776 84.1331 79.5812 84.2259 79.7135H82.6606C82.8196 79.5418 83.0053 79.3171 83.2707 78.7488L85.9502 72.6821L85.9237 72.629C85.7647 72.2458 85.5921 72.0342 85.4065 71.8757H87.3432L90.3675 78.7487C90.6465 79.3169 90.8186 79.5415 91.0044 79.7132L88.7093 79.7134Z" fill="#989898"/>
<path d="M97.0795 71.5851L97.3711 72.0343C97.4242 72.1142 97.5702 72.3389 97.5702 72.8538V74.9425H94.851V72.8541C94.851 72.3256 94.9967 72.1007 95.0363 72.0346L95.3282 71.5855H92.0912L92.4363 72.0482C92.5556 72.2067 92.6219 72.4843 92.6219 72.8541V78.749C92.6219 79.2909 92.4894 79.489 92.4363 79.5549L92.1046 80.0178H95.3282L95.0363 79.5685C94.9832 79.4758 94.8505 79.2643 94.8505 78.749V76.3965H97.5697V78.749C97.5697 79.2512 97.437 79.4624 97.3707 79.5685L97.0921 80.0176H100.289L99.9839 79.5549C99.9176 79.4624 99.7716 79.2512 99.7716 78.749V72.8541C99.7716 72.3916 99.8911 72.167 99.9705 72.048L100.302 71.5853L97.0795 71.5851Z" fill="#989898"/>
<path d="M97.6234 79.7131C97.7162 79.581 97.8617 79.3169 97.8617 78.7486V76.105H94.5458V78.7486C94.5458 79.3169 94.6914 79.581 94.7846 79.7131H92.6753C92.7813 79.581 92.9272 79.3169 92.9272 78.7486V72.8536C92.9272 72.2853 92.7813 72.0077 92.6753 71.8756H94.7845C94.6913 72.0077 94.5457 72.2853 94.5457 72.8536V75.2326H97.8617V72.8536C97.8617 72.2853 97.7162 72.0077 97.6234 71.8756H99.7322C99.6394 72.0077 99.4803 72.2853 99.4803 72.8536V78.7485C99.4803 79.3169 99.6394 79.581 99.7322 79.7132L97.6234 79.7131Z" fill="#989898"/>
<path d="M104.521 76.3548V73.183L104.693 73.0374H106.444V78.3904L106.285 78.5623H104.136C104.401 78.0336 104.521 77.3328 104.521 76.3548ZM102.398 71.5837L102.743 72.0463C102.862 72.2179 102.929 72.4956 102.929 72.8522V76.3548C102.929 77.7029 102.703 78.4433 101.43 79.038L101.244 79.1041V80.994L101.722 80.6768C102.345 80.2406 103.26 80.0161 103.857 80.0161H107.041C107.612 80.0161 108.527 80.2142 109.177 80.6768L109.641 81.0074V79.0381L109.442 78.9721C108.885 78.8002 108.66 78.4964 108.66 77.9677V72.8524C108.66 72.3897 108.753 72.1652 108.845 72.0465L109.19 71.5834L102.398 71.5837Z" fill="#989898"/>
<path d="M106.737 72.7337H104.695C104.429 72.7337 104.23 72.9448 104.23 73.1829V76.3549C104.23 77.5047 104.058 78.3375 103.567 78.853H106.286C106.538 78.853 106.737 78.6413 106.737 78.3903L106.737 72.7337ZM107.043 79.712H103.859C103.262 79.712 102.267 79.937 101.551 80.4392V79.3023C102.93 78.668 103.222 77.8355 103.222 76.3548V72.8523C103.222 72.284 103.076 72.0064 102.983 71.8743H108.607C108.502 72.0064 108.356 72.2841 108.356 72.8523V77.9676C108.356 78.5358 108.594 79.0116 109.35 79.2497V80.4392C108.634 79.9369 107.639 79.712 107.043 79.712Z" fill="#989898"/>
<path d="M114.709 74.5587C115.015 75.2326 115.466 76.2634 115.691 76.7658H113.741C113.953 76.2636 114.418 75.2327 114.709 74.5587ZM115.585 71.5848H112.813L113.463 72.1001C113.569 72.1924 113.728 72.3511 113.874 72.6944C113.768 72.9325 111.248 78.629 111.248 78.629C111.009 79.1577 110.836 79.3558 110.69 79.5144L110.186 80.0166H113.052L112.72 79.5539C112.72 79.5406 112.68 79.4878 112.68 79.3558C112.68 79.25 112.707 79.0915 112.813 78.8665C112.813 78.8665 112.999 78.4307 113.105 78.1794H116.328C116.422 78.4044 116.62 78.8667 116.62 78.8667C116.713 79.0916 116.74 79.2501 116.74 79.3558C116.74 79.4748 116.713 79.5409 116.7 79.5539L116.395 80.0165H119.963L119.459 79.5144C119.326 79.3823 119.167 79.1842 118.902 78.6291L115.785 71.5843L115.585 71.5848Z" fill="#989898"/>
<path d="M114.709 73.8322L113.277 77.0571H116.142L114.709 73.8322ZM116.938 79.7134C117.031 79.5813 117.124 79.2776 116.885 78.7488L116.527 77.8896H112.919L112.534 78.7488C112.308 79.2776 112.375 79.5812 112.481 79.7135H110.902C111.074 79.5418 111.274 79.3171 111.526 78.7488L114.205 72.6821L114.179 72.629C114.02 72.2458 113.847 72.0342 113.648 71.8757H115.584L118.636 78.7487C118.887 79.3169 119.073 79.5415 119.246 79.7132L116.938 79.7134Z" fill="#989898"/>
<path d="M123.624 73.0254C124.751 73.0519 125.256 73.5011 125.256 74.4925C125.256 75.6291 124.751 76.1578 123.677 76.1578H123.08V73.0254L123.624 73.0254ZM120.387 71.5847L120.679 72.034C120.732 72.1001 120.865 72.3116 120.865 72.8534V78.7484C120.865 79.2636 120.732 79.4752 120.679 79.5678L120.4 80.0169H123.531L123.279 79.5543C123.199 79.4222 123.08 79.1976 123.08 78.7484V77.6114H123.915C125.693 77.6114 127.483 76.6468 127.483 74.5055C127.483 72.7081 126.117 71.5845 123.915 71.5845L120.387 71.5847Z" fill="#989898"/>
<path d="M123.543 72.7338H122.787V76.4474H123.676C124.658 76.4474 125.546 76.0512 125.546 74.4916C125.546 73.064 124.591 72.7338 123.543 72.7338ZM123.915 77.3068H122.787V78.7474C122.787 79.3152 122.96 79.5798 123.026 79.7116H120.93C121.023 79.5795 121.169 79.3153 121.169 78.7469V72.852C121.169 72.2837 121.023 72.0061 120.93 71.8741H123.915C125.958 71.8741 127.192 72.8655 127.192 74.5043C127.192 76.4206 125.613 77.3068 123.915 77.3068Z" fill="#989898"/>
<path d="M135.548 71.5851H128.558L127.51 74.0036L128.359 73.4092C128.929 73.026 129.367 73.026 129.871 73.0391H130.706V78.7491C130.706 79.2645 130.561 79.476 130.508 79.555L130.203 80.0178H133.44L133.108 79.5552C133.028 79.4364 132.922 79.2249 132.922 78.7493V73.0392H133.758C134.196 73.0392 134.527 73.0656 134.753 73.3563L135.058 73.753L136 71.5856L135.548 71.5851Z" fill="#989898"/>
<path d="M134.978 73.1702C134.659 72.747 134.181 72.734 133.757 72.734H132.617V78.7476C132.617 79.3158 132.762 79.58 132.868 79.7121H130.746C130.852 79.5801 130.998 79.3158 130.998 78.7475V72.734H130.069C129.472 72.734 128.915 72.6678 128.186 73.1702L128.756 71.8746H135.548L134.978 73.1702Z" fill="#989898"/>
<path d="M67.9998 60.1044C51.8761 60.1044 38.8113 47.0866 38.8113 31.0456C38.8113 14.9804 51.8761 1.9627 67.9998 1.9627C84.1235 1.9627 97.1882 14.9805 97.1882 31.0456C97.1882 47.0867 84.1235 60.1044 67.9998 60.1044ZM67.9998 0C50.7853 0 36.8435 13.8914 36.8435 31.0439C36.8435 48.1721 50.7856 62.0638 67.9998 62.0638C85.214 62.0638 99.1561 48.1724 99.1561 31.0439C99.1561 13.8918 85.2142 0 67.9998 0Z" fill="#989898"/>
<path d="M82.1797 15.4306C82.0848 16.0209 81.8004 16.0683 81.3261 15.8322C80.8993 15.572 80.7333 15.4779 80.4963 15.4306C80.2355 15.3833 79.9983 15.4779 80.188 15.8322C80.4013 16.1864 80.7333 17.1788 80.5911 17.8637C80.5911 17.8637 79.4766 15.7375 78.1251 14.6743C77.3189 14.0127 78.8601 14.2021 79.192 14.2255C80.2355 14.3202 80.3539 14.4616 80.686 14.5803C81.0179 14.6744 81.7529 14.8397 82.0137 12.8788H82.156C82.2509 13.824 82.2745 14.9111 82.1797 15.4306ZM74.3787 5.86233C73.8334 6.52403 73.1221 7.65785 73.0272 8.05939C72.9324 8.46086 72.9798 8.55558 73.2406 8.6503C73.4782 8.76838 73.4782 9.00454 73.1222 9.05184C72.7901 9.09913 71.9843 9.24063 71.2017 9.50067C70.5854 9.73683 70.4904 9.35871 70.6328 9.0992C71.842 7.1143 73.5729 6.05107 73.9996 5.8151C74.3791 5.55507 74.5209 5.67373 74.3787 5.86233ZM67.5737 18.9976C68.0242 18.8328 68.1432 19.2102 68.072 19.4937C67.6215 20.7936 67.005 22.7304 67.2422 23.5807C67.4792 24.4318 69.6132 24.9514 69.6132 24.9514C69.2102 24.975 66.8865 25.0927 66.3175 25.2108C65.7722 25.3529 64.8711 25.4476 65.0608 24.3605C65.2742 23.0379 65.9619 20.6747 65.9619 20.6747C65.3216 20.8642 64.0175 21.4784 63.567 21.762C63.0928 22.0454 62.9742 21.998 63.0928 21.6671C64.9422 17.3913 68.8309 12.8313 71.2018 10.9179L71.2493 11.0598C68.1431 14.6033 66.1514 19.4938 66.1514 19.4938C66.4832 19.305 67.1232 19.1869 67.5737 18.9976ZM85.4999 17.7222C84.8123 17.3673 83.6503 16.9659 83.5318 14.2728C83.4606 11.6029 82.5359 10.1858 79.2164 7.25625C79.2164 7.25625 79.169 7.79987 79.2639 8.10668C79.2639 8.10668 78.2205 6.92544 75.802 6.33452C75.802 6.33452 76.0864 5.27135 76.1576 4.63379C76.205 4.1376 75.8256 3.61798 74.9957 3.80672C74.0947 4.01939 70.9647 5.17734 69.8743 5.4608C68.7836 5.72019 61.5756 8.20134 57.2363 12.336C57.2363 12.336 58.161 9.76083 60.2713 7.11423C58.659 7.53977 57.2363 8.08339 55.7661 8.83897C53.4424 11.9578 50.5259 18.1 50.5259 23.2974C50.5259 23.2974 49.1268 19.045 50.2887 12.5005L50.2651 12.5245C48.7713 13.8238 47.4672 15.2651 46.329 16.895C46.0445 20.5808 46.0209 25.471 49.0321 32.275C49.0321 32.275 45.9971 30.1015 43.2229 22.7775L43.1992 22.8011C42.3456 25.1641 41.8239 27.6206 41.7053 30.2196C44.1714 34.7318 47.8704 39.2209 55.3155 43.2368C55.3155 43.2368 49.1979 42.339 42.2982 37.1652C42.9384 39.9765 44.053 42.5756 45.5469 44.9854C49.2933 46.5914 55.1026 48.6945 63.4487 48.2215C63.4487 48.2215 58.9437 50.7729 49.7201 50.0166C49.7201 50.0166 51.3089 51.9775 55.5533 54.0097C59.3946 55.8284 64.3737 54.6946 66.0572 53.6081C68.0489 52.2849 70.2303 49.048 69.1871 44.9849C69.1871 44.9849 68.3573 46.5676 66.3657 47.1819C66.3657 47.1819 67.9543 45.9534 67.9543 43.7092C67.9543 41.4648 66.1048 39.9526 63.7812 39.74C61.9554 39.598 58.8731 39.8347 57.9007 39.8347C56.9522 39.8347 55.6718 39.8347 54.7708 38.7243C54.7708 38.7243 56.0511 38.7002 57.4266 38.3934C58.5408 38.1574 60.8646 37.3063 62.2161 37.3777C62.2161 37.3777 61.7419 36.7395 60.6274 36.7634C59.9636 36.7634 59.8213 36.9762 59.3471 37.1177C58.7069 37.2597 57.5451 37.3065 56.9049 36.0546C56.9049 36.0546 57.8532 36.7869 58.6595 36.5508C59.3469 36.3619 59.4181 36.0786 59.6789 35.8892C59.9634 35.6765 60.4613 35.4877 60.9355 35.4877C61.4097 35.4877 61.8603 35.6058 62.287 35.96C62.6903 36.2907 63.5201 36.2201 63.022 35.7477C62.5478 35.2748 61.8602 34.8026 60.8643 34.7786C59.1098 34.755 56.0037 35.1335 54.9129 35.6763C54.1304 36.0544 53.5614 36.5506 53.2766 36.8816C53.1818 36.9995 52.9684 37.0229 52.9922 36.811C53.0396 35.7478 53.4664 32.8892 54.8179 31.6608C56.1934 30.3848 59.8211 29.4871 61.2674 29.2037C61.2674 29.2037 60.9117 28.3766 61.3149 27.8571C61.955 27.0774 63.9706 25.6361 75.9921 25.6361C75.9921 25.6361 75.3282 26.1323 75.0437 26.5578C75.0437 26.5578 79.7384 26.794 82.3704 28.1166C82.7737 28.3062 83.6035 28.4001 83.8643 26.5579L83.1057 26.085C83.1057 26.085 83.1767 25.8016 83.2479 25.4707C83.319 25.1166 83.2479 25.0459 82.9871 25.1873C82.7262 25.3293 82.6314 25.4708 82.6314 25.4708C82.6314 25.4708 81.9673 25.7308 81.8964 25.3295C81.8252 24.9273 81.0665 23.8881 79.5727 23.6987C79.5727 23.6987 80.3077 22.6596 82.0387 22.9199C82.0387 22.9199 82.1811 23.4154 82.5367 23.2498C82.916 23.1085 83.4139 22.8009 83.4613 23.2263C83.5087 23.6279 83.6746 24.2896 84.6468 23.25C84.6468 23.25 85.5953 23.7702 86.4726 23.4395C87.3261 23.1087 87.9427 22.5652 88.156 21.1711C88.2035 20.8642 88.2034 20.7695 88.4168 20.5094C88.6539 20.2259 88.8199 19.8244 88.4168 19.4936C87.8715 19.0448 86.1875 18.0997 85.4999 17.7222Z" fill="#989898"/>
<path d="M79.1897 41.8658C78.5258 41.0628 77.53 39.9049 77.53 39.9049C78.5021 40.4718 80.3043 40.732 80.3043 40.732C79.8299 40.3298 78.6681 38.9598 78.2176 38.4162C76.9608 36.9043 74.7557 35.2036 73.1198 34.4712C69.9188 33.0299 66.5518 32.8411 66.1015 32.7465C65.651 32.6516 64.6787 32.8411 65.2953 31.9434C65.8642 31.0216 69.3263 28.3523 69.3263 28.3523C68.6149 28.3523 65.414 28.6117 64.4653 28.7538C63.5169 28.8951 63.2798 28.5645 63.2323 27.9268C63.2323 27.9268 61.3114 29.7456 62.2362 30.6673C62.3786 30.7855 62.7815 30.8327 63.2796 30.62C63.7774 30.384 64.7969 30.0531 65.1528 30.0297C65.1528 30.0297 64.323 31.305 64.1568 31.8485C63.9671 32.3922 63.9196 32.6516 64.7732 32.9351C65.6505 33.1952 70.0133 34.5658 72.7166 36.3845C75.3958 38.1799 78.17 40.5189 80.209 44.7717C82.2719 49.0475 81.1576 52.2842 80.8256 52.8753C82.2956 51.9302 83.6471 50.867 84.8802 49.6618H84.8563C83.7894 46.0948 80.826 43.8267 79.1897 41.8658Z" fill="#989898"/>
</svg>
