<svg width="192" height="66" viewBox="0 0 192 66" fill="none" xmlns="http://www.w3.org/2000/svg">
<path fill-rule="evenodd" clip-rule="evenodd" d="M83.9728 58.9544L85.557 53.5665L87.2467 58.9544H83.9728ZM88.4085 48.4895C88.3029 48.2823 88.0916 48.1787 87.8805 48.1787H83.1278C82.9167 48.1787 82.7054 48.2823 82.5998 48.4895L76.1575 65.2746C76.1575 65.3781 76.1575 65.3781 76.1575 65.4819C76.1575 65.7926 76.3688 65.9999 76.6855 65.9999L81.4382 66C81.6493 66 81.8606 65.8965 81.9662 65.6893L82.8111 63.099L88.514 63.0989L89.359 65.6891C89.4645 65.8964 89.6757 65.9999 89.887 65.9999L94.6394 66C94.9562 66 95.1674 65.7928 95.1674 65.482C95.1674 65.3784 95.1674 65.3784 95.1674 65.2748L88.4085 48.4895ZM128.118 57.0894L133.61 49.0077C133.821 48.8005 133.715 48.4897 133.504 48.2824C133.399 48.1788 133.293 48.1788 133.187 48.1788L128.435 48.1787C128.224 48.1787 128.118 48.2823 128.012 48.386L123.365 55.9496V48.6967C123.365 48.386 123.154 48.1787 122.837 48.1787H118.402C118.085 48.1787 117.874 48.386 117.874 48.6967V65.4819C117.874 65.7926 118.085 65.9999 118.402 65.9999L122.837 66C123.154 66 123.365 65.7928 123.365 65.482V58.2291L128.012 65.7928C128.118 65.8964 128.224 66 128.435 66H133.187C133.504 66 133.715 65.7928 133.715 65.482C133.715 65.3784 133.715 65.2748 133.61 65.1712L128.118 57.0894ZM67.1807 61.9591H65.0686V58.9544H67.1807C68.7649 58.9544 69.5041 59.4724 69.5041 60.5086C69.5041 61.4411 68.7649 61.9591 67.1807 61.9591ZM68.976 54.9135H65.0686V52.2195L73.3061 52.2196C73.6229 52.2196 73.8341 52.0124 73.8341 51.7016V48.6968C73.8341 48.3861 73.6229 48.1788 73.3061 48.1788L60.1047 48.1787C59.7879 48.1787 59.5767 48.386 59.5767 48.6967V65.4819C59.5767 65.7926 59.7879 65.9999 60.1047 65.9999L68.976 66C74.6789 66 75.1014 61.8555 75.1014 60.405C75.1015 59.058 74.679 54.9135 68.976 54.9135ZM113.121 48.0752H108.686C108.369 48.0752 108.158 48.2824 108.158 48.5932V54.8099H102.877V48.5932C102.877 48.2824 102.666 48.0752 102.349 48.0752H97.9133C97.5965 48.0752 97.3853 48.2824 97.3853 48.5932V65.3783C97.3853 65.6891 97.5965 65.8964 97.9133 65.8964H102.349C102.666 65.8964 102.877 65.6891 102.877 65.3783V58.8506L108.158 58.8509V65.3784C108.158 65.6893 108.369 65.8965 108.686 65.8965L113.121 65.8964C113.438 65.8964 113.649 65.6891 113.649 65.3783V48.5932C113.649 48.4895 113.438 48.0752 113.121 48.0752Z" fill="#989898"/>
<path fill-rule="evenodd" clip-rule="evenodd" d="M123.353 14.972H118.918C118.601 14.972 118.39 15.1792 118.39 15.49V22.7429C114.165 23.3646 113.32 21.914 113.32 20.567V15.3864C113.32 15.0755 113.109 14.8684 112.792 14.8684H108.357C108.145 14.8684 107.934 15.0755 107.829 15.2828C107.829 16.0081 107.829 17.4587 107.829 18.8055C107.829 20.6705 107.829 22.7428 108.04 23.5718C108.462 25.9548 110.68 26.8873 112.898 27.0945C114.799 27.3017 116.594 27.198 118.39 26.68L118.39 32.1716C118.39 32.4824 118.601 32.6896 118.918 32.6896H123.353C123.67 32.6896 123.881 32.4824 123.881 32.1716V15.49C123.881 15.3864 123.67 14.972 123.353 14.972ZM156.198 28.8559H154.086V25.6439H156.198C156.621 25.6439 157.149 25.7475 157.571 25.8512C158.099 26.0584 158.416 26.5764 158.31 27.0945C158.31 28.6487 157.043 28.8559 156.198 28.8559ZM156.621 21.6031H154.086V15.5937C154.086 15.2829 153.875 15.0756 153.558 15.0756L149.122 15.0755C148.805 15.0755 148.594 15.2828 148.594 15.5936V32.3787C148.594 32.6894 148.805 32.8967 149.122 32.8967L156.726 32.8968C161.373 32.8968 163.908 30.9282 163.908 27.1982C163.908 23.4682 161.373 21.6031 156.621 21.6031ZM171.195 14.972H166.759C166.442 14.972 166.231 15.1792 166.231 15.49V32.2752C166.231 32.5859 166.442 32.7932 166.759 32.7932H171.195C171.512 32.7932 171.723 32.5859 171.723 32.2752V15.49C171.723 15.3864 171.512 14.972 171.195 14.972ZM96.2113 28.8559C94.3104 28.8559 92.5149 27.3017 92.5149 24.0898C92.5149 21.3958 93.8879 19.3236 96.2113 19.3236C98.5348 19.3236 99.9077 21.3958 99.9077 24.0898C99.9075 27.3017 98.0066 28.8559 96.2113 28.8559ZM96.2113 14.6611C90.9307 14.6611 87.0232 18.2875 87.0232 23.8825C87.0232 27.6125 89.2411 33.1039 96.2113 33.1039C103.181 33.1039 105.399 27.6125 105.399 23.8825C105.399 18.3911 101.492 14.6611 96.2113 14.6611ZM191.472 14.972H186.825C186.614 14.972 186.508 15.0755 186.403 15.2828L181.439 24.5043V15.49C181.439 15.1792 181.228 14.972 180.911 14.972H176.475C176.159 14.972 175.947 15.1792 175.947 15.49V32.2752C175.947 32.5859 176.159 32.7932 176.475 32.7932H181.122C181.334 32.7932 181.439 32.6896 181.545 32.4824L186.508 23.2609V32.2752C186.508 32.5859 186.72 32.7932 187.036 32.7932H191.472C191.789 32.7932 192 32.5859 192 32.2752V15.49C192 15.3864 191.789 14.972 191.472 14.972C191.578 14.972 191.578 14.972 191.472 14.972ZM143.842 14.972H139.406C139.089 14.972 138.878 15.1792 138.878 15.49V21.7068H133.597V15.49C133.597 15.1792 133.386 14.972 133.069 14.972H128.634C128.317 14.972 128.106 15.1792 128.106 15.49V32.2752C128.106 32.5859 128.317 32.7932 128.634 32.7932H133.069C133.386 32.7932 133.597 32.5859 133.597 32.2752V25.7475L138.878 25.7477V32.2753C138.878 32.5861 139.089 32.7933 139.406 32.7933L143.842 32.7932C144.158 32.7932 144.37 32.5859 144.37 32.2752V15.49C144.37 15.3864 144.158 14.972 143.842 14.972ZM26.8251 28.8559C24.9242 28.8559 23.1287 27.3017 23.1287 24.0898C23.1287 21.3958 24.5017 19.3236 26.8251 19.3236C29.1486 19.3236 30.5215 21.3958 30.5215 24.0898C30.6271 27.3017 28.7261 28.8559 26.8251 28.8559ZM26.8251 14.6611C21.5445 14.6611 17.637 18.2875 17.637 23.8825C17.637 27.6125 19.8549 33.1039 26.8251 33.1039C33.7952 33.1039 36.0131 27.6125 36.0131 23.8825C36.0131 18.3911 32.1057 14.6611 26.8251 14.6611ZM47.4191 19.3237C48.7921 19.3237 50.0593 19.9454 51.0098 21.0851C51.2211 21.2924 51.5378 21.2924 51.7491 21.0851L54.2837 17.9768C54.495 17.7695 54.495 17.4587 54.2837 17.2515C52.3827 15.6973 49.9537 14.7647 47.5247 14.8685C42.244 14.8685 38.3366 18.4949 38.3366 24.0899C38.3366 27.8199 40.5545 33.3113 47.5247 33.3113C50.0593 33.4148 52.4883 32.4824 54.2837 30.8246C54.495 30.6174 54.495 30.3066 54.2837 30.0993L51.7492 26.9909C51.538 26.7837 51.2212 26.7837 51.01 26.9909C50.0595 28.0272 48.7921 28.6487 47.4192 28.6487C45.5183 28.6487 43.7228 27.1982 43.7228 23.9862C43.7227 21.3959 44.9902 19.3237 47.4191 19.3237ZM183.974 13.625C186.192 13.7286 188.304 12.7961 189.571 11.0347C189.782 10.8275 189.677 10.5167 189.465 10.3095L186.825 8.96255C186.614 8.859 186.297 8.96255 186.192 9.16973C185.452 10.3095 183.868 10.6202 182.706 9.89505C182.39 9.68775 182.178 9.48057 181.967 9.16973C181.862 8.96255 181.545 8.859 181.334 8.96255L178.693 10.3095C178.482 10.5167 178.376 10.8275 178.588 11.0347C179.749 12.7961 181.756 13.8322 183.974 13.625ZM7.60396 28.8559H5.49182V25.9549H7.60396C9.1882 25.9549 9.9274 26.5766 9.9274 27.4054C9.9274 28.3379 9.1881 28.8559 7.60396 28.8559ZM5.49182 19.1165H7.39278C7.81524 19.1165 8.23772 19.22 8.6601 19.3237C9.08256 19.531 9.39928 20.049 9.29375 20.4634C9.29375 21.2924 8.76573 21.8104 7.28713 21.8104L5.49182 21.8103V19.1165ZM13.6237 24.0898C13.2012 23.7789 12.7788 23.5718 12.2507 23.3645C13.6237 22.7428 14.4686 21.2923 14.4686 19.8418C14.4686 19.1165 14.4686 15.1792 8.87127 15.1792L0.528002 15.1791C0.211183 14.972 0 15.3864 0 15.49V32.2752C0 32.5859 0.211183 32.7932 0.528002 32.7932H9.39928C15.1022 32.7932 15.5247 28.545 15.5247 27.7162C15.5248 26.3692 14.8911 24.9187 13.6237 24.0898ZM82.3762 14.972H58.9308C58.1915 14.972 57.5578 15.5937 57.5578 16.319V29.6849C57.5578 31.3427 58.9308 32.7933 60.7262 32.7933C62.4159 32.7933 63.8946 31.4463 63.8946 29.6849V20.4634H67.5908V29.6849C67.5908 31.3427 68.9637 32.7933 70.7592 32.7933C72.5546 32.7933 73.9275 31.4463 73.9275 29.6849V20.4634H77.6238V29.6849C77.6238 31.3427 78.9968 32.7933 80.7922 32.7933C82.4819 32.7933 83.9606 31.4463 83.9606 29.6849L83.9604 16.4225C83.7492 15.6973 83.1154 14.972 82.3762 14.972Z" fill="#989898"/>
<path fill-rule="evenodd" clip-rule="evenodd" d="M56.3961 11.0346C55.6569 9.68764 56.0793 8.02992 57.4523 7.30463L70.02 0.15539C70.4424 -0.0517967 70.9704 -0.0517967 71.3929 0.15539L83.9606 7.30463C85.3335 8.02992 85.756 9.68764 85.0167 11.0346C84.2775 12.3816 82.5877 12.7961 81.2148 12.0709L70.7591 6.26848L60.198 12.0707C58.9308 12.7961 57.2409 12.278 56.3961 11.0346Z" fill="#989898"/>
</svg>
