<svg width="128" height="106" viewBox="0 0 128 106" fill="none" xmlns="http://www.w3.org/2000/svg">
<path fill-rule="evenodd" clip-rule="evenodd" d="M0 68.3885H7.67597C11.5626 68.3885 14.186 71.6111 14.186 74.7361C14.186 77.9586 11.5626 81.1813 7.67597 81.1813H2.91499V86.3571H0V68.3885ZM116.597 79.8142C116.597 75.7126 119.804 72.9783 123.69 72.9783C125.245 72.9783 126.411 73.2712 127.577 73.8572V76.2986C126.411 75.7126 125.342 75.4197 124.079 75.4197C121.553 75.4197 119.415 77.1775 119.415 79.8142C119.415 82.4509 121.456 84.2087 124.079 84.2087C125.537 84.2087 126.703 83.9158 127.771 83.2322V85.6736C126.508 86.3573 125.245 86.7478 123.593 86.7478C119.804 86.7476 116.597 83.9156 116.597 79.8142ZM101.731 73.2712H104.646V78.3493H111.253V73.2712H114.168V86.3571H111.253V80.8884H104.646V86.3571H101.731V73.2712ZM99.6908 83.9156V86.064C99.3022 86.357 98.622 86.4547 98.039 86.4547C96.776 86.4547 95.7071 85.8687 95.3185 84.5992C94.3468 85.6734 92.7922 86.65 90.5574 86.65C87.8368 86.65 85.6991 85.0874 85.6991 82.2554C85.6991 79.3258 87.8367 78.4469 90.6544 78.4469C92.5978 78.4469 95.124 78.4469 95.124 78.4469V78.2516C95.124 76.0054 93.2779 75.4196 91.3346 75.4196C89.78 75.4196 88.2253 76.0054 87.2536 76.5913V74.0522C88.2253 73.5639 89.6828 72.978 92.0148 72.978C95.5126 72.978 98.039 74.6382 98.039 77.9585V82.8413C98.039 83.6225 98.5248 84.1107 99.1078 84.1107C99.1078 84.111 99.3993 84.111 99.6908 83.9156ZM94.9297 80.6931C94.9297 80.6931 92.8893 80.6931 91.5289 80.6931C89.6828 80.6931 88.4197 81.0836 88.4197 82.3531C88.4197 83.818 89.6828 84.3062 91.2375 84.3062C92.7922 84.3062 94.2496 83.525 94.9297 82.7438V80.6931ZM72.5818 79.8142C72.5818 75.7126 75.7883 72.9783 79.6749 72.9783C81.2296 72.9783 82.3956 73.2712 83.5615 73.8572V76.2986C82.3956 75.7126 81.3267 75.4197 80.0637 75.4197C77.5374 75.4197 75.3997 77.1775 75.3997 79.8142C75.3997 82.4509 77.4402 84.2087 80.0637 84.2087C81.5212 84.2087 82.687 83.9158 83.7559 83.2322V85.6736C82.4928 86.3573 81.2296 86.7478 79.5778 86.7478C75.8855 86.7476 72.5818 83.9156 72.5818 79.8142ZM59.9505 79.8142C59.9505 75.7126 63.1569 72.9783 67.0435 72.9783C68.5981 72.9783 69.7641 73.2712 70.9301 73.8572V76.2986C69.7642 75.7126 68.6954 75.4197 67.4322 75.4197C64.9059 75.4197 62.7683 77.1775 62.7683 79.8142C62.7683 82.4509 64.8088 84.2087 67.4322 84.2087C68.8897 84.2087 70.0556 83.9158 71.1245 83.2322V85.6736C69.8614 86.3573 68.5981 86.7478 66.9464 86.7478C63.1569 86.7476 59.9505 83.9156 59.9505 79.8142ZM45.3759 79.8142C45.3759 76.0055 47.9992 72.9783 52.0803 72.9783C56.2583 72.9783 58.2988 76.4939 58.2988 80.0095L58.2987 80.6931H48.2908C48.6795 82.9391 50.6227 84.2085 53.2462 84.2085C54.8979 84.2085 56.2582 83.7203 57.4243 83.0368V85.4782C56.3554 86.2594 54.6065 86.7476 52.6632 86.7476C48.5822 86.7476 45.3759 84.0133 45.3759 79.8142ZM55.3837 78.447C55.3837 77.0798 54.3149 75.3221 51.9829 75.3221C49.7482 75.3221 48.4851 76.8845 48.3879 78.447H55.3837ZM30.5096 73.2712H33.4246V78.3493H40.0317V73.2712H42.9467V86.3571H40.0317V80.8884H33.4246V86.3571H30.5096V73.2712ZM15.0605 79.8142C15.0605 76.0055 17.6839 72.9783 21.7649 72.9783C25.9429 72.9783 27.9834 76.4939 27.9834 80.0095L27.9833 80.6931H17.9754C18.3641 82.9391 20.3074 84.2085 22.9308 84.2085C24.5825 84.2085 25.9428 83.7203 27.1089 83.0368V85.4782C26.04 86.2594 24.2911 86.7476 22.3478 86.7476C18.2668 86.7476 15.0605 84.0133 15.0605 79.8142ZM25.0684 78.447C25.0684 77.0798 23.9996 75.3221 21.6676 75.3221C19.4329 75.3221 18.1698 76.8845 18.0726 78.447H25.0684ZM7.38451 78.447C9.91083 78.447 11.2711 76.4939 11.2711 74.7361C11.2711 72.8806 9.91083 71.0252 7.38451 71.0252H2.91499V78.447H7.38451Z" fill="#989898"/>
<path fill-rule="evenodd" clip-rule="evenodd" d="M42.4003 97.8526H43.7598V100.39L46.0903 97.8526H47.7411L45.0221 100.78L48.2266 104.294H46.5758L43.8569 101.366V104.294H42.4003V97.8526ZM85.2238 97.8526V99.0238H83.1847V104.294H81.8251V99.0238H79.786V97.8526H85.2238ZM72.4059 97.8526H73.7654V102.049L76.8727 97.8526H78.0381V104.294H76.7757V100.097L73.4741 104.294H72.4059V97.8526ZM64.1519 103.123C64.7346 102.244 65.0259 101.073 65.0259 98.9261V97.9502H69.4927V103.22H70.3666V105.758H69.1043V104.489H64.7346V105.758H63.4722V103.123H64.1519ZM68.2303 103.123V99.0238H66.3853C66.3853 100.39 66.2882 101.756 65.7056 103.123H68.2303ZM56.9661 97.8526H61.6271V99.0238H58.2285V100.292L60.9475 100.293V101.464H58.2285V103.123H61.8214V104.294H56.9661V97.8526ZM49.9745 97.8526H52.7905C54.15 97.8526 55.0239 98.6333 55.0239 99.8046C55.0239 100.976 54.15 101.757 52.7905 101.757L51.3339 101.756V104.294H49.9745V97.8526ZM52.6935 100.585C53.2761 100.585 53.6645 100.293 53.6645 99.8046C53.6645 99.3166 53.2761 99.0238 52.6935 99.0238H51.3339V100.585H52.6935Z" fill="#989898"/>
<path d="M49.5557 50.5348H42.3488V19.3717C42.3488 8.75936 51.0641 0 61.6231 0H85.4226V19.2032C85.4226 29.984 76.7073 38.5749 66.1483 38.5749H54.081L56.7626 31.3316H65.9807C72.6848 31.3316 78.0481 25.9412 78.0481 19.2032V7.24332H61.4555C54.7514 7.24332 49.3881 12.6337 49.3881 19.3717V50.5348H49.5557Z" fill="#989898"/>
</svg>
