<svg width="220" height="26" viewBox="0 0 220 26" fill="none" xmlns="http://www.w3.org/2000/svg">
<path d="M186.933 15.0578C186.679 15.7779 186.517 16.6725 186.953 17.3534C187.762 18.2205 189.096 17.9828 190.175 17.9982C190.782 17.9281 191.596 18.0496 191.979 17.4851C192.283 16.6349 192.216 15.713 192.234 14.8269C191.13 14.8303 190.025 14.8253 188.92 14.8287C188.252 14.844 187.564 14.8201 186.933 15.0578ZM185.397 9.17877C187.051 9.19075 188.708 9.14978 190.362 9.20098C191.433 9.30189 192.584 9.53957 193.385 10.2888C194.181 10.9764 194.424 12.0559 194.501 13.0428C194.512 15.2442 194.503 17.4473 194.503 19.6488C193.97 19.6472 193.4 19.7172 192.923 19.4351C192.825 19.0125 192.74 18.5849 192.764 18.1505C192.153 19.0313 191.039 19.4385 190.007 19.6454C188.53 19.902 186.881 19.8371 185.597 19.0211C183.785 17.8853 183.933 14.9638 185.676 13.8314C186.716 13.1163 188.047 13.0582 189.279 13.0394C190.269 13.0754 191.261 13.0412 192.253 13.0394C192.271 12.261 191.84 11.447 191.035 11.2057C189.383 10.732 187.64 11.0808 185.952 10.9097C185.795 10.8603 185.645 10.7969 185.504 10.7216C185.421 10.2119 185.353 9.6953 185.397 9.17877ZM207.695 9.00606C208.413 9.03845 209.17 8.95127 209.849 9.23351C210.321 10.9832 209.914 12.8221 210.11 14.6062C210.019 13.9271 210.48 13.4739 211.03 13.2121C212.395 12.4271 212.899 10.8174 214.212 9.97935C215.199 9.27114 216.457 9.04204 217.662 9.03685C217.599 9.63193 217.961 10.66 217.136 10.8603C215.87 10.985 214.891 11.8712 214.177 12.8221C213.789 13.361 213.304 13.8176 212.789 14.2402C214.431 16.055 216.07 17.8733 217.725 19.678C216.881 19.6711 216.028 19.7259 215.193 19.5976C214.466 19.3665 214.013 18.7167 213.509 18.2017C212.38 16.907 211.161 15.6804 210.091 14.3377C210.045 16.1302 210.073 17.9229 210.073 19.7156C209.42 19.7651 208.757 19.7172 208.117 19.5958C207.604 19.3307 207.751 18.6619 207.689 18.1965C207.662 15.1331 207.641 12.0695 207.695 9.00606ZM196.021 9.04364C196.737 9.04024 197.477 9.00087 198.163 9.25393C198.606 10.4617 198.317 11.7752 198.391 13.0292C200.171 13.1197 201.953 13.0394 203.733 13.0394C203.735 11.7086 203.731 10.3778 203.737 9.04703C204.472 9.03845 205.23 8.99908 205.93 9.26431C206.02 9.61317 206.143 9.96218 206.146 10.3266C206.141 13.4328 206.144 16.5392 206.143 19.6454C205.406 19.6506 204.646 19.7138 203.955 19.4283C203.532 17.952 203.822 16.4006 203.73 14.8918C201.953 14.8936 200.175 14.8902 198.4 14.8936C198.391 16.4792 198.4 18.0648 198.395 19.6506C197.69 19.6472 196.962 19.707 196.293 19.4521C195.93 18.7475 196.039 17.9229 195.989 17.1601C195.996 14.4541 196.004 11.7496 196.021 9.04364ZM175.088 13.869C175.081 15.1759 175.086 16.4844 175.084 17.7913C176.689 17.7826 178.293 17.8391 179.896 17.7416C180.316 17.7142 180.889 17.6476 180.967 17.1499C181.119 16.3783 181.258 15.4821 180.81 14.7773C180.299 14.0675 179.335 13.9151 178.506 13.8674C177.368 13.8604 176.226 13.8674 175.088 13.869ZM172.958 6.66606C173.373 6.53771 173.804 6.45898 174.244 6.47275C177.074 6.47434 179.905 6.46595 182.734 6.47779C182.673 7.04068 182.692 7.62737 182.451 8.15768C182.005 8.43473 181.465 8.35259 180.967 8.36278C179.007 8.36118 177.046 8.35779 175.084 8.36457C175.083 9.56876 175.086 10.7713 175.084 11.9755C177.346 12.0849 179.849 11.5923 181.876 12.8359C183.922 14.0025 184.129 17.1822 182.316 18.6293C181.343 19.3803 180.06 19.6078 178.85 19.6728C177.318 19.6916 175.786 19.6814 174.257 19.678C173.822 19.6438 173.341 19.6983 172.964 19.4521C172.71 19.1494 172.742 18.737 172.718 18.3711C172.708 14.9484 172.72 11.524 172.712 8.10114C172.716 7.61355 172.699 7.1022 172.958 6.66606Z" fill="#989898"/>
<path d="M85.5759 1.74473C88.0324 1.56004 90.5507 2.12972 92.6482 3.38511C95.2248 4.90412 97.1489 7.42381 97.8776 10.2598C98.5036 12.6921 98.2984 15.3279 97.2445 17.6236C96.0773 20.2201 93.8525 22.3429 91.1662 23.4616C88.7593 24.4657 86.0093 24.6623 83.4786 24.0021C80.6119 23.2735 78.0653 21.438 76.5285 18.9885C75.0217 16.6451 74.4663 13.7526 74.9845 11.0414C75.4761 8.25338 77.1262 5.68069 79.4676 3.98898C81.2255 2.69242 83.3778 1.92782 85.5759 1.74473Z" fill="#989898"/>
<path d="M10.5604 7.31232C11.5968 6.81794 12.7604 6.67781 13.9029 6.63326C13.8853 7.26611 14.1327 8.313 13.245 8.48911C11.5861 8.75433 10.1555 9.85078 9.33482 11.2483C8.87868 12.0385 8.1942 12.7227 7.30469 13.0477C9.54892 15.3176 11.7913 17.5858 14.032 19.8608C13.1371 19.8231 12.2352 19.8658 11.3457 19.7513C10.6718 19.6812 10.1855 19.1766 9.74157 18.7318C8.20658 17.0829 6.67329 15.4339 5.14706 13.7764C4.7209 13.3522 4.65911 12.4285 5.31154 12.1856C6.24528 11.7632 6.99156 11.0328 7.52209 10.1878C8.26838 9.00923 9.24468 7.91099 10.5604 7.31232ZM102.904 6.81116C103.346 6.54428 103.897 6.58365 104.4 6.54947C106.584 6.5545 108.768 6.53749 110.952 6.5581C111.313 6.61265 111.794 6.54088 112.043 6.85731C112.232 7.38069 112.208 7.94877 112.241 8.49609C109.847 8.50108 107.454 8.48572 105.059 8.50448C105.068 9.69508 105.059 10.8839 105.065 12.0745C106.724 12.0864 108.384 12.0642 110.043 12.0846C110.483 12.1172 110.971 12.0864 111.353 12.3413C111.566 12.8562 111.546 13.4224 111.574 13.9679C109.399 13.9817 107.226 13.9509 105.052 13.9835C105.075 15.268 105.058 16.551 105.063 17.8355C106.96 17.8645 108.86 17.7927 110.756 17.8765C111.182 17.9227 111.688 17.8595 112.029 18.1673C112.215 18.6857 112.213 19.2432 112.245 19.7839C109.863 19.7889 107.482 19.7839 105.102 19.7873C104.393 19.7889 103.664 19.8215 102.981 19.6076C102.668 19.209 102.698 18.6702 102.672 18.1947C102.668 14.8882 102.674 11.5817 102.67 8.27542C102.679 7.78284 102.679 7.26611 102.904 6.81116ZM2.30161 6.6828C2.99477 6.67263 3.70407 6.64183 4.37597 6.83336C4.71034 7.16356 4.66426 7.6783 4.71034 8.10611C4.71199 12.0266 4.71385 15.947 4.70847 19.8674C4.01347 19.7991 3.27956 19.9034 2.61991 19.6383C2.29977 19.2312 2.34934 18.6736 2.30161 18.1913C2.29806 14.3547 2.29806 10.5197 2.30161 6.6828ZM19.8645 9.11358C21.3606 8.96303 23.0778 9.16996 24.1335 10.316C25.1982 11.4758 25.3981 13.1109 25.4103 14.6009C25.3786 16.1148 25.1381 17.7961 23.9673 18.9079C22.7895 19.989 21.0156 20.0985 19.4877 19.864C18.5769 19.7495 17.6944 19.3493 17.1251 18.6361C17.141 20.3738 17.1286 22.1119 17.1304 23.8514C16.4443 23.7471 15.6395 23.9437 15.0418 23.5332C14.8951 23.1997 14.863 22.8319 14.856 22.4727C14.8614 18.0476 14.8544 13.6243 14.8595 9.19896C15.3865 9.19392 15.9189 9.22651 16.423 9.39242C16.5503 9.79084 16.6157 10.2032 16.6034 10.6206C17.2985 9.56854 18.6476 9.20595 19.8645 9.11358ZM18.4814 11.0242C18.0658 11.1199 17.4611 11.1507 17.346 11.6417C17.0773 12.5482 17.1463 13.5027 17.0932 14.4332C17.1269 15.4373 17.1463 16.5817 17.8872 17.3685C18.8299 18.2529 20.2588 18.1125 21.4596 18.027C21.9637 17.9518 22.7223 17.9296 22.8461 17.3223C23.0918 16.2635 23.0406 15.1671 23.0495 14.0894C23.0018 13.1195 22.8478 11.9701 21.9423 11.3852C20.9131 10.759 19.6293 10.9078 18.4814 11.0242ZM30.4576 9.16652C32.0864 8.93228 33.9326 9.08778 35.2148 10.186C36.3521 11.1473 36.7234 12.6852 36.6172 14.0928C36.5678 14.476 36.6279 14.9805 36.2566 15.2252C35.8215 15.3792 35.3493 15.374 34.893 15.381C32.7973 15.3792 30.7 15.3774 28.6044 15.381C28.5688 16.5046 29.3364 17.5858 30.4878 17.8423C32.1252 18.1827 33.8462 17.7363 35.4766 18.1331C35.9116 18.5779 35.7455 19.2672 35.7843 19.8249C33.7683 19.7633 31.7204 20.001 29.7326 19.594C28.1427 19.2706 26.8516 18.0082 26.5156 16.4756C26.1231 14.7909 26.146 12.928 26.9455 11.356C27.5946 10.0697 29.0287 9.32566 30.4576 9.16652ZM30.1976 10.8771C29.7396 10.954 29.1153 10.9061 28.8606 11.3628C28.6112 12.0864 28.6273 12.8613 28.629 13.6139C30.5 13.6139 32.3712 13.6173 34.2422 13.6139C34.2457 12.7877 34.0688 11.8436 33.3437 11.3166C32.4348 10.6803 31.25 10.8429 30.1976 10.8771ZM127.404 10.5487C128.244 9.24532 130 8.96128 131.468 8.99202C132.853 8.91507 134.363 9.36323 135.187 10.5009C136.246 11.9341 136.252 13.7816 136.167 15.4665C136.043 16.7511 135.645 18.128 134.567 18.9729C133.438 19.8778 131.868 19.9496 130.474 19.7873C129.501 19.6778 128.518 19.2859 127.929 18.4974C127.933 20.2389 127.933 21.9801 127.928 23.7215C127.264 23.7283 126.58 23.7385 125.949 23.523C125.653 23.186 125.687 22.7122 125.662 22.3C125.66 17.9056 125.66 13.5129 125.664 9.11857C126.136 9.12894 126.633 9.0794 127.088 9.24353C127.492 9.54113 127.353 10.1193 127.404 10.5487ZM128.228 11.291C127.899 12.3037 127.933 13.3796 127.928 14.4298C127.935 15.3314 127.961 16.3217 128.538 17.0795C129.089 17.7875 130.06 17.9876 130.932 17.9722C131.783 17.9432 132.708 18.0064 133.477 17.584C133.864 16.9272 133.795 16.1352 133.854 15.4066C133.886 14.2741 133.944 13.07 133.431 12.0197C132.985 11.1302 131.88 10.8019 130.925 10.8411C130.018 10.8617 129.017 10.7761 128.228 11.291ZM141.446 9.09297C143.145 8.88249 145.068 8.95104 146.479 10.0081C147.659 10.8822 148.12 12.3567 148.194 13.7404C148.29 15.3244 148.101 17.0743 146.986 18.323C145.989 19.4109 144.419 19.7975 142.965 19.7923C141.474 19.8369 139.842 19.5528 138.76 18.4804C137.67 17.4215 137.403 15.8565 137.377 14.423C137.396 13.0991 137.607 11.6897 138.478 10.6206C139.193 9.73446 140.318 9.2555 141.446 9.09297ZM142.1 10.8635C141.426 10.9472 140.592 10.8481 140.089 11.3628C139.706 12.278 139.798 13.3009 139.773 14.2689C139.745 15.2834 139.883 16.4088 140.638 17.1768C141.221 17.7945 142.128 17.9792 142.963 17.933C143.791 17.9056 144.728 17.9998 145.445 17.5207C145.811 16.8998 145.773 16.1438 145.83 15.4509C145.872 14.211 145.954 12.8253 145.167 11.7666C144.461 10.8635 143.17 10.7915 142.1 10.8635ZM149.604 9.24192C150.357 8.96467 151.169 9.03663 151.959 9.03319C153.967 9.03319 155.974 9.03144 157.981 9.03319C158.402 9.057 158.869 9.04841 159.242 9.26927C159.457 9.57711 159.454 9.98252 159.492 10.3434C159.505 12.957 159.489 15.5724 159.5 18.1879C159.494 18.6035 159.481 19.0534 159.247 19.4159C158.607 19.7461 157.841 19.6367 157.141 19.6572C157.139 16.893 157.141 14.1306 157.141 11.3662C155.344 11.3594 153.548 11.3612 151.751 11.3662C151.751 14.1288 151.751 16.8914 151.751 19.6538C151.043 19.6367 150.279 19.7479 149.627 19.4314C149.353 19.0123 149.372 18.4939 149.358 18.0186C149.36 15.7384 149.362 13.4599 149.358 11.1799C149.367 10.5298 149.342 9.85582 149.604 9.24192ZM40.2656 9.23329C41.4134 9.0502 42.5824 9.14097 43.7389 9.12037C44.7115 9.13753 45.7002 9.057 46.6587 9.24871C47.1326 9.38385 47.0549 9.95513 47.1008 10.3263C47.1149 12.8818 47.1079 15.4373 47.1026 17.9928C47.4935 18.0682 48.1408 17.9638 48.2168 18.4872C48.3671 19.2348 48.2644 20.001 48.2964 20.757C48.2627 21.1642 48.3441 21.6927 47.9816 21.9818C47.3519 22.1665 46.6817 22.1425 46.0309 22.187C46.0273 21.3985 46.0327 20.6101 46.0255 19.8215C43.7035 19.8317 41.3816 19.8249 39.0595 19.8249C39.0613 20.6135 39.0648 21.4019 39.056 22.1905C38.4564 22.1477 37.8498 22.1511 37.2591 22.0297C36.8524 21.9492 36.8436 21.501 36.7995 21.183C36.7305 20.2969 36.7057 19.3955 36.8667 18.5179C36.8915 17.9946 37.5174 18.0664 37.8994 17.9998C38.5095 17.4319 38.8119 16.6415 39.0613 15.8769C39.6148 14.0142 39.7421 12.0625 39.7616 10.133C39.7882 9.79084 39.8181 9.28808 40.2656 9.23329ZM41.76 10.9676C41.6964 13.342 41.4753 15.8033 40.3894 17.9706C41.6734 17.9569 42.9556 17.986 44.2394 17.9586C44.586 17.9792 44.8849 17.6866 44.8407 17.3479C44.8477 15.2218 44.8425 13.0939 44.8425 10.9676C43.8149 10.9642 42.7857 10.966 41.76 10.9676ZM55.8901 10.3126C56.2369 9.87638 56.5711 9.28111 57.1971 9.21274C58.0318 9.12197 58.8719 9.18373 59.7102 9.17176C59.7119 12.2933 59.7173 15.4151 59.7084 18.5368C59.6517 18.9063 59.7084 19.4553 59.2768 19.6282C58.6473 19.7769 57.9947 19.7873 57.3492 19.7905C57.3438 17.1906 57.3546 14.5924 57.3438 11.9941C56.1288 13.9525 54.8557 15.8753 53.6229 17.8235C53.2075 18.441 52.8325 19.1082 52.2525 19.599C51.3169 19.895 50.3106 19.7563 49.3434 19.7839C49.3361 16.2463 49.3415 12.709 49.3415 9.17176C50.0649 9.21113 50.8996 9.02964 51.5362 9.43859C51.7573 9.8696 51.736 10.3742 51.7554 10.8429C51.7519 12.8237 51.7466 14.8026 51.759 16.7835C53.1437 14.6317 54.4965 12.4593 55.8901 10.3126ZM60.9816 9.39063C61.4574 9.2025 61.972 9.16478 62.4831 9.16831C65.3003 9.16652 68.1176 9.16996 70.9329 9.16652C70.8975 9.74464 71.0159 10.3965 70.6783 10.9061C69.5163 11.2962 68.2447 11.0208 67.0404 11.1064C67.0369 14.0005 67.0404 16.8948 67.0387 19.7889C66.3931 19.7821 65.7318 19.7855 65.1076 19.6076C64.6918 19.3561 64.7751 18.7934 64.7114 18.3846C64.6548 15.9573 64.7009 13.5301 64.6866 11.103C63.3885 11.1064 62.0888 11.1046 60.7907 11.103C60.7907 10.5265 60.8436 9.95173 60.9816 9.39063ZM113.889 9.22131C115.007 8.96128 116.169 9.11517 117.306 9.0742C118.889 9.12376 120.511 8.91846 122.058 9.32905C122.93 9.54453 123.749 10.1518 123.977 11.0242C124.281 12.1258 124.087 13.6311 122.845 14.103C124.658 14.8986 124.98 17.5157 123.593 18.8156C122.712 19.594 121.46 19.7735 120.312 19.7889C118.431 19.7787 116.547 19.7941 114.666 19.7839C114.321 19.7445 113.728 19.7855 113.683 19.3373C113.569 18.7968 113.587 18.2391 113.583 17.6918C113.596 15.2338 113.571 12.7775 113.596 10.3212C113.647 9.95678 113.555 9.47961 113.889 9.22131ZM115.725 10.8447C115.725 11.7118 115.72 12.579 115.73 13.4464C117.761 13.3898 119.805 13.5711 121.826 13.3266C122.04 12.8117 122.021 12.2386 121.947 11.6981C121.711 11.0618 120.953 10.8463 120.32 10.8481C118.788 10.8395 117.256 10.8497 115.725 10.8447ZM115.729 15.244C115.722 16.1831 115.722 17.1239 115.729 18.063C117.023 18.0612 118.316 18.063 119.61 18.0612C120.447 18.0544 121.299 18.1246 122.115 17.8971C122.237 17.312 122.341 16.6877 122.164 16.1044C121.869 15.4133 120.999 15.2936 120.321 15.2508C118.79 15.2321 117.26 15.2508 115.729 15.244ZM161.687 9.16996C163.225 9.17176 164.766 9.15634 166.308 9.17516C167.579 9.24353 168.98 9.49338 169.885 10.4375C170.788 11.4312 170.849 12.8323 170.852 14.0894C170.847 15.947 170.856 17.8047 170.847 19.6623C170.319 19.6282 169.705 19.7513 169.257 19.4281C169.109 19.0345 169.096 18.6069 169.048 18.1947C168.175 19.3475 166.596 19.6947 165.201 19.7821C163.828 19.8145 162.294 19.5682 161.326 18.5386C160.131 17.153 160.471 14.7599 162.057 13.7782C163.145 13.0803 164.5 13.029 165.764 13.0477C166.696 13.0477 167.631 13.0563 168.563 13.0392C168.552 12.3155 168.232 11.5203 167.472 11.2653C165.725 10.6444 163.815 11.2123 162.035 10.8481C161.535 10.4785 161.769 9.70706 161.687 9.16996ZM164.002 14.8882C163.617 14.902 163.134 15.0199 163.11 15.4681C162.999 16.1779 162.844 17.1188 163.551 17.5942C164.457 18.1827 165.623 17.9962 166.654 17.9928C167.183 17.9039 167.894 17.998 168.258 17.5395C168.608 16.6809 168.519 15.7298 168.537 14.8267C167.026 14.8558 165.51 14.7651 164.002 14.8882Z" fill="#989898"/>
<path d="M80.8134 13.0463C82.7092 14.8904 84.5962 16.7446 86.5257 18.5577C88.4267 16.729 90.3208 14.8938 92.2131 13.0583C90.3543 11.1683 88.4002 9.36541 86.5131 7.50098C84.6157 9.35164 82.6774 11.1649 80.8134 13.0463Z" fill="white"/>
</svg>
