<svg width="158" height="86" viewBox="0 0 158 86" fill="none" xmlns="http://www.w3.org/2000/svg">
<g clip-path="url(#clip0)">
<path d="M6.31928 74.6737H0.000289917V70.7861H17.2404V74.6737H10.9207V85.3571H6.31928V74.6737Z" fill="#989898"/>
<path d="M34.9128 70.7861V85.3571H30.4642V76.8779L22.7954 85.3571H18.8689V70.7861H23.3167V79.2653L30.9862 70.7861H34.9128Z" fill="#989898"/>
<path d="M42.5748 85.3571H38.127V70.7861H42.5748V76.1125H49.7223V70.7861H54.1709V85.3571H49.7223V79.9388H42.5748V85.3571Z" fill="#989898"/>
<path d="M57.3858 85.3571V70.7861H61.8336V74.7044H66.4043C67.5085 74.7044 68.674 74.735 69.656 75.102C71.7114 75.8674 72.9997 77.5514 72.9997 79.9694C72.9997 82.51 71.4964 84.3772 69.1961 85.02C68.3369 85.2652 67.4163 85.3571 66.4043 85.3571H57.3858ZM61.8336 81.8366H65.6373C66.4043 81.8366 66.895 81.8366 67.3856 81.6221C68.0912 81.3164 68.5212 80.6735 68.5212 79.9081C68.5212 79.1734 68.0912 78.5612 67.3549 78.3168C66.8336 78.1329 66.2508 78.1329 65.6373 78.1329H61.8336V81.8366Z" fill="#989898"/>
<path d="M79.4933 85.3571H75.0454V70.7861H79.4933V76.2658H80.7202L86.0886 70.7861H91.6721L84.5554 77.7652L91.9477 85.3571H86.0272L80.7202 79.8469H79.4933V85.3571Z" fill="#989898"/>
<path d="M110.752 78.1022C110.752 82.4487 107.163 85.816 101.212 85.816C95.2301 85.816 91.6414 82.4487 91.6414 78.1022C91.6414 73.7557 95.2301 70.3884 101.212 70.3884C107.163 70.3884 110.752 73.7557 110.752 78.1022ZM106.09 78.1022C106.09 75.7148 104.157 73.9695 101.212 73.9695C98.2368 73.9695 96.3341 75.7148 96.3341 78.1022C96.3341 80.4896 98.2368 82.2648 101.212 82.2648C104.157 82.2648 106.09 80.4896 106.09 78.1022Z" fill="#989898"/>
<path d="M134.376 78.0716C134.376 82.2349 131.032 84.4078 125.418 84.5304V85.9999H120.97V84.5304C115.388 84.4078 112.044 82.2349 112.044 78.0716C112.044 73.9082 115.388 71.5515 120.97 71.429V69.9595H125.418V71.429C131.032 71.5515 134.376 73.9082 134.376 78.0716ZM120.97 74.5817C117.903 74.7043 116.553 76.1125 116.553 78.0716C116.553 80.0307 117.903 81.2857 120.97 81.4083V74.5817ZM129.835 78.0716C129.835 76.1125 128.516 74.7043 125.418 74.5817V81.4083C128.516 81.2857 129.835 80.0307 129.835 78.0716Z" fill="#989898"/>
<path d="M158 78.0716C158 82.2349 154.656 84.4078 149.043 84.5304V85.9999H144.595V84.5304C139.011 84.4078 135.668 82.2349 135.668 78.0716C135.668 73.9082 139.011 71.5515 144.595 71.429V69.9595H149.043V71.429C154.656 71.5515 158 73.9082 158 78.0716ZM144.595 74.5817C141.527 74.7043 140.177 76.1125 140.177 78.0716C140.177 80.0307 141.527 81.2857 144.595 81.4083V74.5817ZM153.46 78.0716C153.46 76.1125 152.141 74.7043 149.043 74.5817V81.4083C152.141 81.2857 153.46 80.0307 153.46 78.0716Z" fill="#989898"/>
<path d="M109.974 25.8546L110.778 23.2837L108.116 23.368C107.891 23.368 106.256 23.3212 104.669 22.1733C104.788 22.1838 104.905 22.2008 105.027 22.2008C106.66 22.2008 108.241 21.2203 108.874 19.816L110.019 17.2803C108.582 17.2996 107.269 17.1181 107.269 17.1181C107.258 17.1169 106.223 16.9828 105.026 15.7629C104.168 14.8885 103.106 14.4254 101.955 14.4254C101.451 14.4254 101.001 14.5167 100.614 14.6391C100.675 14.4336 100.731 14.2253 100.765 14.0104C101.13 11.6368 99.6011 9.82798 99.6005 9.82921L97.5973 7.3543L96.3554 10.2617C96.3513 10.2705 96.037 10.9525 95.4773 11.285C95.3083 10.4297 94.8918 9.46916 94.0037 8.5513C92.3278 6.82043 90.2887 6.56173 89.2217 6.56173C88.7272 6.56173 88.3741 6.61554 88.2884 6.62962L85.8716 7.1037C86.0112 6.56517 86.3086 5.62572 86.8512 4.78103L88.1851 2.70765L84.8286 3.08874L83.7592 0.822858L81.689 1.88822L79.7744 0.000976562L77.8656 1.88822L75.7901 0.822858L74.7231 3.08874L71.3677 2.7065L72.7034 4.78165C73.2472 5.62572 73.5434 6.56288 73.6813 7.10026L71.3747 6.64661L71.2955 6.63368C71.18 6.61554 70.8292 6.56173 70.3324 6.56173C69.2659 6.56173 67.2268 6.82043 65.555 8.55015C64.6651 9.46802 64.2481 10.4297 64.0779 11.285C63.5212 10.9554 63.2097 10.2846 63.2097 10.2846L61.9655 7.36011L59.9318 9.85026C59.6825 10.171 58.4571 11.8727 58.7903 14.0127C58.8243 14.2264 58.8806 14.4336 58.9404 14.6391C58.5544 14.5156 58.1045 14.4254 57.6012 14.4254C56.4502 14.4254 55.3879 14.8885 54.528 15.7629C53.3348 16.9782 52.3059 17.1158 52.3146 17.1158C52.3146 17.1158 51.2259 17.3113 49.5412 17.2803L50.6804 19.816C51.3145 21.2203 52.8966 22.2008 54.5262 22.2008C54.6494 22.2008 54.7667 22.1838 54.8869 22.1733C53.3037 23.3212 51.6688 23.368 51.4711 23.3692L48.7599 23.2837L49.5816 25.854C49.9952 27.1787 51.3761 29.3726 54.0205 29.6091C53.7331 30.812 53.0955 32.1613 51.6947 32.742L49.6744 33.572L50.776 35.4867C51.3972 36.5193 52.8579 37.7269 54.9357 37.7269C55.385 37.7257 55.819 37.6801 56.2373 37.5917C56.3441 38.0629 56.4778 38.5359 56.6356 39.0048C57.2539 40.8433 56.7207 42.1247 56.7154 42.1388L55.7176 44.2238L57.9438 44.8091C57.9719 44.8173 58.6442 45.0023 59.486 45.0023C59.8679 45.0023 60.2339 44.9625 60.5753 44.8812C60.834 44.8209 61.0833 44.7406 61.3221 44.6435C61.6106 45.1592 61.9602 45.6304 62.3685 46.0518C63.7952 47.5129 65.8172 48.2528 68.3777 48.2528H68.3859L70.2138 48.2289L66.4372 49.7964L69.3046 51.1796C70.347 51.686 71.5818 52.2854 72.8401 52.7437L72.4816 53.7213L73.4701 54.1709C73.5581 54.2107 75.4593 55.0588 78.6182 55.2397C78.6182 55.2397 79.3807 55.2748 79.8008 55.2748C80.2208 55.2748 80.974 55.2374 80.974 55.2374C84.1129 55.0518 85.9989 54.2107 86.0869 54.1709L87.0776 53.7201L86.7163 52.7414C88.0097 52.269 89.2909 51.6462 90.2899 51.1592L93.1039 49.7952L89.3396 48.2289L91.1751 48.2528C93.7392 48.2528 95.7618 47.5124 97.1861 46.0495C97.5926 45.6316 97.9416 45.1615 98.2314 44.6435C98.4713 44.7406 98.7218 44.8209 98.9811 44.8823C99.3219 44.9625 99.6873 45.0023 100.069 45.0023C100.896 45.0023 101.576 44.8197 101.594 44.8138L103.831 44.2238L102.856 42.1774C102.833 42.1247 102.3 40.8433 102.919 39.0035C103.076 38.5341 103.209 38.0617 103.317 37.5917C103.736 37.6801 104.174 37.7257 104.627 37.7269C107.275 37.7269 108.544 35.8689 108.79 35.465L109.88 33.5708L107.861 32.7431C106.457 32.1613 105.82 30.8132 105.535 29.6109C108.145 29.3843 109.545 27.188 109.974 25.8546ZM73.8555 7.98881L73.8285 7.99463L73.8514 7.96478L73.8555 7.98881Z" fill="white"/>
<path d="M79.7748 7.87402C77.6361 7.87632 76.0317 8.57528 75.6833 9.39831L79.7748 11.0104L83.8676 9.39831C83.5215 8.57528 81.9171 7.87632 79.7748 7.87402Z" fill="white"/>
<path d="M79.8178 50.5304H79.8136H79.779H79.7386H79.7356C78.4398 50.5392 76.6536 50.274 75.7948 50.0234L74.76 52.8168C75.4417 53.0592 77.7535 53.5239 79.779 53.5239C81.8005 53.5239 84.1123 53.0592 84.7933 52.8168L83.7604 50.0234C82.8975 50.274 81.1136 50.5392 79.8178 50.5304Z" fill="white"/>
<path d="M87.6476 47.751C86.8774 48.1853 85.1581 48.8391 84.1585 49.1424L84.9979 51.4498C86.5449 51.0278 87.8224 50.5355 88.876 50.0075L87.1338 49.4298L87.6476 47.751Z" fill="white"/>
<path d="M71.9061 47.751L72.4217 49.4298L70.6777 50.0075C71.73 50.5355 73.013 51.0278 74.5545 51.4498L75.3952 49.1424C74.3974 48.8391 72.6756 48.1853 71.9061 47.751Z" fill="white"/>
<path d="M79.7748 5.20258C81.388 5.20258 82.9683 5.58773 84.1849 6.26381C84.2958 5.89213 84.4519 5.44085 84.6624 4.96722L84.202 5.02225L83.7197 5.07262L83.5156 4.6342L82.9002 3.33823L81.7793 3.92062L81.3429 4.14251L80.9938 3.79946L79.7748 2.59595L78.5588 3.79946L78.2109 4.14251L77.7745 3.92062L76.6477 3.33823L76.0405 4.6342L75.8322 5.07262L75.3506 5.02225L74.8919 4.96722C75.1025 5.44085 75.2568 5.89213 75.3694 6.26381C76.5901 5.58773 78.1693 5.20258 79.7748 5.20258Z" fill="white"/>
<path d="M104.394 20.1864C104.603 20.259 104.816 20.2906 105.027 20.2906C105.94 20.2906 106.821 19.7018 107.124 19.0292C107.124 19.0292 105.452 18.9279 103.653 17.1057C103.081 16.5157 102.475 16.3389 101.955 16.3389C101.147 16.3389 100.541 16.7638 100.541 16.7638C102.714 17.9182 103.157 19.7697 104.394 20.1864Z" fill="white"/>
<path d="M54.5255 20.2906C54.7367 20.2906 54.9496 20.259 55.1543 20.1864C56.3944 19.7697 56.842 17.9182 59.0119 16.7644C59.0119 16.7644 58.4042 16.3389 57.6011 16.3389C57.0784 16.3389 56.473 16.5156 55.8981 17.1063C54.1014 18.9279 52.4302 19.0298 52.4302 19.0298C52.7304 19.7017 53.6139 20.2906 54.5255 20.2906Z" fill="white"/>
<path d="M104.982 27.7111C105.02 27.7134 105.052 27.7134 105.091 27.7134C107.367 27.7134 108.138 25.2807 108.138 25.2807H108.094C107.676 25.2807 104.292 25.1823 101.899 22.1485C100.325 20.1529 99.0334 18.3986 96.4852 17.7085L96.2342 17.664L96.1796 17.4094C96.1092 17.0213 96.3767 16.6566 96.9815 16.2638C100.499 13.9657 98.1102 11.0336 98.1102 11.0336C98.1102 11.0336 97.1059 13.378 94.8586 13.378C94.8046 13.378 94.7477 13.3751 94.692 13.3751C94.4368 13.3616 94.1898 13.3522 93.9423 13.2996L93.5282 13.2193C93.5282 13.2193 94.1693 11.4797 92.6224 9.88336C91.4574 8.67817 90.0402 8.47266 89.2218 8.47266C88.8095 8.47266 88.5479 8.52593 88.5479 8.52593C89.3245 9.53916 89.8865 11.221 88.9896 12.2588C88.2141 13.1508 86.3205 13.1936 86.3205 14.5224C86.3205 15.0861 86.8478 15.7429 87.794 16.3323C90.6402 18.1212 93.4654 20.4954 94.6415 23.6757C96.1092 27.6426 94.455 30.2762 92.0944 31.7864C92.0944 31.7864 92.8354 32.4672 93.9082 32.5538C94.1271 32.5749 94.3406 32.5849 94.5394 32.5849C96.8061 32.5849 97.9788 31.5242 97.9788 31.5242C97.9788 31.5242 97.7852 32.9899 96.6061 34.3503C95.5173 35.6064 94.0896 36.347 91.9097 36.3774C91.9097 36.3774 91.8411 37.3865 92.806 38.2599C93.4237 38.8113 94.8491 38.9904 94.8491 38.9904C94.8491 38.9904 92.1795 39.5307 91.8844 43.4655C91.7244 45.598 91.1782 46.3391 91.1782 46.3391H91.2263C97.4221 46.3391 97.2637 41.0363 97.2637 41.0363C97.2637 41.0363 97.6942 42.6062 99.4229 43.0159C99.6318 43.0704 99.8548 43.0915 100.067 43.0915C100.623 43.0915 101.107 42.961 101.107 42.961C101.107 42.961 100.201 41.0562 101.1 38.391C101.845 36.1796 101.724 34.5411 101.724 34.5411C101.724 34.5411 102.558 35.8008 104.629 35.8119H104.65C106.373 35.8119 107.124 34.5083 107.124 34.5083C102.993 32.7967 103.401 27.2745 103.401 27.2745C103.401 27.2745 103.938 27.6736 104.982 27.7111ZM103.739 33.4816C102.058 32.6545 100.996 30.4594 100.74 29.6692C100.461 34.0219 98.3318 37.0418 95.8429 39.9498C94.5512 41.4577 94.1007 42.9229 94.1007 42.9229C94.1007 42.9229 94.35 41.2623 95.4663 39.9112C97.7887 37.1272 99.9961 33.6607 100.16 29.6533C100.272 26.8559 99.5526 24.5882 98.4275 22.7186C99.0569 24.6655 98.9672 27.0491 96.8313 29.2746C96.8313 29.2746 101.085 24.189 95.1384 18.9752C92.7591 16.9908 90.1539 15.7657 88.8142 14.8975C93.6572 16.4746 96.0224 14.7383 96.0224 14.7383C94.4761 16.0765 92.4734 16.0537 91.2315 15.8605C91.5689 16.0244 91.9191 16.1954 92.2957 16.3979C96.3797 18.6111 100.05 22.2532 100.675 27.2967V27.2581C101.625 32.2108 103.739 33.4816 103.739 33.4816Z" fill="white"/>
<path d="M64.7045 38.9904C64.7045 38.9904 66.1305 38.8118 66.7494 38.2598C67.7132 37.3865 67.644 36.3773 67.644 36.3773C65.4641 36.3468 64.0375 35.6064 62.9423 34.3507C61.7702 32.9898 61.5755 31.5241 61.5755 31.5241C61.5755 31.5241 62.7475 32.5848 65.0112 32.5848C65.2148 32.5848 65.426 32.5748 65.6448 32.5538C66.7195 32.4671 67.4621 31.7869 67.4621 31.7869C65.0992 30.2767 63.4444 27.6431 64.911 23.6755C66.0865 20.4959 68.911 18.121 71.7584 16.3322C72.7041 15.7427 73.2308 15.086 73.2308 14.5228C73.2308 13.1935 71.3396 13.1508 70.5647 12.2587C69.6678 11.2208 70.2297 9.53911 71.0046 8.52588C71.0046 8.52588 70.7465 8.47314 70.3318 8.47314C69.5141 8.47314 68.0974 8.67804 66.9324 9.88331C65.3826 11.4795 66.0255 13.2193 66.0255 13.2193L65.6114 13.3C65.3639 13.3522 65.1145 13.3615 64.8611 13.3756C64.803 13.3756 64.7514 13.3779 64.6968 13.3779C62.4437 13.3779 61.4447 11.0341 61.4447 11.0341C61.4447 11.0341 59.0566 13.9656 62.5733 16.2637C63.1781 16.6565 63.4444 17.0212 63.374 17.4093L63.3195 17.6639L63.0638 17.7084C60.519 18.3991 59.2267 20.1535 57.6511 22.1483C55.2601 25.1823 51.8795 25.2806 51.4589 25.2806H51.4125C51.4125 25.2806 52.1845 27.7134 54.4617 27.7134C54.4981 27.7134 54.5321 27.7134 54.5702 27.711C55.6173 27.6736 56.1541 27.2744 56.1541 27.2744C56.1541 27.2744 56.5588 32.7967 52.4297 34.5083C52.4297 34.5083 53.1818 35.8124 54.9046 35.8124H54.9251C56.9964 35.8007 57.8294 34.541 57.8294 34.541C57.8294 34.541 57.7091 36.1801 58.4519 38.391C59.3499 41.0567 58.4489 42.9615 58.4489 42.9615C58.4489 42.9615 58.9305 43.0914 59.486 43.0914C59.7019 43.0914 59.923 43.0703 60.1295 43.0159C61.8565 42.6061 62.2888 41.0362 62.2888 41.0362C62.2888 41.0362 62.1304 46.3389 68.3273 46.3389H68.372C68.372 46.3389 67.8299 45.5979 67.6704 43.4654C67.3765 39.5307 64.7045 38.9904 64.7045 38.9904ZM63.709 39.9498C61.2206 37.0417 59.0924 34.0218 58.8108 29.669C58.5539 30.4593 57.4951 32.6544 55.8156 33.4815C55.8156 33.4815 57.9274 32.2107 58.8759 27.258V27.2966C59.5042 22.2537 63.1728 18.6111 67.2579 16.3984C67.6323 16.1952 67.9854 16.0243 68.3209 15.861C67.0791 16.0536 65.0764 16.0764 63.5313 14.7388C63.5313 14.7388 65.8965 16.4744 70.7377 14.8975C69.398 15.7661 66.7951 16.9907 64.4164 18.9752C58.4677 24.189 62.7224 29.2751 62.7224 29.2751C60.583 27.049 60.4973 24.666 61.1262 22.7185C59.9993 24.5881 59.2789 26.8558 59.3951 29.6533C59.5576 33.6607 61.7638 37.1272 64.0821 39.9117C65.2037 41.2621 65.4559 42.9228 65.4559 42.9228C65.4559 42.9228 65.0001 41.4576 63.709 39.9498Z" fill="white"/>
<path d="M75.1942 19.5995C75.2956 19.7083 75.3954 19.8266 75.4922 19.9455C75.515 19.9735 75.5361 19.9981 75.559 20.0303C75.6482 20.148 75.7374 20.2733 75.8242 20.4014C75.8435 20.4266 75.8623 20.457 75.8828 20.4863C75.986 20.6426 76.0846 20.8048 76.182 20.9715C77.076 22.5111 78.5056 23.4312 79.775 23.4336C81.0456 23.4312 82.4739 22.5111 83.3703 20.9715C83.4694 20.8001 83.5697 20.6344 83.6736 20.4793C83.6888 20.457 83.7052 20.4342 83.7193 20.4113C83.8079 20.2785 83.9 20.1497 83.9968 20.0251C84.0173 19.9981 84.0367 19.9735 84.0555 19.9501C84.1552 19.8266 84.2578 19.7072 84.3628 19.596C84.3804 19.5784 84.3957 19.5615 84.4127 19.5468C84.8679 19.082 85.4105 18.7273 86.1208 18.5312L85.8047 18.3474H85.7871L84.5294 17.6186L83.2371 16.8799L79.7844 18.7554L79.775 18.7478L79.7685 18.7554L76.3152 16.8799L75.0234 17.6186L73.7634 18.3474H73.7488L73.4296 18.5312C74.1412 18.7273 74.6815 19.078 75.139 19.5438C75.1583 19.5615 75.1725 19.5825 75.1942 19.5995ZM78.3771 19.4496H79.8389H81.2978V20.45C80.9546 20.0303 80.2853 20.1158 80.2853 20.1158V21.5575C80.2853 21.5575 80.3105 22.267 80.5598 22.5737H79.8389H79.1144C79.3673 22.267 79.3902 21.5575 79.3902 21.5575V20.1158C79.3902 20.1158 78.7232 20.0303 78.3771 20.45V19.4496Z" fill="white"/>
<path d="M79.4762 17.5101V11.6541L75.7414 10.3904L76.7262 16.0643L79.4762 17.5101ZM78.6749 13.0935V14.0342L78.4937 13.9517C78.4855 13.9453 78.2192 13.885 77.7563 13.5191C76.9914 12.9268 76.9761 12.3806 76.9761 12.3806L78.6749 13.0935Z" fill="white"/>
<path d="M82.8257 16.0643L83.8076 10.3904L80.075 11.6541V17.5101L82.8257 16.0643ZM80.8781 13.0935L82.5769 12.3806C82.5769 12.3806 82.5623 12.9268 81.795 13.5191C81.3333 13.885 81.067 13.9453 81.0582 13.9517L80.8781 14.0342V13.0935Z" fill="white"/>
<path d="M74.1946 31.083C74.5577 31.2147 74.9995 31.2422 75.2253 31.2422C75.2335 31.2147 75.2464 31.1802 75.257 31.138C75.2769 31.0719 75.2957 31.0051 75.3097 30.9326C75.3731 30.6077 75.3954 30.2412 75.4007 30.0042C75.2482 29.9081 75.0311 29.7401 74.9103 29.4873C74.7718 29.1964 74.5736 29.0605 74.2849 29.0605C73.9089 29.0605 73.5065 29.286 73.3329 29.3919C73.1957 30.2014 73.7934 30.9355 74.1946 31.083Z" fill="white"/>
<path d="M82.4558 27.9773C81.7624 28.7307 80.4039 30.0407 80.3387 30.1062L80.2566 30.1888L75.9662 30.1209C75.9632 30.5453 75.894 30.9059 75.8272 31.1705C75.8166 31.2144 75.8042 31.26 75.7925 31.3062L80.896 32.2218C81.4269 31.8513 82.8881 30.7865 83.4559 30.3691C83.0436 29.7679 83.0042 29.0544 83.097 28.5522C82.826 28.38 82.62 28.184 82.4558 27.9773Z" fill="white"/>
<path d="M83.0372 22.8281C82.0488 23.8063 81.1009 24.1693 80.2538 24.2529C80.0995 24.2688 79.9447 24.2787 79.7869 24.2787H79.7745H79.7657C79.6074 24.2787 79.4513 24.2688 79.2982 24.2529C79.1498 24.2401 78.9949 24.216 78.8395 24.1809C78.7838 24.4016 78.7134 24.8606 78.9145 25.2978C79.0941 25.6929 79.4584 25.9868 79.9898 26.1829L80.1682 26.2525L80.1711 26.4445C80.1711 26.5013 80.2139 27.7476 81.5737 28.0934C81.7954 27.8652 81.9972 27.6585 82.1468 27.4859C81.8693 26.8332 82.0148 26.1665 82.4184 25.8398C82.4008 25.9089 82.2237 27.5438 83.5365 28.1515L83.753 28.2539L83.6884 28.4839C83.6673 28.5524 83.2291 30.1352 84.8193 30.7235L85.1009 30.83L84.9766 31.1022C84.9484 31.1631 84.3255 32.5978 85.7937 33.4138H88.9784V30.8909C87.8457 30.7527 87.3664 29.8443 87.2426 29.2016C86.7159 29.1114 86.3088 28.8843 86.029 28.5149C85.3614 27.6369 85.9357 26.8332 85.9433 26.7893C85.9421 26.7963 85.9433 27.6521 86.4725 28.1807C86.7352 28.4347 87.0456 28.6326 87.5155 28.6771L87.7471 28.6976L87.7671 28.9341C87.7712 28.9844 87.8985 30.1434 88.9784 30.3249L88.9755 25.1708C88.9755 24.3723 89.209 23.5698 89.4899 22.8281H83.0372Z" fill="white"/>
<path d="M74.4662 25.19L74.3793 28.4709L74.7536 28.5283L75.6676 25.379L75.2041 24.4109L74.4662 25.19Z" fill="white"/>
<path d="M84.5447 40.245C84.5728 40.245 84.6045 40.2485 84.635 40.2561C85.204 40.4182 85.3478 42.4641 86.345 42.6467C86.4435 42.6672 86.5333 42.673 86.6124 42.673C86.9011 42.673 87.073 42.5507 87.2583 42.3318C87.2583 42.3318 86.7562 41.5451 86.3813 41.0136C85.8821 40.3181 85.4956 39.4787 84.5664 39.4787C84.5447 39.4787 84.5177 39.4787 84.4948 39.4816C84.1892 39.4975 84.0003 39.6461 84.0003 39.6461C83.6242 39.4102 83.2735 39.3301 82.9573 39.3301C82.376 39.3301 81.9237 39.5964 81.6967 39.5964H81.6885L79.6148 39.3921C79.291 39.3611 79.034 39.035 78.942 38.908C78.9191 38.8729 78.9062 38.8524 78.9062 38.8524C78.9062 38.7962 78.9062 38.7388 78.9027 38.6873C78.8329 36.9951 77.52 36.2716 77.0525 36.2598C77.0525 36.2598 77.1077 35.9379 76.9816 35.8155L76.5234 36.3693L75.0234 35.6177L76.094 36.8657L75.1877 37.8813C75.0733 37.9972 75.088 38.1535 75.1355 38.2196L75.5267 38.565L76.0236 38.2641C76.0482 38.246 76.094 38.2401 76.1486 38.2401C76.2858 38.2401 76.4923 38.2758 76.6771 38.2758C76.8801 38.2758 77.0549 38.2325 77.076 38.0428C77.0138 38.6704 76.4301 39.7603 76.8132 40.6172L77.0971 41.2641L75.264 41.0006L74.4057 42.4465C74.1412 42.9277 74.0995 43.4481 74.3541 43.732L74.675 44.1323C74.675 44.1323 75.1255 43.6565 75.2264 43.3427L75.0803 43.1829C74.9578 43.0483 74.9636 42.9277 75.0393 42.7831L75.5772 41.8928L77.7412 42.4015L77.8556 42.2071C78.0028 41.963 78.214 41.891 78.4457 41.891C78.5419 41.891 78.6393 41.9027 78.7407 41.9185C79.1432 41.9976 79.8037 42.1035 80.4648 42.1035C81.1899 42.1035 81.9103 41.9747 82.2938 41.5451C83.0781 42.7046 84.6661 42.889 84.5412 43.4785L84.1229 45.4647C84.3992 45.453 84.6661 45.4348 84.9195 45.3997L85.3172 43.3333C85.3613 43.108 85.4029 42.8059 85.4029 42.8059C85.2497 42.6502 84.8784 42.323 84.6696 41.9238C84.3892 41.3864 84.5412 41.1054 84.2807 40.4071C84.2807 40.4071 84.3611 40.245 84.5447 40.245ZM76.4459 37.3398C76.3398 37.3369 76.2618 37.2467 76.2682 37.1402C76.277 37.0384 76.3639 36.9576 76.4688 36.9669C76.5756 36.9711 76.6513 37.0647 76.6478 37.1654C76.6378 37.2696 76.5487 37.3486 76.4459 37.3398Z" fill="white"/>
<path d="M73.4911 42.1244C73.4911 42.1244 74.2091 41.8293 74.2725 41.6203L74.1769 41.3809C74.1089 41.2252 74.1182 41.0566 74.2496 40.9653L75.0234 40.4309L76.3169 40.6791C76.3169 40.6791 76.0828 40.3864 76.1057 39.9959L74.8709 39.7349L73.707 40.4426C73.2072 40.8149 73.1714 41.4242 73.3363 41.7854L73.4911 42.1244Z" fill="white"/>
<path d="M82.6414 45.4907C82.8726 45.4814 83.1295 45.4779 83.4093 45.4779C83.4093 45.4779 84.0751 43.5351 84.1126 43.4736C83.7395 43.3091 82.9647 42.8988 82.6655 42.7114C82.8637 43.0065 83.3436 43.3425 83.2485 43.603L82.6414 45.4907Z" fill="white"/>
<path d="M88.9783 33.97H70.5759V40.8772C70.5759 43.7022 72.6243 45.4706 75.6477 45.4706C78.1731 45.4706 78.8395 45.5689 79.7786 46.4991C80.4262 45.8546 80.9612 45.614 82.0611 45.5244L82.0869 45.4173L82.6671 43.6284C82.6348 43.588 81.6863 42.5133 81.6863 42.5133C81.3102 42.638 80.994 42.6585 80.4643 42.6585C79.9193 42.6585 79.3052 42.5953 78.6376 42.47C78.5708 42.4548 78.508 42.4483 78.4458 42.4483C78.3637 42.4483 78.3585 42.4548 78.3367 42.4952L78.2218 42.6849L78.0111 43.0326L77.6134 42.9412L75.8471 42.5262L75.6049 42.9248L75.6413 42.9676L75.8559 43.204L75.7603 43.5119C75.6307 43.9141 75.209 44.3847 75.0805 44.5141L74.6394 44.9865L74.2369 44.4796L73.9348 44.1014C73.6168 43.7461 73.5435 43.204 73.7225 42.6345C73.7183 42.638 73.7119 42.6409 73.7049 42.6421L73.2069 42.8476L72.9827 42.3617L72.8255 42.0175C72.5545 41.4111 72.6542 40.5254 73.3846 39.9898L74.8059 39.1891L76.1586 39.4543C76.1909 39.3248 76.2396 38.8612 76.2783 38.743C76.2519 38.7401 76.2279 38.7343 76.2009 38.7343L75.4219 39.0246L74.6693 38.5071C74.6693 38.5071 74.3754 38.2244 74.6423 37.9417L75.3697 36.8412L73.5248 34.5308L76.3599 35.6927L76.5487 35.4597L76.9312 35.0026L77.3659 35.4147C77.4885 35.5329 77.5589 35.6781 77.5935 35.8238C78.3743 36.1276 79.7751 37.0232 79.8983 38.479L79.4601 38.654V38.6646C79.561 38.7834 79.6437 38.832 79.6695 38.8367L81.6933 39.0351C81.7449 39.0263 81.8082 39.0035 81.8804 38.9824C82.1321 38.897 82.5087 38.7734 82.9569 38.7734C83.3217 38.7734 83.6736 38.8566 84.0133 39.0146C84.1377 38.9678 84.2913 38.9333 84.4691 38.9216L84.5665 38.9192C85.6494 38.9192 86.189 39.7264 86.6208 40.3715C86.693 40.4833 86.7645 40.588 86.8396 40.6923C87.2174 41.2255 87.7119 42.004 87.7318 42.038L87.9547 42.3857L87.682 42.703C87.472 42.9459 87.1552 43.231 86.6126 43.231C86.5005 43.231 86.3785 43.2187 86.2459 43.1935C86.131 43.1719 86.0253 43.1374 85.9245 43.0952C85.9092 43.2017 85.8864 43.3287 85.867 43.4382L85.5121 45.2862C87.6344 44.7652 88.9819 43.1666 88.9819 40.8772L88.9783 33.97Z" fill="#989898"/>
<path d="M70.5758 33.4138H84.8891C84.174 32.6769 84.1846 31.7438 84.3664 31.138C84.1582 31.0384 83.9863 30.919 83.8332 30.7873C83.2736 31.1988 81.5665 32.4392 81.1201 32.7506L81.0245 32.8144L75.4072 31.8012H75.2933C75.1584 31.8012 74.9613 31.7959 74.7454 31.7701C74.685 32.0236 74.4662 32.1963 74.2157 32.1963C74.187 32.1963 74.1553 32.1939 74.126 32.1881C73.98 32.1623 73.852 32.0886 73.767 31.9657C73.679 31.845 73.6444 31.7016 73.6685 31.5541L73.6896 31.4329C73.1106 31.0261 72.5756 30.1159 72.8125 29.157L72.8355 29.0558L72.9175 28.9973C72.9293 28.9885 73.0261 28.9224 73.1716 28.8404L72.7633 28.7778C72.6108 28.7508 72.5081 28.6086 72.5316 28.4582C72.558 28.306 72.7017 28.1971 72.8519 28.2263L73.8245 28.3797L73.9131 24.963L75.3596 23.4358L76.263 25.3329L75.3098 28.6197L76.1691 28.7549C76.3205 28.7783 76.4237 28.92 76.4008 29.0751C76.3785 29.2127 76.2606 29.3058 76.1257 29.3058C76.1111 29.3058 76.0958 29.3058 76.0811 29.304L75.3825 29.1916C75.3919 29.2127 75.4054 29.225 75.4141 29.2467C75.4881 29.4006 75.6535 29.5094 75.7503 29.5575L80.032 29.6254C80.2138 29.4492 80.6625 29.0102 81.1254 28.5453C80.0712 28.1462 79.6882 27.2406 79.6248 26.6389C79.0359 26.3883 78.6288 26.0131 78.4036 25.5261C78.129 24.922 78.2264 24.3167 78.3003 24.0229C77.729 23.8151 77.1288 23.4358 76.5152 22.8281H70.0649C70.3418 23.5698 70.5758 24.3723 70.5758 25.1708V33.4138Z" fill="#989898"/>
<path d="M76.4688 36.9671C76.3639 36.9572 76.2771 37.0385 76.2682 37.1404C76.2612 37.2469 76.3398 37.337 76.4459 37.34C76.5487 37.3481 76.6378 37.2698 76.6478 37.1655C76.6513 37.0649 76.5756 36.9712 76.4688 36.9671Z" fill="#989898"/>
<path d="M88.9536 49.4951L87.8937 49.0894L88.1864 47.996L88.509 46.8047C88.509 46.8047 86.6307 47.8221 83.9834 48.5854C83.2324 48.7996 82.6641 48.898 82.6641 48.898V49.7093C82.6641 49.7093 81.248 49.9545 79.8179 49.9545H79.8008H79.7791H79.7515H79.7357C78.3038 49.9545 76.89 49.7093 76.89 49.7093V48.898C76.89 48.898 76.3205 48.7996 75.5708 48.5854C72.9241 47.8221 71.0474 46.8047 71.0474 46.8047L71.3648 47.996L71.6634 49.0894L70.5999 49.4951L69.4202 49.9346C70.7718 50.5861 72.6454 51.5338 74.3595 52.0021L73.9552 53.105C73.9552 53.105 76.1298 54.093 79.7515 54.1024V54.1041H79.7621H79.7791H79.7926H79.8008V54.1024C83.4273 54.093 85.5994 53.105 85.5994 53.105L85.1935 52.0021C86.9082 51.5338 88.7847 50.5861 90.1304 49.9346L88.9536 49.4951ZM70.6779 50.0078L72.4219 49.4301L71.9063 47.7513C72.6753 48.1855 74.3976 48.8394 75.3954 49.1427L74.5542 51.4501C73.0126 51.0275 71.7302 50.5352 70.6779 50.0078ZM79.7791 53.524C77.7536 53.524 75.4417 53.0593 74.7601 52.817L75.7949 50.023C76.6536 50.2735 78.4399 50.5388 79.7357 50.5306H79.7386H79.7791H79.8137H79.8179C81.1137 50.5388 82.8976 50.2735 83.7604 50.023L84.7934 52.817C84.1124 53.0593 81.8006 53.524 79.7791 53.524ZM84.9981 51.4501L84.1582 49.1427C85.1578 48.8394 86.8777 48.1855 87.6478 47.7513L87.134 49.4301L88.8756 50.0078C87.8221 50.5352 86.5451 51.0275 84.9981 51.4501Z" fill="#989898"/>
<path d="M79.7748 5.87884C81.933 5.87884 83.6594 6.59242 84.6132 7.35276C84.6132 7.35276 84.8965 5.6506 85.8638 4.14912L84.1257 4.34636L83.2159 2.41878L81.4695 3.31728L79.7748 1.64673L78.0854 3.31728L76.335 2.41878L75.4269 4.34636L73.6894 4.14912C74.6573 5.6506 74.9394 7.35276 74.9394 7.35276C75.8997 6.59242 77.6203 5.87884 79.7748 5.87884ZM75.3506 5.02243L75.8322 5.0728L76.0405 4.63438L76.6477 3.33841L77.7745 3.92026L78.211 4.14269L78.5588 3.7991L79.7748 2.59559L80.9938 3.7991L81.3429 4.14269L81.7793 3.92026L82.9003 3.33841L83.5156 4.63438L83.7197 5.0728L84.202 5.02243L84.6624 4.96687C84.4519 5.44103 84.2959 5.8917 84.1849 6.26398C82.9684 5.58791 81.388 5.20276 79.7748 5.20276C78.1693 5.20276 76.5902 5.58791 75.3694 6.26398C75.2568 5.8917 75.1025 5.44103 74.8919 4.96687L75.3506 5.02243Z" fill="#989898"/>
<path d="M105.091 28.4582C107.881 28.4582 108.815 25.6256 108.853 25.5044L109.165 24.5058L108.119 24.5386H108.115C107.747 24.5386 104.667 24.4566 102.484 21.6885L102.278 21.4314C100.852 19.6221 99.4996 17.9 97.081 17.1151C97.1508 17.0518 97.2511 16.9745 97.3884 16.8856C98.6719 16.0438 99.418 15.02 99.6057 13.8329C99.8803 12.0464 98.7376 10.6211 98.6871 10.5631L97.9104 9.60431L97.4248 10.7416C97.3925 10.813 96.5765 12.6335 94.8589 12.6335H94.731C94.6137 12.6271 94.5005 12.6224 94.3908 12.6136C94.4512 11.8017 94.3028 10.545 93.1601 9.36489C91.7863 7.94592 90.1021 7.73291 89.2216 7.73291C88.7511 7.73291 88.4385 7.79085 88.4039 7.79437L87.2306 8.02675L87.9546 8.97913C88.5224 9.71315 89.0375 11.0677 88.4268 11.7748C88.2309 12.0002 87.8296 12.1822 87.446 12.366C86.6558 12.7284 85.5759 13.2353 85.5759 14.5224C85.5759 15.3549 86.2241 16.2264 87.3979 16.967C90.8723 19.1474 93.0158 21.4227 93.9421 23.9345C95.3746 27.7979 93.505 30.0011 91.6907 31.1631L90.8764 31.6852L91.5892 32.3385C91.6854 32.4228 92.5559 33.189 93.8441 33.2991C94.0881 33.3149 94.321 33.3283 94.5398 33.3283C95.3646 33.3283 96.068 33.199 96.6392 33.0245C96.4827 33.2991 96.2879 33.5801 96.0456 33.8616C95.0085 35.0604 93.7321 35.6066 91.8972 35.6358L91.2149 35.6469L91.1627 36.3295C91.1562 36.4671 91.1052 37.7332 92.3055 38.8091C92.489 38.976 92.7108 39.1129 92.9442 39.2247C92.1294 39.9564 91.3023 41.2301 91.1422 43.4123C91.0066 45.234 90.572 45.9078 90.5661 45.9148L89.8129 47.0633L91.175 47.0814C93.4259 47.0814 95.1487 46.4621 96.343 45.234C97.0488 44.5076 97.4524 43.6869 97.6904 42.9611C98.0823 43.2936 98.5875 43.5862 99.2474 43.7413C99.4973 43.7999 99.7706 43.8315 100.067 43.8315C100.703 43.8315 101.235 43.6968 101.295 43.6828L102.164 43.4521L101.78 42.6426C101.752 42.5776 101.026 40.9515 101.807 38.6329C102.142 37.6296 102.315 36.7322 102.398 36.0327C102.946 36.3172 103.679 36.5526 104.627 36.5555C106.78 36.5555 107.73 34.9504 107.772 34.8831L108.196 34.1461L107.41 33.823C104.844 32.7599 104.276 29.9052 104.163 28.3604C104.394 28.4054 104.659 28.4465 104.959 28.4547L105.091 28.4582ZM107.124 34.5084C107.124 34.5084 106.373 35.8126 104.649 35.8126H104.628C102.559 35.8009 101.725 34.5412 101.725 34.5412C101.725 34.5412 101.844 36.1797 101.099 38.3911C100.201 41.0568 101.107 42.9611 101.107 42.9611C101.107 42.9611 100.623 43.0916 100.067 43.0916C99.8545 43.0916 99.6322 43.0705 99.4227 43.0161C97.6946 42.6063 97.2634 41.0364 97.2634 41.0364C97.2634 41.0364 97.4224 46.3391 91.2261 46.3391H91.1779C91.1779 46.3391 91.7241 45.5981 91.8848 43.4656C92.1793 39.5309 94.8489 38.9906 94.8489 38.9906C94.8489 38.9906 93.4241 38.812 92.8064 38.26C91.8408 37.3867 91.9094 36.3775 91.9094 36.3775C94.0893 36.347 95.5178 35.6066 96.6059 34.3504C97.7849 32.99 97.9785 31.5243 97.9785 31.5243C97.9785 31.5243 96.8058 32.585 94.5398 32.585C94.3404 32.585 94.1274 32.575 93.9086 32.5539C92.8357 32.4673 92.0948 31.7871 92.0948 31.7871C94.4547 30.2768 96.1096 27.6427 94.6419 23.6757C93.4657 20.4961 90.64 18.1213 87.7944 16.3324C86.8482 15.7429 86.3203 15.0862 86.3203 14.5224C86.3203 13.1937 88.2144 13.151 88.9899 12.2589C89.8863 11.2211 89.3242 9.53932 88.5476 8.52602C88.5476 8.52602 88.8093 8.47275 89.2216 8.47275C90.0405 8.47275 91.4577 8.67825 92.6222 9.88352C94.1691 11.4798 93.5279 13.2194 93.5279 13.2194L93.9421 13.3003C94.1896 13.3523 94.4366 13.3617 94.6923 13.3752C94.7474 13.3752 94.8044 13.3781 94.8589 13.3781C97.1062 13.3781 98.1105 11.0338 98.1105 11.0338C98.1105 11.0338 100.499 13.9658 96.9819 16.2639C96.3771 16.6567 96.1096 17.0214 96.1799 17.4094L96.2346 17.6641L96.485 17.7086C99.0338 18.3987 100.324 20.1536 101.899 22.1486C104.292 25.1825 107.676 25.2808 108.093 25.2808H108.139C108.139 25.2808 107.367 27.7136 105.091 27.7136C105.052 27.7136 105.02 27.7136 104.983 27.7112C103.937 27.6738 103.401 27.2746 103.401 27.2746C103.401 27.2746 102.993 32.7968 107.124 34.5084Z" fill="#989898"/>
<path d="M100.187 17.4229C101.227 17.976 101.835 18.7176 102.366 19.375C102.889 20.0172 103.384 20.6341 104.16 20.8911C104.436 20.9853 104.728 21.0304 105.027 21.0304C106.191 21.0304 107.36 20.3192 107.804 19.3346L108.25 18.3477L107.171 18.2839C107.12 18.2827 105.731 18.1557 104.187 16.5811C103.552 15.9349 102.783 15.5959 101.955 15.5959C100.943 15.5959 100.193 16.1 100.111 16.152L99.1186 16.8492L100.187 17.4229ZM101.955 16.3388C102.475 16.3388 103.081 16.5155 103.654 17.1062C105.452 18.9278 107.125 19.0297 107.125 19.0297C106.821 19.7016 105.94 20.2905 105.027 20.2905C104.816 20.2905 104.604 20.2589 104.394 20.1863C103.157 19.7696 102.714 17.9181 100.541 16.7643C100.541 16.7643 101.147 16.3388 101.955 16.3388Z" fill="#989898"/>
<path d="M100.676 27.2582V27.2962C100.05 22.2534 96.3799 18.6113 92.296 16.3981C91.9188 16.1955 91.5692 16.0245 91.2313 15.8607C92.4737 16.0532 94.4764 16.0761 96.0221 14.7385C96.0221 14.7385 93.6575 16.4747 88.8139 14.8977C90.1537 15.7658 92.7594 16.991 95.1387 18.9754C101.085 24.1892 96.8311 29.2748 96.8311 29.2748C98.9675 27.0492 99.0566 24.6656 98.4278 22.7188C99.5529 24.5878 100.272 26.8555 100.16 29.6535C99.9964 33.6609 97.7889 37.1268 95.4667 39.9114C94.3503 41.2624 94.101 42.923 94.101 42.923C94.101 42.923 94.5515 41.4579 95.8432 39.95C98.3322 37.042 100.461 34.0221 100.74 29.6694C100.997 30.4596 102.058 32.6546 103.739 33.4818C103.739 33.4818 101.625 32.2109 100.676 27.2582Z" fill="#989898"/>
<path d="M68.9861 45.9146C68.9844 45.9075 68.5515 45.2337 68.413 43.4121C68.2511 41.2299 67.424 39.9562 66.6074 39.2245C66.8432 39.1126 67.0621 38.9757 67.2462 38.8088C68.4458 37.7329 68.3948 36.4668 68.3866 36.3293L68.3403 35.6468L67.6534 35.6356C65.8238 35.6064 64.5449 35.0602 63.5078 33.8614C63.2673 33.5798 63.0725 33.2988 62.9141 33.0244C63.4849 33.1988 64.1842 33.3281 65.0113 33.3281C65.233 33.3281 65.4641 33.3147 65.7076 33.2988C66.9958 33.1888 67.8681 32.4231 67.9648 32.3383L68.6782 31.685L67.864 31.1628C66.0431 30.001 64.1813 27.7976 65.6114 23.9343C66.5376 21.4225 68.6782 19.1472 72.158 16.9667C73.3317 16.2262 73.9747 15.3546 73.9747 14.5223C73.9747 13.235 72.8976 12.7281 72.1075 12.3658C71.7227 12.182 71.322 11.9999 71.1267 11.7746C70.5148 11.0674 71.0304 9.7129 71.5983 8.97889L72.3269 8.0265L71.1478 7.79413C71.1132 7.79061 70.804 7.73267 70.3318 7.73267C69.4507 7.73267 67.7701 7.94575 66.3974 9.36465C65.2529 10.5453 65.1028 11.8015 65.1614 12.6134C65.0511 12.6222 64.9397 12.6268 64.8224 12.6333H64.6969C62.9746 12.6333 62.161 10.8129 62.1293 10.7414L61.6453 9.60406L60.861 10.5629C60.8171 10.6208 59.6714 12.0461 59.95 13.8327C60.1348 15.0198 60.8827 16.0436 62.1662 16.8854C62.3059 16.9743 62.4027 17.0516 62.473 17.1148C60.0509 17.8998 58.7 19.6219 57.2739 21.4313L57.068 21.6882C54.8882 24.4564 51.8027 24.5383 51.4336 24.5383L50.3819 24.5056L50.7021 25.5042C50.7391 25.6253 51.6695 28.4579 54.4617 28.4579L54.5966 28.4544C54.8923 28.4462 55.1569 28.4053 55.3927 28.3602C55.2771 29.9049 54.7075 32.7598 52.1411 33.8227L51.3574 34.1459L51.7815 34.8828C51.8226 34.9502 52.7746 36.5552 54.9316 36.5552C55.8743 36.5523 56.6069 36.3169 57.1554 36.0331C57.2387 36.732 57.4106 37.6294 57.7474 38.6327C58.5281 40.9513 57.8013 42.5774 57.7737 42.6424L57.3877 43.452L58.2594 43.6826C58.3169 43.6966 58.8525 43.8312 59.4861 43.8312C59.7823 43.8312 60.0562 43.7996 60.3038 43.7411C60.9643 43.586 61.4746 43.2933 61.863 42.9608C62.0994 43.6866 62.5047 44.5073 63.2087 45.2337C64.4065 46.4619 66.1276 47.0812 68.3772 47.0812L69.7405 47.063L68.9861 45.9146ZM68.3273 46.3389C62.1305 46.3389 62.2888 41.0362 62.2888 41.0362C62.2888 41.0362 61.8565 42.6061 60.1295 43.0159C59.923 43.0703 59.7019 43.0913 59.4861 43.0913C58.93 43.0913 58.4489 42.9608 58.4489 42.9608C58.4489 42.9608 59.3499 41.0567 58.4519 38.3909C57.7092 36.18 57.8294 34.541 57.8294 34.541C57.8294 34.541 56.9964 35.8007 54.9252 35.8124H54.9046C53.1818 35.8124 52.4297 34.5082 52.4297 34.5082C56.5582 32.7967 56.1541 27.2743 56.1541 27.2743C56.1541 27.2743 55.6173 27.6735 54.5703 27.711C54.5321 27.7134 54.4981 27.7134 54.4617 27.7134C52.1845 27.7134 51.4125 25.2806 51.4125 25.2806H51.4589C51.8795 25.2806 55.2601 25.1823 57.6511 22.1483C59.2267 20.1534 60.5185 18.3991 63.0638 17.7084L63.3195 17.6638L63.374 17.4093C63.4444 17.0211 63.1781 16.6565 62.5733 16.2637C59.0566 13.9656 61.4447 11.0341 61.4447 11.0341C61.4447 11.0341 62.4437 13.3778 64.6969 13.3778C64.7514 13.3778 64.803 13.3756 64.8611 13.3756C65.114 13.3615 65.3639 13.3521 65.6114 13.3L66.0255 13.2193C66.0255 13.2193 65.382 11.4795 66.9324 9.88328C68.0974 8.67801 69.5135 8.47311 70.3318 8.47311C70.7466 8.47311 71.004 8.52585 71.004 8.52585C70.2297 9.53908 69.6678 11.2208 70.5641 12.2587C71.3396 13.1508 73.2308 13.1935 73.2308 14.5223C73.2308 15.086 72.7041 15.7427 71.7584 16.3322C68.9111 18.121 66.0866 20.4959 64.911 23.6755C63.4444 27.6431 65.0992 30.2767 67.4621 31.7869C67.4621 31.7869 66.7195 32.4671 65.6448 32.5537C65.426 32.5748 65.2148 32.5847 65.0113 32.5847C62.7475 32.5847 61.5755 31.524 61.5755 31.524C61.5755 31.524 61.7703 32.9898 62.9423 34.3507C64.0375 35.6064 65.4641 36.3468 67.644 36.3773C67.644 36.3773 67.7132 37.3864 66.7494 38.2598C66.1305 38.8118 64.7045 38.9903 64.7045 38.9903C64.7045 38.9903 67.3765 39.5306 67.6704 43.4654C67.8299 45.5978 68.372 46.3389 68.372 46.3389H68.3273Z" fill="#989898"/>
<path d="M54.5254 21.0301C54.8246 21.0301 55.1167 20.9857 55.393 20.8914C56.1714 20.6338 56.666 20.0174 57.1886 19.3747C57.723 18.7179 58.3232 17.9757 59.3643 17.4225L60.4361 16.8495L59.4412 16.1517C59.3579 16.0996 58.6117 15.5962 57.601 15.5962C56.771 15.5962 56.0014 15.9346 55.366 16.5814C53.8203 18.156 52.4354 18.283 52.3849 18.2842L51.3067 18.3474L51.7496 19.3349C52.1948 20.3189 53.3633 21.0301 54.5254 21.0301ZM55.8981 17.1059C56.4729 16.5152 57.0783 16.3385 57.601 16.3385C58.4041 16.3385 59.0124 16.764 59.0124 16.764C56.8419 17.9183 56.3944 19.7698 55.1543 20.1866C54.9495 20.2592 54.7372 20.2902 54.5254 20.2902C53.6138 20.2902 52.731 19.7019 52.4301 19.0294C52.4301 19.0294 54.1013 18.9275 55.8981 17.1059Z" fill="#989898"/>
<path d="M59.3954 29.6535C59.2793 26.856 59.999 24.5883 61.1259 22.7187C60.4976 24.6656 60.5827 27.0491 62.7226 29.2753C62.7226 29.2753 58.468 24.1891 64.4167 18.9753C66.7948 16.9909 69.3982 15.7657 70.738 14.8977C65.8962 16.4746 63.5316 14.739 63.5316 14.739C65.0767 16.0765 67.0794 16.0537 68.3212 15.8606C67.9857 16.0245 67.6326 16.1954 67.2577 16.3979C63.1725 18.6112 59.5045 22.2533 58.8757 27.2967V27.2582C57.9271 32.2109 55.8154 33.4817 55.8154 33.4817C57.4954 32.6546 58.5536 30.4595 58.8111 29.6692C59.0921 34.022 61.2203 37.0418 63.7093 39.9499C65.0004 41.4578 65.4557 42.923 65.4557 42.923C65.4557 42.923 65.2034 41.2623 64.0818 39.9113C61.7635 37.1273 59.5573 33.6608 59.3954 29.6535Z" fill="#989898"/>
<path d="M78.3771 19.4497V20.4501C78.7232 20.0304 79.3902 20.1158 79.3902 20.1158V21.5576C79.3902 21.5576 79.3672 22.2671 79.1144 22.5738H79.8389H80.5598C80.3105 22.2671 80.2853 21.5576 80.2853 21.5576V20.1158C80.2853 20.1158 80.9546 20.0304 81.2978 20.4501V19.4497H79.8389H78.3771Z" fill="#989898"/>
<path d="M77.7561 13.5188C78.2189 13.8846 78.4852 13.9455 78.4941 13.9514L78.6747 14.0345V13.0932L76.9765 12.3809C76.9765 12.3809 76.9912 12.9264 77.7561 13.5188Z" fill="#989898"/>
<path d="M81.7953 13.5188C82.5626 12.9264 82.5773 12.3809 82.5773 12.3809L80.8784 13.0932V14.0345L81.0579 13.9514C81.0673 13.9455 81.3336 13.8846 81.7953 13.5188Z" fill="#989898"/>
<path d="M84.8542 9.68356C84.8542 8.25472 82.4439 6.96924 79.7837 6.96924H79.7813H79.7748H79.7684C77.1081 6.96924 74.6977 8.25472 74.6977 9.68356L74.7506 10.0348L75.8129 16.1202L74.7458 16.7383L71.9853 18.3475H71.9953C71.9953 18.3475 71.3741 18.6653 71.086 18.8614C70.0348 19.5896 69.8113 20.6532 70.4219 21.0923C70.5721 20.2253 71.2591 19.3198 72.5449 19.3198C73.4706 19.3198 74.1768 19.7968 74.7458 20.5116C74.8931 20.6919 75.0321 20.885 75.1618 21.0923C75.3213 21.3539 75.482 21.584 75.641 21.8046H68.5296C69.0523 22.853 69.5491 23.9634 69.5491 25.1705V40.8769C69.5491 44.6793 72.4786 46.4934 75.6481 46.4934C78.0977 46.4934 78.4274 46.3816 79.779 47.7256C81.124 46.3816 81.4543 46.4934 83.9057 46.4934C87.0769 46.4934 90.0029 44.6793 90.0029 40.8769V25.1705C90.0029 23.9634 90.4992 22.853 91.0242 21.8046H83.9104C84.0688 21.584 84.229 21.3539 84.3891 21.0923C84.5205 20.885 84.659 20.6919 84.8026 20.5116C85.377 19.7939 86.0815 19.3198 87.0077 19.3198C88.2924 19.3198 88.9781 20.2253 89.1307 21.0923C89.7413 20.6532 89.5202 19.5896 88.4631 18.8614C88.1798 18.6653 87.5579 18.3475 87.5579 18.3475H87.5673L84.8026 16.7383L83.7397 16.1202L84.8026 10.0348L84.8542 9.68356ZM75.7413 10.3901L79.4762 11.6545V17.5104L76.7262 16.0646L75.7413 10.3901ZM76.5151 22.8279C77.1287 23.4361 77.7293 23.8148 78.3001 24.0226C78.2262 24.3164 78.1288 24.9222 78.4033 25.5264C78.6286 26.0134 79.0357 26.3886 79.6247 26.6386C79.6886 27.2409 80.0711 28.1459 81.1258 28.5451C80.663 29.0098 80.2137 29.4489 80.0318 29.6257L75.7507 29.5577C75.6539 29.5097 75.4879 29.4003 75.414 29.2463C75.4058 29.2247 75.3917 29.213 75.3829 29.1918L76.081 29.3043C76.0963 29.306 76.1109 29.306 76.1256 29.306C76.2611 29.306 76.3784 29.213 76.4007 29.0748C76.4235 28.9203 76.3203 28.7786 76.1696 28.7547L75.3102 28.6194L76.2634 25.3332L75.3601 23.4361L73.9134 24.9633L73.8243 28.38L72.8517 28.2261C72.7015 28.1968 72.5578 28.3062 72.5314 28.4584C72.5079 28.6083 72.6106 28.7511 72.7637 28.778L73.1714 28.8401C73.0259 28.9227 72.9291 28.9888 72.918 28.9975L72.8352 29.0555L72.8124 29.1568C72.576 30.1161 73.111 31.0258 73.6894 31.4332L73.6688 31.5544C73.6448 31.7019 73.6788 31.8453 73.7674 31.9659C73.8519 32.0888 73.9797 32.1626 74.1258 32.1884C74.1551 32.1936 74.1874 32.196 74.2156 32.196C74.466 32.196 74.6848 32.0233 74.7458 31.7704C74.9611 31.7962 75.1583 31.8014 75.2932 31.8014H75.4075L81.0243 32.8141L81.1199 32.7509C81.5669 32.4389 83.2733 31.1985 83.833 30.787C83.9867 30.9193 84.1586 31.0387 84.3662 31.1382C84.1849 31.7441 84.1738 32.6772 84.8895 33.4135H70.5757V25.1705C70.5757 24.372 70.3416 23.5695 70.0647 22.8279H76.5151ZM83.4558 30.369C82.8886 30.7864 81.4267 31.8518 80.8959 32.2217L75.7924 31.3062C75.8041 31.2606 75.8164 31.2149 75.8276 31.1704C75.8944 30.9058 75.9631 30.5452 75.9665 30.1209L80.2565 30.1893L80.3386 30.1062C80.4036 30.0412 81.7628 28.7306 82.4556 27.9772C82.6204 28.1839 82.8258 28.38 83.0968 28.5527C83.0041 29.0543 83.0434 29.7679 83.4558 30.369ZM74.9101 29.4875C75.0309 29.7403 75.248 29.9083 75.4005 30.0044C75.3952 30.2414 75.3729 30.6079 75.3102 30.9327C75.2955 31.0053 75.2768 31.072 75.2568 31.1382C75.2462 31.1803 75.2339 31.2149 75.2251 31.2424C74.9992 31.2424 74.5575 31.2149 74.1944 31.0832C73.7938 30.9356 73.1954 30.2016 73.3333 29.3921C73.5064 29.2861 73.9088 29.0607 74.2854 29.0607C74.574 29.0607 74.7723 29.1966 74.9101 29.4875ZM74.3792 28.4713L74.466 25.1904L75.204 24.4113L75.6674 25.3794L74.7535 28.5287L74.3792 28.4713ZM83.4089 45.4778C83.1297 45.4778 82.8721 45.4819 82.6416 45.4907L83.2487 43.6034C83.3437 43.3424 82.8639 43.0064 82.6656 42.7114C82.9648 42.8993 83.7397 43.3096 84.1128 43.4735C84.0753 43.535 83.4089 45.4778 83.4089 45.4778ZM85.3171 43.3336L84.92 45.3994C84.6659 45.435 84.3991 45.4532 84.1228 45.4643L84.541 43.4787C84.6659 42.8893 83.078 42.7049 82.2938 41.5447C81.9107 41.9744 81.1897 42.1032 80.4647 42.1032C79.8036 42.1032 79.143 41.9979 78.7407 41.9188C78.6392 41.9024 78.5418 41.8913 78.4456 41.8913C78.2139 41.8913 78.0027 41.9633 77.856 42.2073L77.7411 42.4018L75.5771 41.8931L75.0391 42.7828C74.9635 42.9274 74.9576 43.048 75.0802 43.1832L75.2263 43.3424C75.1253 43.6567 74.6755 44.1326 74.6755 44.1326L74.354 43.7316C74.0994 43.4477 74.141 42.9274 74.4062 42.4462L75.2644 41.0004L77.0975 41.2644L76.813 40.6169C76.43 39.76 77.0137 38.6706 77.0758 38.0431C77.0547 38.2328 76.8799 38.2755 76.677 38.2755C76.4922 38.2755 76.2857 38.2404 76.1484 38.2404C76.0945 38.2404 76.0481 38.2457 76.0235 38.2644L75.5267 38.5647L75.1353 38.2193C75.0878 38.1532 75.0732 37.9974 75.1882 37.881L76.0945 36.8659L75.0233 35.6174L76.5233 36.369L76.9814 35.8152C77.1075 35.9381 77.0524 36.2601 77.0524 36.2601C77.5199 36.2712 78.8333 36.9953 78.9031 38.6871C78.9066 38.7386 78.9066 38.7965 78.9066 38.8521C78.9066 38.8521 78.919 38.8732 78.9418 38.9077C79.034 39.0353 79.2909 39.3614 79.6153 39.3918L81.6883 39.5967H81.6965C81.9236 39.5967 82.3764 39.3303 82.9572 39.3303C83.2733 39.3303 83.6248 39.4105 84.0002 39.6464C84.0002 39.6464 84.1891 39.4972 84.4947 39.4819C84.5175 39.479 84.5445 39.479 84.5662 39.479C85.4954 39.479 85.882 40.3178 86.3812 41.0139C86.7561 41.5447 87.2582 42.332 87.2582 42.332C87.0728 42.551 86.901 42.6733 86.6124 42.6733C86.5331 42.6733 86.4434 42.6669 86.3448 42.647C85.3476 42.4638 85.2039 40.4179 84.6349 40.2563C84.6044 40.2482 84.5733 40.2446 84.5445 40.2446C84.361 40.2446 84.2811 40.4074 84.2811 40.4074C84.541 41.1052 84.3891 41.3867 84.6695 41.9241C84.8783 42.3227 85.2497 42.6505 85.4028 42.8057C85.4028 42.8057 85.3611 43.1077 85.3171 43.3336ZM74.1768 41.3814L74.2725 41.6203C74.2091 41.8292 73.4911 42.1242 73.4911 42.1242L73.3363 41.7853C73.1714 41.4242 73.2072 40.8148 73.707 40.4425L74.8708 39.7348L76.1056 39.9965C76.0828 40.3869 76.3168 40.6796 76.3168 40.6796L75.0233 40.4314L74.2496 40.9653C74.1182 41.0566 74.1088 41.2251 74.1768 41.3814ZM85.5119 45.2864L85.8673 43.4378C85.8861 43.329 85.909 43.2019 85.9243 43.0954C86.0251 43.1375 86.1307 43.1714 86.2457 43.1931C86.3789 43.2183 86.5009 43.2311 86.6124 43.2311C87.1549 43.2311 87.4717 42.9461 87.6817 42.7032L87.9545 42.3859L87.7316 42.0382C87.7117 42.0037 87.2177 41.2251 86.8394 40.6925C86.7643 40.5877 86.6933 40.4835 86.6212 40.3711C86.1894 39.7266 85.6497 38.9194 84.5662 38.9194L84.4694 38.9217C84.2911 38.9329 84.138 38.968 84.0137 39.0148C83.6734 38.8562 83.322 38.7736 82.9572 38.7736C82.5084 38.7736 82.1325 38.8972 81.8808 38.982C81.8086 39.0031 81.7446 39.026 81.6936 39.0353L79.6692 38.8368C79.6434 38.8316 79.5613 38.783 79.4604 38.6642V38.6542L79.8986 38.4792C79.7748 37.0229 78.374 36.1273 77.5933 35.824C77.5592 35.6783 77.4888 35.5331 77.3662 35.4143L76.9309 35.0022L76.5485 35.4599L76.3602 35.6929L73.5251 34.5309L75.3694 36.8414L74.642 37.9419C74.3757 38.224 74.6696 38.5073 74.6696 38.5073L75.4217 39.0242L76.2006 38.7338C76.2276 38.7338 76.2517 38.7402 76.278 38.7432C76.2399 38.8615 76.1913 39.3251 76.159 39.4544L74.8057 39.1892L73.3843 39.9901C72.654 40.5256 72.5543 41.4113 72.8253 42.0178L72.9831 42.3619L73.2072 42.8478L73.7047 42.6423C73.7116 42.6406 73.7187 42.6377 73.7228 42.6341C73.5439 43.2043 73.6172 43.7463 73.9352 44.101L74.2373 44.4797L74.6391 44.9867L75.0802 44.5137C75.2093 44.3849 75.6311 43.9143 75.7601 43.5116L75.8557 43.2043L75.641 42.9678L75.6052 42.9251L75.8475 42.5264L77.6132 42.9414L78.0109 43.0327L78.2221 42.6844L78.337 42.4954C78.3588 42.455 78.364 42.4485 78.4456 42.4485C78.5083 42.4485 78.5705 42.455 78.638 42.4702C79.305 42.5955 79.9191 42.6581 80.4647 42.6581C80.9938 42.6581 81.31 42.6377 81.6866 42.513C81.6866 42.513 82.6345 43.5877 82.6674 43.6286L82.0867 45.4169L82.0608 45.5247C80.961 45.6136 80.426 45.8542 79.779 46.4992C78.8392 45.5691 78.1734 45.4708 75.6481 45.4708C72.6247 45.4708 70.5757 43.7024 70.5757 40.8769V33.9702H88.9781L88.9816 40.8769C88.9816 43.1668 87.6342 44.7654 85.5119 45.2864ZM89.4902 22.8279C89.2087 23.5695 88.9758 24.372 88.9758 25.1705L88.9781 30.3246C87.8987 30.1437 87.7715 28.9841 87.7673 28.9338L87.7474 28.6979L87.5151 28.6773C87.0459 28.6323 86.7349 28.435 86.4728 28.1804C85.9436 27.6524 85.9424 26.7966 85.9436 26.789C85.936 26.8329 85.3611 27.6366 86.0286 28.5146C86.3091 28.884 86.7161 29.1117 87.2424 29.2013C87.3661 29.8446 87.846 30.753 88.9781 30.8912V33.4135H85.794C84.3258 32.5981 84.9481 31.1634 84.9763 31.1019L85.1006 30.8297L84.8197 30.7238C83.2294 30.1355 83.6676 28.5527 83.6887 28.4842L83.7526 28.2535L83.5362 28.1511C82.224 27.5435 82.4011 25.9086 82.4187 25.8396C82.0145 26.1668 81.8691 26.8329 82.1471 27.4862C81.9969 27.6582 81.7951 27.8655 81.5734 28.0937C80.2137 27.7478 80.1714 26.5016 80.1714 26.4442L80.1685 26.2522L79.9895 26.1831C79.4587 25.9871 79.0944 25.6926 78.9143 25.2975C78.713 24.8602 78.7841 24.4013 78.8392 24.1806C78.9952 24.2163 79.1501 24.2403 79.2979 24.2526C79.451 24.2684 79.6076 24.2784 79.7655 24.2784H79.7748H79.7872C79.9444 24.2784 80.0998 24.2684 80.2535 24.2526C81.1012 24.1689 82.0492 23.806 83.0375 22.8279H89.4902ZM84.5293 17.6187L85.787 18.3475H85.8046L86.1208 18.5313C85.4103 18.7274 84.8684 19.0821 84.4126 19.5469C84.3956 19.5615 84.3809 19.5785 84.3627 19.5961C84.2583 19.7073 84.155 19.8267 84.0553 19.9502C84.0371 19.9736 84.0172 19.9982 83.9966 20.0251C83.8998 20.1498 83.8078 20.2786 83.7197 20.4114C83.7051 20.4343 83.6887 20.4571 83.6734 20.4794C83.5696 20.6345 83.4693 20.8002 83.3701 20.9716C82.4744 22.5112 81.0454 23.4313 79.7748 23.4337C78.5054 23.4313 77.0758 22.5112 76.1819 20.9716C76.0845 20.8049 75.986 20.6427 75.8827 20.4864C75.8622 20.4571 75.8434 20.4267 75.8247 20.4015C75.7372 20.2734 75.6481 20.1481 75.5589 20.0304C75.536 19.9982 75.5149 19.9736 75.492 19.9455C75.3952 19.8267 75.2955 19.7084 75.194 19.5996C75.1723 19.5826 75.1583 19.5615 75.1395 19.5439C74.6813 19.078 74.141 18.7274 73.4301 18.5313L73.7492 18.3475H73.7633L75.0233 17.6187L76.3156 16.88L79.7684 18.7555L79.7748 18.7479L79.7848 18.7555L83.237 16.88L84.5293 17.6187ZM82.8258 16.0646L80.0752 17.5104V11.6545L83.8078 10.3901L82.8258 16.0646ZM79.7748 11.0106L75.6833 9.39792C76.0317 8.5755 77.6361 7.87654 79.7748 7.87424C81.9171 7.87654 83.5215 8.5755 83.8676 9.39792L79.7748 11.0106Z" fill="#989898"/>
</g>
<defs>
<clipPath id="clip0">
<rect width="158" height="86" fill="white"/>
</clipPath>
</defs>
</svg>
