<svg width="164" height="28" viewBox="0 0 164 28" fill="none" xmlns="http://www.w3.org/2000/svg">
<path d="M61.4141 8.25001H68.1313L68.1312 26.5H75.3282L75.3282 8.25001H82.0454L82.0454 1.5L61.4141 1.50002V8.25001Z" fill="#989898"/>
<path d="M97.398 8.25005L107.954 8.25002V1.50003H97.3989C87.7 1.50003 82.5219 6.52496 82.5219 14C82.5219 21.4751 87.7 26.5 97.3989 26.5L107.954 26.5V19.75L97.398 19.75C92.9103 19.75 89.9588 18.0781 89.9588 14C89.9588 9.92191 92.9103 8.25005 97.398 8.25005Z" fill="#989898"/>
<path d="M46.777 1.50003L42.9402 16.4223L39.1034 1.50003H26.3889L26.3888 26.5H33.5857L33.5858 6.16505L38.8143 26.5H47.0661L52.2979 6.15233V26.5H59.4949V1.50003H46.777Z" fill="#989898"/>
<path d="M9.59607 28C2.96236 28 0 22.4546 0 16.9556C0 13.1996 1.21812 8.87431 3.25951 5.38032C5.2182 2.00673 7.59312 0 9.59607 0C11.5933 0 13.9671 2.00673 15.9431 5.38032C17.9746 8.87431 19.1919 13.1996 19.1919 16.9556C19.1919 22.4546 16.2238 28 9.59607 28Z" fill="#989898"/>
<path d="M121.724 14H115.151V1.49667H124.82V4.48655H118.542V6.11744H121.724C124.385 6.11744 125.672 7.4946 125.672 9.92278C125.672 12.4778 124.385 14 121.724 14ZM121.081 8.74501H118.542V11.1912H121.081C121.724 11.1912 122.107 10.8469 122.107 10.2127V9.75971C122.107 9.10733 121.776 8.74501 121.081 8.74501Z" fill="#989898"/>
<path d="M134.941 1.49667L138.645 14H134.976L134.28 11.608H130.037L129.359 14H126.194L129.898 1.49667H134.941ZM130.82 8.88991H133.498L132.159 4.26913L130.82 8.88991Z" fill="#989898"/>
<path d="M147.219 14V9.16168H143.341V14H139.863V1.49667H143.341V6.08125H147.219V1.49667H150.696V14H147.219Z" fill="#989898"/>
<path d="M156.262 6.08125H156.871L159.983 1.49667H163.652L159.653 7.4584L164 14H159.983L156.766 9.16168H156.262V14H152.784V1.49667H156.262V6.08125Z" fill="#989898"/>
</svg>
