<svg width="173" height="27" viewBox="0 0 173 27" fill="none" xmlns="http://www.w3.org/2000/svg">
<path d="M0 26.039H6.86687V18.9493H10.2642C16.4323 18.9493 20.9138 15.8626 20.9138 10.0268C20.9138 4.45627 16.8901 1.249 10.6015 1.249H0V26.039ZM52.0195 26.039V16.6584L61.4404 1.249H53.7543L48.6222 10.2921L43.5142 1.249H35.6836L45.1045 16.7548V26.039H52.0195ZM16.0468 26.039H23.2751L25.0339 21.6019H34.5994L36.4064 26.039H43.7793L33.2019 1.05608H26.576L16.0468 26.039ZM27.0579 16.2484L29.8528 9.20689L32.6236 16.2484H27.0579ZM6.86687 13.5717V7.01244H10.0955C12.5772 7.01244 14.0711 8.14584 14.0711 10.2679C14.0711 12.2936 12.5772 13.5717 10.1437 13.5717H6.86687Z" fill="#333A4C"/>
<path d="M100.642 26.039H110.063C118.978 26.039 124.182 20.7338 124.182 13.5717C124.182 6.33722 119.05 1.249 110.207 1.249H100.642V26.039ZM156.637 26.039V16.6584L165.07 2.86469C164.516 2.52708 164.154 1.92421 164.13 1.249H158.372L153.24 10.2679L148.132 1.22488H140.301L149.722 16.7307V26.039H156.637ZM120.953 26.039H128.182L129.94 21.6019H139.506L141.313 26.039H148.686L138.132 1.05608H131.507L120.953 26.039ZM131.964 16.2484L134.759 9.20689L137.53 16.2484H131.964ZM107.509 19.938V7.25359H110.304C114.4 7.25359 117.146 9.61684 117.146 13.5958C117.146 17.6712 114.424 19.938 110.304 19.938H107.509Z" fill="#333A4C"/>
<path d="M164.973 8.33875V8.84516H167.961C169.045 8.84516 169.816 9.61684 169.816 10.6297C169.816 11.6666 169.118 12.2695 168.057 12.2695H164.998V12.7759H168.154C169.383 12.7759 170.274 12.0042 170.274 10.702C170.274 9.76153 169.792 9.18277 169.19 8.84516H170.154V8.33875H164.973ZM166.082 0.0191345C166.732 0.0191345 167.238 0.549661 167.238 1.17665C167.238 1.82775 166.708 2.33416 166.082 2.33416C165.431 2.33416 164.925 1.80363 164.925 1.17665C164.901 0.549661 165.431 0.0191345 166.082 0.0191345ZM164.853 5.05913C164.853 6.60248 166.106 7.73588 167.551 7.73588C169.021 7.73588 170.25 6.6266 170.25 5.08325C170.25 3.5399 168.997 2.4065 167.551 2.4065C166.082 2.4065 164.853 3.5399 164.853 5.05913ZM165.311 5.08325C165.311 3.87751 166.299 2.96114 167.551 2.96114C168.78 2.96114 169.792 3.90162 169.792 5.05913C169.792 6.21665 168.804 7.18124 167.551 7.18124C166.323 7.20535 165.311 6.24076 165.311 5.08325ZM164.853 23.724C164.853 24.7127 165.263 25.3397 165.817 25.8702L166.13 25.5326C165.672 25.0986 165.311 24.568 165.311 23.7481C165.311 22.7353 166.058 21.8189 167.359 21.7225V26.0149C167.431 26.0149 167.479 26.0149 167.551 26.0149C169.069 26.0149 170.25 25.0986 170.25 23.6517C170.25 22.253 169.045 21.192 167.551 21.192C165.937 21.192 164.853 22.3736 164.853 23.724ZM167.792 21.7225C168.949 21.8189 169.792 22.6147 169.792 23.6276C169.792 24.8092 168.828 25.4121 167.792 25.4844V21.7225ZM164.973 16.1037V16.6101H167.961C169.045 16.6101 169.816 17.3818 169.816 18.3946C169.816 19.4316 169.118 20.0344 168.057 20.0344H164.998V20.5409H168.154C169.383 20.5409 170.274 19.7692 170.274 18.467C170.274 17.5265 169.792 16.9477 169.19 16.6101H170.154V16.1037H164.973ZM164.973 14.8256V15.3321H170.13V14.8256H164.973ZM171.479 14.7774V15.4044H172.153V14.7774H171.479ZM164.973 13.5717V14.0781H172.37V13.5717H164.973Z" fill="#333A4C"/>
<path fill-rule="evenodd" clip-rule="evenodd" d="M84.1372 5.83081C86.4503 5.83081 88.4019 7.32593 89.0765 9.39981H94.2327C94.2086 7.37416 94.1845 5.85492 94.1363 5.54143C92.3775 5.27617 67.2953 5.27617 65.5124 5.54143C65.4642 5.85492 65.4401 7.39827 65.416 9.39981H71.9455V12.6553H65.3919C65.3919 16.7548 65.416 21.1678 65.5124 21.7225H94.1363C94.2327 21.1678 94.2568 16.7548 94.2568 12.6553H89.1006C88.426 14.7292 86.4503 16.2484 84.1613 16.2484C81.2941 16.2484 78.957 13.9093 78.957 11.0396C78.9329 8.16995 81.2459 5.83081 84.1372 5.83081ZM73.5598 19.2387H75.4874C75.7283 19.2387 75.9452 19.0457 75.9452 18.7805C75.9452 18.5393 75.7524 18.3223 75.4874 18.3223H73.5598C73.3189 18.3223 73.1021 18.5152 73.1021 18.7805C73.1261 19.0457 73.3189 19.2387 73.5598 19.2387ZM67.3676 19.2387H71.6564C71.8973 19.2387 72.1142 19.0457 72.1142 18.7805C72.1142 18.5393 71.9214 18.3223 71.6564 18.3223H67.3676C67.1267 18.3223 66.9098 18.5152 66.9098 18.7805C66.9098 19.0457 67.1267 19.2387 67.3676 19.2387ZM75.897 16.0314V8.48344H78.8847V6.04784H70.1144V8.48344H73.1021V16.0314H75.897ZM94.1122 25.9185H65.5365C64.3799 25.9185 63.3439 25.4362 62.5729 24.6886C61.8018 23.9169 61.344 22.88 61.344 21.7225V5.56555C61.344 4.40803 61.8259 3.3711 62.5729 2.59942C63.3439 1.82775 64.3799 1.36956 65.5365 1.36956H94.1122C95.2688 1.36956 96.3048 1.85186 97.0758 2.59942C97.8469 3.3711 98.3046 4.40803 98.3046 5.56555V21.6984C98.3046 22.8559 97.8228 23.8928 97.0758 24.6645C96.3048 25.4603 95.2447 25.9185 94.1122 25.9185ZM84.1372 8.38698C85.607 8.38698 86.7876 9.56861 86.7876 11.0396C86.7876 12.5106 85.607 13.6922 84.1372 13.6922C82.6675 13.6922 81.4868 12.5106 81.4868 11.0396C81.4868 9.56861 82.6675 8.38698 84.1372 8.38698Z" fill="#333A4C"/>
</svg>
